Music_AzaleaTown:
	musicheader 3, 1, Music_AzaleaTown_Ch1
	musicheader 1, 2, Music_AzaleaTown_Ch2
	musicheader 1, 3, Music_AzaleaTown_Ch3


Music_AzaleaTown_Ch1:
	tempo 192
	volume $77
	notetype $c, $95
	dutycycle $2
	stereopanning $0f
	tone $0002
Music_AzaleaTown_Ch1_Loop:
	note __, 1
	note __, 1
	octave 3
	note F_, 4
	note F_, 4
	note F_, 4
	note F_, 4
	note F_, 4
	note F_, 4
	note F_, 4
	note F_, 4
	note F_, 4
	note F_, 4
	note F_, 4
	note F_, 4
	note F_, 4
	note E_, 4
	note D_, 4
	note C_, 4
	octave 4
	note D#, 8
	note C_, 8
	note F_, 8
	note F_, 8
	note A_, 4
	note E_, 4
	note E_, 4
	note D_, 4
	octave 3
	note A#, 4
	note A#, 4
	note A_, 8
	note F_, 4
	note F_, 4
	octave 4
	note C#, 4
	note E_, 4
	note E_, 4
	note D_, 4
	note C#, 4
	note C_, 4
	note C_, 4
	octave 3
	note A#, 4
	octave 2
	note A#, 4
	note A#, 4
	octave 4
	note C_, 4
	note C_, 4
	note C#, 4
	note E_, 4
	note D_, 16
	note C#, 16
	note C_, 8
	octave 3
	note A_, 4
	note F_, 4
	octave 4
	note F_, 8
	note C#, 8
	note F_, 8
	note E_, 8
	note E_, 4
	note D_, 4
	note C#, 4
	note C_, 4
	octave 3
	note A#, 8
	note A#, 8
	note G#, 4
	note A#, 4
	octave 4
	note C_, 4
	octave 3
	note A#, 4
	note A_, 12
	loopchannel 0, Music_AzaleaTown_Ch1_Loop


Music_AzaleaTown_Ch2:
	volume $77
	notetype $c, $95
	dutycycle $2
	tone $0001
Music_AzaleaTown_Ch2_Loop:
	octave 4
	note C_, 2
	note C_, 4
	note C_, 2
	note C_, 2
	note A_, 6
	note A_, 2
	note A_, 4
	note G_, 2
	note G_, 2
	note G_, 6
	note G_, 2
	note G_, 4
	note E_, 2
	note F_, 2
	note G_, 2
	note E_, 4
	note C_, 2
	note D_, 4
	note C_, 2
	note C_, 2
	note C_, 6
	note F_, 2
	note G_, 4
	note F_, 2
	note F_, 2
	note F_, 4
	note F_, 2
	note A_, 2
	note A#, 2
	note A_, 2
	note G_, 2
	note F_, 2
	note G_, 6
	note A_, 2
	octave 5
	note C_, 4
	octave 4
	note A#, 2
	note A_, 2
	note G_, 4
	note F_, 2
	note G_, 2
	note A_, 4
	note D_, 2
	note E_, 2
	note F_, 8
	note C_, 6
	note C_, 2
	note A_, 2
	note G_, 2
	note A_, 4
	note G_, 4
	note F_, 4
	note F_, 8
	note D_, 4
	note D_, 4
	note E_, 4
	note D_, 2
	note E_, 2
	note F_, 4
	note F_, 2
	note G_, 2
	note A_, 8
	note A_, 4
	note A_, 4
	note F_, 6
	note F_, 2
	note A_, 4
	note A_, 4
	note F_, 8
	note A_, 4
	note A_, 4
	note F_, 4
	note F_, 4
	octave 5
	note D_, 4
	note C_, 2
	octave 4
	note A#, 2
	note A_, 6
	note G_, 2
	octave 5
	note C_, 4
	octave 4
	note A_, 2
	note A#, 2
	octave 5
	note C_, 2
	octave 4
	note A_, 4
	note G_, 2
	note F_, 12
	note D_, 4
	note D_, 4
	note D_, 4
	note E_, 4
	note E_, 4
	note F_, 16
	note F_, 12
	loopchannel 0, Music_AzaleaTown_Ch2_Loop


Music_AzaleaTown_Ch3:
	notetype $c, $25
	stereopanning $f0
Music_AzaleaTown_Ch3_Loop:
	note __, 2
	octave 3
	note A_, 4
	note A_, 4
	octave 4
	note C_, 4
	note C_, 4
	octave 3
	note B_, 4
	note B_, 4
	octave 4
	note D_, 4
	octave 3
	note B_, 4
	note A#, 4
	note G_, 4
	note A#, 4
	note G_, 4
	note A_, 4
	note A_, 4
	note F_, 4
	note A_, 4
	note C_, 4
	note C_, 4
	note D#, 4
	note D#, 4
	note D_, 4
	note D_, 4
	note C#, 4
	note C#, 4
	note C_, 4
	note C#, 4
	note D_, 4
	note D_, 4
	octave 2
	note G_, 4
	octave 3
	note C_, 4
	note F_, 4
	octave 2
	note F_, 4
	octave 3
	note A_, 4
	note A_, 4
	note E_, 4
	note C#, 4
	note D_, 4
	note D_, 4
	note D_, 4
	note D_, 4
	octave 2
	note A#, 4
	note A#, 4
	octave 3
	note G_, 4
	note G_, 4
	octave 2
	note A_, 4
	note A_, 4
	note A_, 4
	octave 3
	note G_, 4
	note F_, 4
	note G_, 4
	note A_, 4
	note F_, 4
	note F_, 4
	note G_, 4
	note A_, 4
	note F_, 4
	note C_, 16
	octave 2
	note A#, 4
	octave 3
	note A_, 2
	note G_, 2
	note F_, 4
	octave 2
	note A#, 4
	note A_, 4
	octave 3
	note C_, 4
	octave 2
	note A_, 4
	octave 3
	note C_, 4
	note D_, 8
	note F_, 4
	note A_, 4
	note G_, 8
	note C_, 8
	note C#, 8
	octave 2
	note G_, 8
	note F_, 12
	loopchannel 0, Music_AzaleaTown_Ch3_Loop


