Music_Bicycle:
	musicheader 3, 1, Music_Bicycle_Ch1
	musicheader 1, 2, Music_Bicycle_Ch2
	musicheader 1, 3, Music_Bicycle_Ch3


Music_Bicycle_Ch1:
	tempo 213
	volume $77
	notetype $c, $95
	dutycycle $0
Music_Bicycle_Ch1_Loop:
	stereopanning $f0
	note __, 4
	octave 4
	note E_, 1
	note E_, 1
	note E_, 1
	note E_, 1
	note E_, 1
	note __, 1
	note __, 1
	note __, 1
	note C_, 1
	note C_, 1
	note C_, 1
	note C_, 1
	note C_, 1
	note __, 1
	note __, 1
	note __, 1
	note E_, 1
	note __, 1
	note __, 1
	note __, 1
	note E_, 1
	note __, 1
	note __, 1
	note __, 1
	note __, 1
	note F#, 7
	note __, 4
	note __, 4
	note __, 4
	note __, 4
	stereopanning $0f
	note E_, 1
	note E_, 1
	note E_, 1
	note D#, 1
	note E_, 1
	note E_, 1
	note D#, 1
	note __, 1
	note __, 4
	note __, 4
	note __, 4
	note __, 4
	note __, 4
	note __, 4
	note __, 4
	note __, 4
	note __, 4
	note __, 4
	stereopanning $f0
	octave 2
	note A_, 1
	note A_, 1
	note A_, 1
	note A_, 1
	note A_, 1
	note A_, 1
	note A_, 1
	note A_, 1
	note A_, 1
	note A_, 1
	note A_, 1
	note A_, 1
	note A_, 1
	note A_, 1
	note A_, 1
	note A_, 1
	note A_, 1
	note A_, 1
	note A_, 1
	note A_, 1
	note A_, 1
	note A_, 1
	note A_, 1
	note A_, 1
	note A_, 1
	note A_, 1
	note A_, 1
	note A_, 1
	note A_, 1
	note A_, 1
	note A_, 1
	note A_, 1
	octave 3
	note D_, 1
	note D_, 1
	note D_, 1
	note D_, 1
	note D_, 1
	note D_, 1
	note D_, 1
	note D_, 1
	note D_, 1
	note D_, 1
	note D_, 1
	note D_, 1
	note D_, 1
	note D_, 1
	note D_, 1
	note D_, 1
	octave 2
	note A_, 1
	note A_, 1
	note A_, 1
	note A_, 1
	note A_, 1
	note A_, 1
	note A_, 1
	note A_, 1
	note A_, 1
	note A_, 1
	note A_, 1
	note A_, 1
	note A_, 1
	note A_, 1
	note A_, 1
	note A_, 1
	stereopanning $0f
	octave 3
	note E_, 1
	note E_, 1
	note E_, 1
	note E_, 1
	note E_, 1
	note E_, 1
	note E_, 1
	note E_, 1
	note D_, 1
	note D_, 1
	note D_, 1
	note D_, 1
	note D_, 1
	note D_, 1
	note D_, 1
	note D_, 1
	octave 2
	note A_, 1
	note A_, 1
	note A_, 1
	note A_, 1
	note A_, 1
	note A_, 1
	note A_, 1
	note A_, 1
	note A_, 1
	note A_, 1
	note A_, 1
	note A_, 1
	note A_, 1
	note A_, 1
	note A_, 1
	note A_, 1
	loopchannel 0, Music_Bicycle_Ch1_Loop


Music_Bicycle_Ch2:
	notetype $c, $b5
	dutycycle $1
Music_Bicycle_Ch2_Loop:
	stereopanning $ff
	note __, 1
	octave 4
	note C_, 1
	note C#, 1
	note E_, 1
	stereopanning $0f
	note A_, 1
	note A_, 1
	note A_, 1
	note A_, 1
	note A_, 1
	stereopanning $ff
	note F#, 1
	note E_, 1
	note F#, 1
	stereopanning $0f
	note E_, 1
	note E_, 1
	note E_, 1
	note E_, 1
	note E_, 1
	stereopanning $ff
	note F#, 1
	note E_, 1
	note F#, 1
	stereopanning $0f
	note A_, 1
	stereopanning $ff
	note F#, 1
	note E_, 1
	note F#, 1
	stereopanning $0f
	note A_, 1
	stereopanning $ff
	note F#, 1
	note E_, 1
	note F#, 1
	note __, 1
	stereopanning $0f
	octave 5
	note C#, 7
	note D_, 2
	note D_, 2
	note D_, 2
	note D_, 2
	note __, 1
	note D_, 1
	note D_, 2
	note D_, 2
	note D_, 2
	stereopanning $f0
	octave 4
	note A_, 1
	note A_, 1
	note A_, 1
	note G#, 1
	note A_, 1
	note A_, 1
	note G#, 1
	note A_, 1
	note __, 1
	octave 5
	note C_, 1
	octave 4
	note A_, 1
	note G_, 1
	note E_, 1
	note D_, 1
	note C_, 1
	octave 3
	note A_, 1
	octave 4
	note D#, 2
	note D#, 2
	note D#, 1
	note D_, 1
	note C_, 1
	octave 3
	note A_, 1
	note __, 1
	note A_, 1
	note G_, 1
	note E_, 1
	note D#, 1
	note D_, 1
	note C_, 1
	octave 2
	note A_, 1
	note __, 1
	octave 4
	note D_, 1
	note E_, 1
	note A_, 1
	note G_, 1
	note E_, 1
	note D_, 1
	note C_, 1
	octave 3
	note A_, 1
	note __, 1
	note __, 1
	note E_, 5
	stereopanning $0f
	note E_, 1
	note E_, 1
	note F#, 1
	note E_, 1
	note E_, 1
	note E_, 1
	note F#, 1
	note E_, 1
	note E_, 1
	note E_, 1
	note F#, 1
	note E_, 1
	note G_, 1
	note E_, 1
	note F#, 1
	note E_, 1
	note E_, 1
	note E_, 1
	note F#, 1
	note E_, 1
	note E_, 1
	note E_, 1
	note F#, 1
	note E_, 1
	note E_, 1
	note E_, 1
	note F#, 1
	note E_, 1
	note G_, 1
	note E_, 1
	note F#, 1
	note E_, 1
	note A_, 1
	note A_, 1
	note B_, 1
	note A_, 1
	note A_, 1
	note A_, 1
	note B_, 1
	note A_, 1
	note A_, 1
	note A_, 1
	note B_, 1
	note A_, 1
	octave 4
	note C_, 1
	octave 3
	note A_, 1
	note B_, 1
	note A_, 1
	note E_, 1
	note E_, 1
	note F#, 1
	note E_, 1
	note E_, 1
	note E_, 1
	note F#, 1
	note E_, 1
	note G_, 1
	note E_, 1
	note F#, 1
	note E_, 1
	note E_, 1
	note E_, 1
	note F#, 1
	note E_, 1
	stereopanning $f0
	note B_, 1
	note B_, 1
	octave 4
	note C#, 1
	octave 3
	note B_, 1
	note B_, 1
	note B_, 1
	octave 4
	note C#, 1
	octave 3
	note B_, 1
	note A_, 1
	note A_, 1
	note B_, 1
	note A_, 1
	note A_, 1
	note A_, 1
	note B_, 1
	note A_, 1
	note E_, 1
	note E_, 1
	note F#, 1
	note E_, 1
	note E_, 1
	note E_, 1
	note F#, 1
	note E_, 1
	note G_, 1
	note E_, 1
	note F#, 1
	note E_, 1
	note E_, 1
	note E_, 1
	note F#, 1
	note E_, 1
	loopchannel 0, Music_Bicycle_Ch2_Loop


Music_Bicycle_Ch3:
	notetype $c, $26
Music_Bicycle_Ch3_Loop:
	stereopanning $ff
	note __, 4
	octave 1
	note A_, 1
	note __, 1
	note __, 2
	note __, 4
	octave 2
	note D_, 1
	note __, 1
	note __, 2
	note __, 4
	octave 1
	note A_, 1
	note __, 1
	note __, 2
	note A_, 1
	note __, 1
	note __, 2
	note __, 1
	octave 2
	note E_, 1
	note E_, 1
	note E_, 1
	note E_, 1
	note E_, 1
	note E_, 1
	note E_, 1
	stereopanning $f0
	note D_, 1
	note D_, 1
	note F#, 1
	note F#, 1
	note A_, 1
	note A_, 1
	note B_, 1
	note A_, 1
	note D_, 1
	note D_, 1
	note F#, 1
	note F#, 1
	note A_, 1
	note A_, 1
	note B_, 1
	note A_, 1
	stereopanning $ff
	octave 1
	note A_, 1
	note A_, 1
	octave 2
	note C#, 1
	note C#, 1
	note E_, 1
	note E_, 1
	note F#, 1
	note C#, 1
	stereopanning $0f
	octave 1
	note A_, 1
	note A_, 1
	octave 2
	note C#, 1
	note C#, 1
	note E_, 1
	note E_, 1
	note F#, 1
	note E_, 1
	note E_, 1
	note E_, 1
	note G#, 1
	note G#, 1
	note B_, 1
	note B_, 1
	octave 3
	note C#, 1
	octave 2
	note B_, 1
	note D_, 1
	note D_, 1
	note F#, 1
	note F#, 1
	note A_, 1
	note A_, 1
	note B_, 1
	note A_, 1
	octave 1
	note A_, 1
	note A_, 1
	note A_, 1
	note A_, 1
	note A_, 1
	note A_, 1
	note A_, 1
	note A_, 1
	octave 2
	note E_, 1
	note E_, 1
	note E_, 1
	note E_, 1
	note E_, 1
	note E_, 1
	note E_, 1
	note E_, 1
	stereopanning $ff
	octave 1
	note A_, 1
	note A_, 1
	octave 2
	note C#, 1
	note C#, 1
	note E_, 1
	note E_, 1
	note F#, 1
	note E_, 1
	octave 1
	note A_, 1
	note A_, 1
	octave 2
	note C#, 1
	note C#, 1
	note E_, 1
	note E_, 1
	note F#, 1
	note E_, 1
	octave 1
	note A_, 1
	note A_, 1
	octave 2
	note C#, 1
	note C#, 1
	note E_, 1
	note E_, 1
	note F#, 1
	note E_, 1
	octave 1
	note A_, 1
	note A_, 1
	octave 2
	note C#, 1
	note C#, 1
	note E_, 1
	note E_, 1
	note F#, 1
	note E_, 1
	note D_, 1
	note D_, 1
	note F#, 1
	note F#, 1
	note A_, 1
	note A_, 1
	note B_, 1
	note A_, 1
	note D_, 1
	note D_, 1
	note F#, 1
	note F#, 1
	note A_, 1
	note A_, 1
	note B_, 1
	note A_, 1
	octave 1
	note A_, 1
	note A_, 1
	octave 2
	note C#, 1
	note C#, 1
	note E_, 1
	note E_, 1
	note F#, 1
	note E_, 1
	octave 1
	note A_, 1
	note A_, 1
	octave 2
	note C#, 1
	note C#, 1
	note E_, 1
	note E_, 1
	note F#, 1
	note E_, 1
	note E_, 1
	note E_, 1
	note G#, 1
	note G#, 1
	note B_, 1
	note B_, 1
	octave 3
	note C#, 1
	octave 2
	note B_, 1
	note D_, 1
	note D_, 1
	note F#, 1
	note F#, 1
	note A_, 1
	note A_, 1
	note B_, 1
	note A_, 1
	octave 1
	note A_, 1
	note A_, 1
	octave 2
	note C#, 1
	note C#, 1
	note E_, 1
	note E_, 1
	note F#, 1
	note E_, 1
	octave 1
	note A_, 1
	note A_, 1
	octave 2
	note C#, 1
	note C#, 1
	note E_, 1
	note E_, 1
	note F#, 1
	note E_, 1
	loopchannel 0, Music_Bicycle_Ch3_Loop


