Music_CherrygroveCity:
	musicheader 3, 1, Music_CherrygroveCity_Ch1
	musicheader 1, 2, Music_CherrygroveCity_Ch2
	musicheader 1, 3, Music_CherrygroveCity_Ch3


Music_CherrygroveCity_Ch1:
	tempo 147
	volume $77
	notetype $c, $95
	dutycycle $0
	stereopanning $f0
Music_CherrygroveCity_Ch1_Loop:
	octave 4
	note __, 16
	note __, 16
	note __, 16
	note __, 16
	note __, 16
	note __, 16
	note __, 16
	note __, 16
	octave 2
	note B_, 8
	note __, 8
	note A_, 8
	note __, 8
	note G_, 8
	note __, 8
	note F#, 8
	note __, 8
	octave 4
	note E_, 16
	note __, 8
	note C#, 8
	octave 3
	note A_, 16
	note __, 4
	note __, 2
	note __, 2
	octave 4
	note E_, 4
	note C#, 4
	octave 1
	note B_, 4
	note __, 2
	note __, 2
	octave 3
	note B_, 3
	note B_, 3
	note A_, 4
	note __, 4
	note __, 2
	note A_, 3
	note A_, 3
	note A_, 4
	note __, 4
	note G#, 2
	note G#, 3
	note G#, 3
	note __, 2
	octave 2
	note E_, 4
	note __, 4
	octave 3
	note G#, 3
	note F#, 3
	note F#, 3
	note __, 1
	note __, 4
	note __, 2
	note B_, 3
	note B_, 3
	note A_, 4
	note __, 2
	note __, 2
	note E_, 2
	note E_, 2
	note E_, 2
	note E_, 4
	octave 2
	note A_, 4
	note __, 4
	note A_, 2
	note __, 2
	octave 3
	note G#, 2
	note __, 2
	octave 2
	note E_, 4
	note __, 4
	octave 1
	note B_, 2
	note __, 2
	note __, 4
	octave 2
	note B_, 4
	note __, 2
	note __, 2
	octave 3
	note B_, 3
	note B_, 3
	note A_, 4
	note __, 4
	note __, 2
	note A_, 3
	note A_, 3
	note A_, 4
	note __, 4
	note G#, 2
	note G#, 3
	note G#, 3
	note __, 2
	octave 2
	note E_, 4
	note __, 4
	octave 3
	note G#, 3
	note F#, 3
	note F#, 3
	note __, 1
	note __, 4
	note __, 2
	note B_, 3
	note B_, 3
	note A_, 4
	note __, 2
	note __, 2
	note E_, 2
	note E_, 2
	note E_, 2
	note E_, 4
	octave 2
	note A_, 4
	note __, 4
	note A_, 2
	note __, 2
	octave 3
	note G#, 2
	note __, 2
	octave 2
	note E_, 4
	note B_, 4
	octave 1
	note B_, 2
	octave 2
	note B_, 2
	note B_, 4
	octave 3
	note F#, 4
	octave 4
	note F#, 4
	note D_, 4
	octave 3
	note B_, 4
	octave 4
	note F#, 4
	note D_, 4
	octave 3
	note F#, 8
	note E_, 4
	octave 4
	note E_, 4
	note C#, 4
	octave 3
	note A_, 4
	octave 4
	note E_, 4
	octave 3
	note B_, 4
	note E_, 4
	note __, 4
	note B_, 2
	note E_, 2
	note B_, 2
	note D_, 2
	note B_, 4
	octave 2
	note B_, 4
	octave 3
	note D_, 4
	note B_, 2
	note D_, 2
	note B_, 4
	octave 2
	note B_, 4
	octave 3
	note A_, 4
	note A_, 2
	note D_, 2
	note A_, 4
	octave 2
	note B_, 4
	octave 3
	note E_, 4
	note B_, 2
	note B_, 2
	note B_, 4
	octave 4
	note D_, 4
	octave 2
	note B_, 2
	octave 3
	note B_, 2
	note E_, 2
	note D_, 2
	note B_, 4
	octave 2
	note B_, 4
	octave 3
	note D_, 2
	note F#, 2
	note E_, 2
	note D_, 2
	note A_, 4
	note E_, 4
	note A_, 2
	octave 4
	note E_, 2
	note C#, 2
	octave 3
	note A_, 2
	octave 4
	note E_, 4
	octave 3
	note B_, 4
	note E_, 2
	octave 4
	note E_, 2
	octave 3
	note B_, 2
	note G#, 2
	octave 4
	note E_, 4
	octave 3
	note B_, 4
	octave 2
	note B_, 2
	octave 3
	note B_, 2
	note E_, 2
	note D_, 2
	note B_, 4
	octave 2
	note B_, 4
	octave 3
	note D_, 2
	note F#, 2
	note E_, 2
	note D_, 2
	note A_, 4
	note E_, 4
	note A_, 2
	octave 4
	note E_, 2
	note C#, 2
	octave 3
	note A_, 2
	octave 4
	note E_, 4
	octave 3
	note B_, 4
	note E_, 2
	octave 4
	note E_, 2
	octave 3
	note B_, 2
	note G#, 2
	octave 4
	note E_, 4
	octave 3
	note B_, 4
	note D_, 2
	note F#, 2
	note B_, 2
	octave 4
	note D_, 2
	octave 3
	note B_, 2
	note F#, 2
	note D_, 2
	note D_, 2
	note F#, 2
	note A_, 2
	octave 4
	note D_, 2
	note F#, 2
	note D_, 2
	octave 3
	note A_, 2
	note F#, 2
	note A_, 2
	octave 4
	note C#, 2
	note E_, 2
	note A_, 2
	note E_, 2
	note C#, 2
	octave 3
	note A_, 2
	note E_, 2
	note E_, 2
	note G#, 2
	note B_, 2
	octave 4
	note E_, 2
	note G#, 2
	note E_, 2
	octave 3
	note B_, 2
	note G#, 2
	note E_, 2
	octave 4
	note D_, 8
	note D_, 4
	note E_, 4
	note C#, 16
	note C#, 8
	note C#, 4
	octave 3
	note B_, 4
	octave 4
	note E_, 4
	octave 3
	note B_, 4
	note B_, 4
	note B_, 4
	note F#, 4
	octave 4
	note F#, 4
	note D_, 4
	octave 3
	note B_, 4
	octave 4
	note F#, 4
	note D_, 4
	octave 3
	note F#, 8
	note E_, 4
	octave 4
	note E_, 4
	note C#, 4
	octave 3
	note A_, 4
	octave 4
	note E_, 4
	octave 3
	note B_, 4
	note E_, 4
	note __, 4
	note B_, 2
	note E_, 2
	note B_, 2
	note D_, 2
	note B_, 4
	octave 2
	note B_, 4
	octave 3
	note D_, 4
	note B_, 2
	note D_, 2
	note B_, 4
	octave 2
	note B_, 4
	octave 3
	note A_, 4
	note A_, 2
	note D_, 2
	note A_, 4
	octave 2
	note B_, 4
	octave 3
	note E_, 4
	note B_, 2
	note B_, 2
	note B_, 4
	octave 4
	note D_, 4
	octave 2
	note B_, 2
	octave 3
	note B_, 2
	note E_, 2
	note D_, 2
	note B_, 4
	octave 2
	note B_, 4
	octave 3
	note D_, 2
	note F#, 2
	note E_, 2
	note D_, 2
	note A_, 4
	note E_, 4
	note A_, 2
	octave 4
	note E_, 2
	note C#, 2
	octave 3
	note A_, 2
	octave 4
	note E_, 4
	octave 3
	note B_, 4
	note E_, 2
	octave 4
	note E_, 2
	octave 3
	note B_, 2
	note G#, 2
	octave 4
	note E_, 4
	octave 3
	note B_, 4
	octave 2
	note B_, 2
	octave 3
	note B_, 2
	note E_, 2
	note D_, 2
	note B_, 4
	octave 2
	note B_, 4
	octave 3
	note D_, 2
	note F#, 2
	note E_, 2
	note D_, 2
	note A_, 4
	note E_, 4
	note A_, 2
	octave 4
	note E_, 2
	note C#, 2
	octave 3
	note A_, 2
	octave 4
	note E_, 4
	octave 3
	note B_, 4
	note E_, 2
	octave 4
	note E_, 2
	octave 3
	note B_, 2
	note G#, 2
	octave 4
	note E_, 4
	octave 3
	note B_, 4
	note E_, 2
	octave 4
	note F#, 2
	note D_, 2
	octave 3
	note B_, 2
	octave 4
	note F#, 4
	note F#, 4
	loopchannel 0, Music_CherrygroveCity_Ch1_Loop


Music_CherrygroveCity_Ch2:
	volume $77
	notetype $c, $95
	dutycycle $1
	stereopanning $0f
Music_CherrygroveCity_Ch2_Loop:
	octave 4
	octave 3
	note B_, 2
	note A_, 2
	note B_, 2
	octave 4
	note D_, 4
	octave 3
	note A_, 2
	note B_, 2
	octave 4
	note E_, 2
	octave 3
	note B_, 2
	note A_, 2
	note B_, 2
	octave 4
	note F#, 4
	octave 3
	note B_, 2
	note A_, 2
	note B_, 2
	note B_, 2
	note A_, 2
	note B_, 2
	octave 4
	note D_, 4
	octave 3
	note A_, 2
	note B_, 2
	octave 4
	note E_, 2
	note A_, 2
	octave 3
	note A_, 2
	note B_, 2
	octave 4
	note E_, 2
	octave 3
	note B_, 2
	note A_, 2
	octave 4
	note A_, 2
	octave 3
	note B_, 2
	note B_, 2
	note A_, 2
	note B_, 2
	octave 4
	note D_, 4
	octave 3
	note A_, 2
	note B_, 2
	octave 4
	note E_, 2
	octave 3
	note B_, 2
	note A_, 2
	note B_, 2
	octave 4
	note F#, 4
	octave 3
	note B_, 2
	note A_, 2
	note B_, 2
	note B_, 2
	note A_, 2
	note B_, 2
	octave 4
	note D_, 4
	octave 3
	note A_, 2
	note B_, 2
	octave 4
	note D_, 2
	note A_, 2
	octave 3
	note A_, 2
	octave 4
	note F#, 2
	octave 3
	note A_, 2
	octave 4
	note E_, 2
	octave 3
	note A_, 2
	octave 4
	note F#, 2
	octave 3
	note B_, 2
	octave 4
	note B_, 2
	note A_, 2
	note B_, 2
	octave 5
	note D_, 4
	octave 4
	note A_, 2
	note B_, 2
	octave 5
	note E_, 2
	octave 4
	note B_, 2
	note A_, 2
	note B_, 2
	octave 5
	note F#, 4
	octave 4
	note B_, 2
	note A_, 2
	note B_, 2
	note B_, 2
	note A_, 2
	note B_, 2
	octave 5
	note D_, 4
	octave 4
	note A_, 2
	note B_, 2
	octave 5
	note E_, 2
	octave 4
	note B_, 2
	note A_, 2
	note B_, 2
	octave 5
	note D_, 4
	octave 4
	note A_, 2
	note B_, 2
	octave 5
	note F#, 2
	octave 4
	note B_, 16
	note __, 2
	note __, 2
	note __, 4
	octave 5
	note C#, 8
	octave 4
	note A_, 16
	note __, 4
	note __, 2
	note __, 2
	note A_, 4
	note F#, 4
	note __, 4
	note __, 2
	octave 3
	note B_, 2
	octave 4
	note F#, 3
	note F#, 3
	note E_, 4
	note __, 4
	octave 3
	note A_, 2
	octave 4
	note E_, 3
	note E_, 3
	note D_, 4
	note __, 4
	note C#, 2
	note C#, 3
	note C#, 3
	note D_, 4
	note __, 2
	note C#, 4
	note D_, 3
	octave 3
	note B_, 3
	note B_, 3
	note __, 1
	note __, 4
	note B_, 2
	octave 4
	note F#, 3
	note F#, 3
	note E_, 4
	note __, 2
	note __, 2
	octave 3
	note A_, 2
	note A_, 2
	note A_, 2
	note A_, 4
	note __, 2
	note __, 2
	note __, 4
	note __, 2
	note E_, 2
	octave 4
	note C#, 2
	octave 3
	note B_, 4
	note __, 2
	note __, 4
	note __, 8
	note __, 4
	note __, 2
	note B_, 2
	octave 4
	note F#, 3
	note F#, 3
	note E_, 4
	note __, 4
	octave 3
	note A_, 2
	octave 4
	note E_, 3
	note E_, 3
	note D_, 4
	note __, 4
	note C#, 2
	note C#, 3
	note C#, 3
	note D_, 4
	note __, 2
	note C#, 4
	note D_, 3
	octave 3
	note B_, 3
	note B_, 3
	note __, 1
	note __, 4
	note B_, 2
	octave 4
	note F#, 3
	note F#, 3
	note E_, 4
	note __, 2
	note __, 2
	octave 3
	note A_, 2
	note A_, 2
	note A_, 2
	note A_, 4
	note __, 2
	note __, 2
	note __, 4
	note __, 2
	note E_, 2
	octave 4
	note C#, 2
	octave 3
	note B_, 4
	note __, 2
	note B_, 4
	note B_, 4
	note B_, 4
	note B_, 4
	octave 4
	note B_, 4
	note B_, 4
	note B_, 4
	note A_, 4
	note A_, 4
	note F#, 8
	octave 3
	note A_, 4
	octave 4
	note A_, 4
	note A_, 4
	note A_, 4
	note G#, 4
	note G#, 4
	note E_, 4
	note __, 4
	note F#, 2
	note E_, 2
	note E_, 2
	note D_, 2
	note E_, 4
	octave 3
	note B_, 4
	note __, 4
	octave 4
	note E_, 2
	note D_, 2
	note E_, 4
	octave 3
	note B_, 4
	note __, 4
	octave 4
	note E_, 2
	note D_, 2
	note E_, 4
	octave 3
	note B_, 4
	note __, 4
	octave 4
	note B_, 2
	note B_, 2
	note B_, 4
	octave 5
	note D_, 4
	note __, 2
	octave 4
	note F#, 2
	note E_, 2
	note D_, 2
	note E_, 4
	octave 3
	note B_, 4
	note __, 2
	octave 4
	note F#, 2
	note E_, 2
	note D_, 2
	note E_, 4
	octave 3
	note A_, 4
	note __, 2
	octave 4
	note A_, 2
	note A_, 2
	note A_, 2
	note A_, 4
	note G#, 4
	note __, 2
	note G#, 2
	note G#, 2
	note G#, 2
	note G#, 4
	note F#, 4
	note __, 2
	note F#, 2
	note E_, 2
	note D_, 2
	note E_, 4
	octave 3
	note B_, 4
	note __, 2
	octave 4
	note F#, 2
	note E_, 2
	note D_, 2
	note E_, 4
	octave 3
	note A_, 4
	note __, 2
	octave 4
	note A_, 2
	note A_, 2
	note A_, 2
	note A_, 4
	note G#, 4
	note __, 2
	note G#, 2
	note G#, 2
	note G#, 2
	note G#, 4
	note F#, 4
	note D_, 8
	note D_, 4
	note E_, 4
	note C#, 16
	note C#, 8
	note C#, 4
	octave 3
	note B_, 4
	note B_, 16
	octave 5
	note D_, 8
	note D_, 4
	note E_, 4
	note C#, 16
	note C#, 8
	note C#, 4
	octave 4
	note B_, 4
	note B_, 4
	note B_, 4
	note B_, 4
	note B_, 4
	octave 3
	note B_, 4
	octave 4
	note B_, 4
	note B_, 4
	note B_, 4
	note A_, 4
	note A_, 4
	note F#, 8
	octave 3
	note A_, 4
	octave 4
	note A_, 4
	note A_, 4
	note A_, 4
	note G#, 4
	note G#, 4
	note E_, 4
	note __, 4
	note F#, 2
	note E_, 2
	note E_, 2
	note D_, 2
	note E_, 4
	octave 3
	note B_, 4
	note __, 4
	octave 4
	note E_, 2
	note D_, 2
	note E_, 4
	octave 3
	note B_, 4
	note __, 4
	octave 4
	note E_, 2
	note D_, 2
	note E_, 4
	octave 3
	note B_, 4
	note __, 4
	octave 4
	note B_, 2
	note B_, 2
	note B_, 4
	octave 5
	note D_, 4
	note __, 2
	octave 4
	note F#, 2
	note E_, 2
	note D_, 2
	note E_, 4
	octave 3
	note B_, 4
	note __, 2
	octave 4
	note F#, 2
	note E_, 2
	note D_, 2
	note E_, 4
	octave 3
	note A_, 4
	note __, 2
	octave 4
	note A_, 2
	note A_, 2
	note A_, 2
	note A_, 4
	note G#, 4
	note __, 2
	note G#, 2
	note G#, 2
	note G#, 2
	note G#, 4
	note F#, 4
	note __, 2
	note F#, 2
	note E_, 2
	note D_, 2
	note E_, 4
	octave 3
	note B_, 4
	note __, 2
	octave 4
	note F#, 2
	note E_, 2
	note D_, 2
	note E_, 4
	octave 3
	note A_, 4
	note __, 2
	octave 4
	note A_, 2
	note A_, 2
	note A_, 2
	note A_, 4
	note G#, 4
	note __, 2
	note G#, 2
	note G#, 2
	note G#, 2
	note G#, 4
	note F#, 4
	note __, 2
	note B_, 2
	note B_, 2
	note B_, 2
	note B_, 4
	octave 5
	note D_, 4
	loopchannel 0, Music_CherrygroveCity_Ch2_Loop


Music_CherrygroveCity_Ch3:
	notetype $c, $26
Music_CherrygroveCity_Ch3_Loop:
	octave 4
	octave 3
	note B_, 16
	note B_, 8
	octave 4
	note C#, 8
	octave 3
	note A_, 16
	note A_, 8
	note __, 8
	note B_, 16
	note B_, 8
	octave 4
	note C#, 8
	octave 3
	note A_, 16
	note A_, 8
	note __, 8
	octave 1
	note B_, 8
	octave 2
	note B_, 2
	octave 3
	note D_, 2
	note F#, 2
	note B_, 2
	octave 1
	note A_, 8
	octave 2
	note A_, 2
	octave 3
	note C#, 2
	note E_, 2
	note A_, 2
	octave 1
	note G_, 8
	octave 2
	note G_, 2
	note B_, 2
	octave 3
	note D_, 2
	note G_, 2
	octave 1
	note F#, 8
	octave 2
	note F#, 2
	note A_, 2
	octave 3
	note C#, 2
	note F#, 2
	octave 2
	note B_, 2
	note A_, 2
	note B_, 2
	octave 3
	note D_, 4
	octave 2
	note A_, 2
	note B_, 2
	octave 3
	note E_, 2
	octave 2
	note B_, 2
	note A_, 2
	note B_, 2
	octave 3
	note F#, 4
	octave 2
	note B_, 2
	note A_, 2
	note B_, 2
	note B_, 2
	note A_, 2
	note B_, 2
	octave 3
	note D_, 4
	octave 2
	note A_, 2
	note B_, 2
	octave 3
	note E_, 2
	octave 2
	note B_, 2
	note A_, 2
	note B_, 2
	octave 3
	note D_, 2
	octave 2
	note A_, 4
	note F#, 4
	octave 1
	note B_, 4
	octave 2
	note B_, 2
	note B_, 2
	octave 3
	note F#, 2
	octave 2
	note B_, 2
	octave 3
	note F#, 2
	octave 2
	note B_, 2
	note D_, 4
	octave 3
	note D_, 2
	note D_, 2
	note A_, 2
	note D_, 2
	note A_, 2
	note D_, 2
	octave 1
	note A_, 4
	octave 2
	note A_, 2
	note A_, 2
	octave 3
	note E_, 2
	octave 2
	note A_, 2
	octave 3
	note E_, 2
	octave 2
	note A_, 2
	octave 1
	note E_, 4
	octave 2
	note E_, 2
	note E_, 2
	note B_, 2
	note E_, 2
	note B_, 2
	note E_, 2
	octave 1
	note B_, 4
	octave 2
	note B_, 2
	note B_, 2
	octave 3
	note F#, 2
	octave 2
	note B_, 2
	octave 3
	note F#, 2
	octave 2
	note B_, 2
	note D_, 4
	octave 3
	note D_, 2
	note D_, 2
	note A_, 2
	note D_, 2
	note A_, 2
	note D_, 2
	octave 1
	note A_, 4
	octave 2
	note A_, 2
	note A_, 2
	octave 3
	note E_, 2
	octave 2
	note A_, 2
	octave 3
	note E_, 2
	octave 2
	note A_, 2
	octave 1
	note E_, 4
	octave 2
	note E_, 2
	note E_, 2
	octave 3
	note E_, 2
	octave 2
	note E_, 2
	note B_, 2
	note E_, 2
	octave 1
	note B_, 4
	octave 2
	note B_, 2
	note B_, 2
	octave 3
	note F#, 2
	octave 2
	note B_, 2
	octave 3
	note F#, 2
	octave 2
	note B_, 2
	note D_, 4
	octave 3
	note D_, 2
	note D_, 2
	note A_, 2
	note D_, 2
	note A_, 2
	note D_, 2
	octave 1
	note A_, 4
	octave 2
	note A_, 2
	note A_, 2
	octave 3
	note E_, 2
	octave 2
	note A_, 2
	octave 3
	note E_, 2
	octave 2
	note A_, 2
	octave 1
	note E_, 4
	octave 2
	note E_, 2
	note E_, 2
	note B_, 2
	note E_, 2
	note B_, 2
	note E_, 2
	octave 1
	note B_, 4
	octave 2
	note B_, 2
	note B_, 2
	octave 3
	note F#, 2
	octave 2
	note B_, 2
	octave 3
	note F#, 2
	octave 2
	note B_, 2
	note D_, 4
	octave 3
	note D_, 2
	note D_, 2
	note A_, 2
	note D_, 2
	note A_, 2
	note D_, 2
	octave 1
	note A_, 4
	octave 2
	note A_, 2
	note A_, 2
	octave 3
	note E_, 2
	octave 2
	note A_, 2
	octave 3
	note E_, 2
	octave 2
	note A_, 2
	octave 1
	note E_, 4
	octave 2
	note E_, 2
	note E_, 2
	octave 3
	note E_, 2
	octave 2
	note E_, 2
	note B_, 2
	note E_, 2
	octave 1
	note B_, 4
	octave 2
	note B_, 2
	octave 3
	note B_, 4
	octave 2
	note B_, 2
	octave 3
	note F#, 2
	octave 2
	note B_, 2
	note D_, 4
	octave 3
	note D_, 2
	octave 4
	note D_, 4
	octave 3
	note D_, 2
	note A_, 2
	note D_, 2
	octave 2
	note A_, 4
	octave 3
	note A_, 2
	octave 4
	note A_, 4
	octave 3
	note A_, 2
	octave 4
	note E_, 2
	octave 3
	note A_, 2
	octave 2
	note E_, 4
	octave 3
	note E_, 2
	octave 4
	note E_, 4
	octave 3
	note E_, 2
	note B_, 2
	note E_, 2
	octave 1
	note B_, 4
	octave 2
	note B_, 2
	octave 3
	note B_, 4
	octave 2
	note B_, 2
	octave 3
	note F#, 2
	octave 2
	note B_, 2
	note D_, 4
	octave 3
	note D_, 2
	note A_, 4
	note D_, 2
	note A_, 2
	note D_, 2
	octave 2
	note A_, 4
	octave 3
	note A_, 2
	octave 4
	note A_, 4
	octave 3
	note A_, 2
	octave 4
	note E_, 2
	octave 3
	note A_, 2
	octave 2
	note E_, 4
	octave 3
	note E_, 2
	note B_, 4
	note E_, 2
	note B_, 2
	note E_, 2
	octave 1
	note B_, 4
	note B_, 3
	octave 2
	note B_, 1
	octave 3
	note B_, 2
	octave 2
	note B_, 2
	octave 3
	note F#, 1
	note D_, 1
	octave 2
	note B_, 2
	note D_, 4
	note D_, 3
	octave 3
	note D_, 1
	note A_, 2
	note D_, 2
	note A_, 1
	note F#, 1
	note D_, 2
	octave 2
	note A_, 4
	note A_, 3
	octave 3
	note A_, 1
	octave 4
	note A_, 2
	octave 2
	note A_, 2
	octave 4
	note E_, 1
	note C#, 1
	octave 3
	note A_, 2
	octave 2
	note E_, 4
	note E_, 3
	octave 3
	note E_, 1
	octave 4
	note E_, 2
	octave 3
	note E_, 2
	note B_, 1
	note G#, 1
	note E_, 2
	octave 1
	note B_, 4
	note B_, 3
	octave 2
	note B_, 1
	octave 3
	note B_, 2
	octave 2
	note B_, 2
	octave 3
	note F#, 1
	note D_, 1
	octave 2
	note B_, 2
	note D_, 4
	note D_, 3
	octave 3
	note D_, 1
	note A_, 2
	note D_, 2
	note A_, 1
	note F#, 1
	note D_, 2
	octave 2
	note A_, 4
	note A_, 3
	octave 3
	note A_, 1
	octave 4
	note A_, 2
	octave 2
	note A_, 2
	octave 4
	note E_, 1
	note C#, 1
	octave 3
	note A_, 2
	octave 2
	note E_, 4
	note E_, 3
	octave 3
	note E_, 1
	octave 4
	note E_, 2
	octave 3
	note E_, 2
	note B_, 1
	note G#, 1
	note E_, 2
	octave 2
	note B_, 2
	octave 3
	note D_, 2
	note F#, 2
	note B_, 2
	octave 4
	note D_, 2
	octave 3
	note B_, 2
	note F#, 2
	note D_, 2
	note D_, 2
	note F#, 2
	note A_, 2
	octave 4
	note D_, 2
	note F#, 2
	note D_, 2
	octave 3
	note A_, 2
	note F#, 2
	note A_, 2
	octave 4
	note C#, 2
	note E_, 2
	note A_, 2
	note E_, 2
	note C#, 2
	octave 3
	note A_, 2
	note E_, 2
	note E_, 2
	note G#, 2
	note B_, 2
	octave 4
	note E_, 2
	note G#, 2
	note E_, 2
	octave 3
	note B_, 2
	note G#, 2
	octave 1
	note B_, 2
	octave 2
	note D_, 2
	note F#, 2
	note B_, 2
	octave 3
	note D_, 2
	octave 2
	note B_, 2
	note F#, 2
	note D_, 2
	note D_, 2
	note F#, 2
	note A_, 2
	octave 3
	note D_, 2
	note F#, 2
	note D_, 2
	octave 2
	note A_, 2
	note F#, 2
	note A_, 2
	octave 3
	note C#, 2
	note E_, 2
	note A_, 2
	note E_, 2
	note C#, 2
	octave 2
	note A_, 2
	note E_, 2
	note E_, 2
	note __, 2
	note __, 4
	note __, 8
	octave 1
	note B_, 4
	octave 2
	note B_, 2
	octave 3
	note B_, 4
	octave 2
	note B_, 2
	octave 3
	note F#, 2
	octave 2
	note B_, 2
	note D_, 4
	octave 3
	note D_, 2
	octave 4
	note D_, 4
	octave 3
	note D_, 2
	note A_, 2
	note D_, 2
	octave 2
	note A_, 4
	octave 3
	note A_, 2
	octave 4
	note A_, 4
	octave 3
	note A_, 2
	octave 4
	note E_, 2
	octave 3
	note A_, 2
	octave 2
	note E_, 4
	octave 3
	note E_, 2
	octave 4
	note E_, 4
	octave 3
	note E_, 2
	note B_, 2
	note E_, 2
	octave 1
	note B_, 4
	octave 2
	note B_, 2
	octave 3
	note B_, 4
	octave 2
	note B_, 2
	octave 3
	note F#, 2
	octave 2
	note B_, 2
	note D_, 4
	octave 3
	note D_, 2
	note A_, 4
	note D_, 2
	note A_, 2
	note D_, 2
	octave 2
	note A_, 4
	octave 3
	note A_, 2
	octave 4
	note A_, 4
	octave 3
	note A_, 2
	octave 4
	note E_, 2
	octave 3
	note A_, 2
	octave 2
	note E_, 4
	octave 3
	note E_, 2
	note B_, 4
	note E_, 2
	note B_, 2
	note E_, 2
	octave 1
	note B_, 4
	note B_, 3
	octave 2
	note B_, 1
	octave 3
	note B_, 2
	octave 2
	note B_, 2
	octave 3
	note F#, 1
	note D_, 1
	octave 2
	note B_, 2
	note D_, 4
	note D_, 3
	octave 3
	note D_, 1
	note A_, 2
	note D_, 2
	note A_, 1
	note F#, 1
	note D_, 2
	octave 2
	note A_, 4
	note A_, 3
	octave 3
	note A_, 1
	octave 4
	note A_, 2
	octave 2
	note A_, 2
	octave 4
	note E_, 1
	note C#, 1
	octave 3
	note A_, 2
	octave 2
	note E_, 4
	note E_, 3
	octave 3
	note E_, 1
	octave 4
	note E_, 2
	octave 3
	note E_, 2
	note B_, 1
	note G#, 1
	note E_, 2
	octave 1
	note B_, 4
	note B_, 3
	octave 2
	note B_, 1
	octave 3
	note B_, 2
	octave 2
	note B_, 2
	octave 3
	note F#, 1
	note D_, 1
	octave 2
	note B_, 2
	note D_, 4
	note D_, 3
	octave 3
	note D_, 1
	note A_, 2
	note D_, 2
	note A_, 1
	note F#, 1
	note D_, 2
	octave 2
	note A_, 4
	note A_, 3
	octave 3
	note A_, 1
	octave 4
	note A_, 2
	octave 2
	note A_, 2
	octave 4
	note E_, 1
	note C#, 1
	octave 3
	note A_, 2
	octave 2
	note E_, 4
	note E_, 3
	octave 3
	note E_, 1
	octave 4
	note E_, 2
	octave 3
	note E_, 2
	note B_, 1
	note G#, 1
	note E_, 2
	octave 2
	note E_, 4
	note E_, 3
	octave 3
	note E_, 1
	note B_, 2
	note E_, 2
	note B_, 1
	note G#, 1
	note E_, 2
	loopchannel 0, Music_CherrygroveCity_Ch3_Loop


