Music_EcruteakCity:
	musicheader 4, 1, Music_EcruteakCity_Ch1
	musicheader 1, 2, Music_EcruteakCity_Ch2
	musicheader 1, 3, Music_EcruteakCity_Ch3
	musicheader 1, 4, Music_EcruteakCity_Ch4


Music_EcruteakCity_Ch1:
	tempo 240
	volume $77
	notetype $c, $97
	dutycycle $1
Music_EcruteakCity_Ch1_Loop:
	note __, 8
	note __, 1
	note __, 1
	note __, 1
	note __, 2
	dutycycle $1
	stereopanning $0f
	octave 2
	note A#, 1
	note __, 1
	note __, 1
	note __, 8
	note __, 8
	note __, 1
	note __, 1
	note __, 1
	note __, 1
	note __, 1
	note __, 1
	note __, 1
	note __, 1
	note __, 1
	note __, 1
	note __, 1
	note __, 1
	note __, 1
	dutycycle $0
	stereopanning $ff
	octave 5
	note D_, 1
	octave 4
	note A#, 1
	octave 5
	note D_, 1
	octave 4
	note A#, 3
	octave 5
	note D_, 1
	octave 4
	note A#, 1
	octave 5
	note D_, 1
	octave 4
	note A_, 3
	octave 5
	note D_, 1
	octave 4
	note G_, 2
	note G_, 2
	octave 5
	note D_, 2
	octave 4
	note G_, 8
	note __, 4
	note __, 1
	note D_, 1
	octave 3
	note A#, 1
	octave 4
	note D_, 1
	octave 3
	note A#, 3
	octave 4
	note D_, 1
	octave 3
	note A#, 2
	note A_, 3
	octave 4
	note D_, 1
	octave 3
	note G_, 2
	note G_, 2
	octave 4
	note D_, 2
	note D#, 16
	note __, 8
	note __, 8
	note __, 1
	note __, 1
	note __, 1
	note __, 1
	note __, 1
	note __, 1
	note __, 1
	note __, 1
	note __, 1
	note __, 1
	note __, 1
	note __, 1
	note __, 1
	octave 5
	note D_, 1
	octave 4
	note A#, 1
	octave 5
	note D_, 1
	octave 4
	note A#, 3
	octave 5
	note D_, 1
	octave 4
	note A#, 1
	octave 5
	note D_, 1
	octave 4
	note A_, 3
	octave 5
	note D_, 1
	octave 4
	note G_, 2
	note G_, 2
	octave 5
	note D_, 2
	octave 4
	note G_, 8
	note __, 4
	note __, 1
	note D_, 1
	octave 3
	note A#, 1
	octave 4
	note D_, 1
	octave 3
	note A#, 3
	octave 4
	note D_, 1
	octave 3
	note A#, 2
	note A_, 3
	octave 4
	note D_, 1
	octave 3
	note G_, 2
	note G_, 2
	octave 4
	note D_, 2
	note D#, 16
	note __, 4
	note __, 4
	dutycycle $2
	note D#, 2
	note __, 2
	slidepitchto  $60, 4, D#
	note D_, 8
	note __, 1
	note __, 1
	note __, 1
	note __, 1
	note __, 1
	note __, 1
	note __, 1
	note __, 1
	note __, 1
	dutycycle $0
	octave 5
	note D_, 1
	octave 4
	note A#, 1
	octave 5
	note D_, 1
	octave 4
	note A#, 3
	octave 5
	note D_, 1
	octave 4
	note A#, 1
	octave 5
	note D_, 1
	octave 4
	note A_, 3
	octave 5
	note D_, 1
	octave 4
	note G_, 2
	note G_, 4
	dutycycle $2
	stereopanning $0f
	note A#, 2
	octave 5
	note D_, 1
	note E_, 2
	note D_, 3
	octave 4
	note A#, 2
	octave 5
	note D_, 1
	note E_, 2
	note D_, 1
	octave 4
	note A#, 1
	note __, 1
	note A_, 2
	octave 5
	note D_, 1
	note E_, 2
	note D_, 3
	octave 4
	note A_, 2
	octave 5
	note D_, 1
	note E_, 2
	note D_, 1
	octave 4
	note A_, 1
	note __, 1
	note G#, 2
	octave 5
	note D_, 1
	note E_, 2
	note D_, 3
	octave 4
	note G#, 2
	octave 5
	note D_, 1
	note E_, 2
	note D_, 1
	octave 4
	note A_, 1
	note __, 1
	note A#, 2
	octave 5
	note D_, 1
	note E_, 2
	note D_, 3
	octave 4
	note A#, 2
	octave 5
	note D_, 1
	note E_, 2
	note D_, 1
	octave 4
	note A#, 1
	note __, 1
	note A_, 2
	octave 5
	note D_, 1
	note E_, 2
	note D_, 3
	octave 4
	note A_, 2
	octave 5
	note D_, 1
	note E_, 2
	note D_, 1
	octave 4
	note A_, 1
	note __, 1
	note G#, 2
	octave 5
	note D_, 1
	note E_, 2
	note D_, 3
	octave 4
	note G#, 2
	octave 5
	note D_, 1
	note E_, 2
	note D_, 3
	octave 4
	note G#, 2
	octave 5
	note D_, 1
	note E_, 2
	note D_, 3
	octave 4
	note G#, 2
	octave 5
	note D_, 1
	note E_, 2
	note D_, 3
	note __, 2
	dutycycle $1
	stereopanning $ff
	octave 3
	note C_, 1
	octave 4
	note D#, 2
	note __, 1
	octave 3
	note C_, 1
	note D_, 1
	dutycycle $0
	stereopanning $0f
	note D_, 4
	note D#, 4
	note F_, 8
	note G_, 4
	note F_, 4
	dutycycle $1
	octave 2
	note G_, 2
	note __, 1
	stereopanning $ff
	octave 3
	note A#, 1
	note __, 1
	note __, 1
	note __, 1
	note __, 1
	note __, 1
	note __, 1
	note __, 1
	note A#, 1
	octave 2
	note A#, 1
	dutycycle $0
	stereopanning $0f
	octave 5
	note D_, 1
	octave 4
	note A#, 1
	octave 5
	note D_, 1
	octave 4
	note A#, 3
	octave 5
	note D_, 1
	octave 4
	note A#, 1
	octave 5
	note D_, 1
	octave 4
	note A_, 3
	octave 5
	note D_, 1
	octave 4
	note G_, 2
	note G_, 2
	octave 5
	note D_, 2
	octave 4
	note G_, 8
	note __, 2
	note __, 1
	dutycycle $1
	stereopanning $ff
	octave 3
	note A#, 1
	octave 2
	note A#, 1
	dutycycle $0
	stereopanning $0f
	octave 4
	note D_, 1
	octave 3
	note A#, 1
	octave 4
	note D_, 1
	octave 3
	note A#, 3
	octave 4
	note D_, 1
	octave 3
	note A#, 2
	note A_, 3
	octave 4
	note D_, 1
	octave 3
	note G_, 2
	note G_, 2
	note __, 2
	note __, 2
	dutycycle $1
	stereopanning $ff
	note C_, 1
	octave 4
	note D#, 2
	note __, 1
	octave 3
	note C_, 1
	note D_, 1
	dutycycle $0
	stereopanning $0f
	note D_, 4
	note D#, 4
	note F_, 8
	note G_, 4
	note A_, 4
	octave 2
	note G_, 4
	note __, 1
	note __, 1
	note __, 1
	note __, 1
	note __, 1
	note __, 1
	note __, 1
	dutycycle $1
	stereopanning $ff
	octave 3
	note A#, 1
	octave 2
	note A#, 1
	dutycycle $0

	stereopanning $0f
	octave 5
	note D_, 1
	octave 4
	note A#, 1
	octave 5
	note D_, 1
	octave 4
	note A#, 3
	octave 5
	note D_, 1
	octave 4
	note A#, 1
	octave 5
	note D_, 1
	octave 4
	note A_, 3
	octave 5
	note D_, 1
	octave 4
	note G_, 2
	note G_, 4
	dutycycle $2

	stereopanning $f0
	note A#, 2
	octave 5
	note D_, 1
	note E_, 2
	note D_, 3
	octave 4
	note A#, 2
	octave 5
	note D_, 1
	note E_, 2
	note D_, 1
	octave 4
	note A#, 1
	note __, 1
	note A_, 2
	octave 5
	note D_, 1
	note E_, 2
	note D_, 3
	octave 4
	note A_, 2
	octave 5
	note D_, 1
	note E_, 2
	note D_, 1
	octave 4
	note A_, 1
	note __, 1
	note G#, 2
	octave 5
	note D_, 1
	note E_, 2
	note D_, 3
	octave 4
	note G#, 2
	octave 5
	note D_, 1
	note E_, 2
	note D_, 1
	octave 4
	note A_, 1
	note __, 1
	note A#, 2
	octave 5
	note D_, 1
	note E_, 2
	note D_, 3
	octave 4
	note A#, 2
	octave 5
	note D_, 1
	note E_, 2
	note D_, 1
	octave 4
	note A#, 1
	note __, 1
	note A_, 2
	octave 5
	note D_, 1
	note E_, 2
	note D_, 3
	octave 4
	note A_, 2
	octave 5
	note D_, 1
	note E_, 2
	note D_, 1
	octave 4
	note A_, 1
	note __, 1
	note G#, 2
	octave 5
	note D_, 1
	note E_, 2
	note D_, 3
	octave 4
	note G#, 2
	octave 5
	note D_, 1
	note E_, 2
	note D_, 3
	octave 4
	note G#, 2
	octave 5
	note D_, 1
	note E_, 2
	note D_, 3
	octave 4
	note G#, 2
	octave 5
	note D_, 1
	note E_, 2
	note D_, 3
	loopchannel 0, Music_EcruteakCity_Ch1_Loop


Music_EcruteakCity_Ch2:
	notetype $c, $97
	dutycycle $1
Music_EcruteakCity_Ch2_Loop:
	stereopanning $0f
	octave 3
	note C_, 2
	octave 4
	note D#, 1
	note G_, 2
	note D#, 1
	octave 3
	note D_, 1
	octave 4
	note D#, 1
	octave 2
	note A#, 1
	octave 3
	note D_, 1
	octave 4
	note D#, 1
	note G_, 2
	note D#, 1
	octave 3
	note D_, 1
	octave 4
	note D#, 1
	octave 3
	note F_, 1
	octave 2
	note E_, 1
	octave 4
	note D#, 1
	note G_, 2
	note D#, 1
	octave 3
	note F_, 1
	octave 4
	note D#, 1
	octave 2
	note A_, 2
	note A_, 1
	octave 4
	note G_, 1
	octave 2
	note A_, 1
	octave 4
	note D#, 1
	octave 2
	note A#, 1
	note A#, 1
	note G_, 2
	note G_, 1
	octave 4
	note D_, 1
	octave 3
	note D_, 1
	note A#, 1
	octave 2
	note G_, 1
	octave 3
	note A#, 1
	octave 2
	note A_, 2
	note A_, 1
	octave 4
	note D_, 1
	octave 3
	note D_, 1
	note A#, 1
	octave 2
	note A#, 1
	octave 3
	note A#, 1
	octave 4
	note D_, 2
	octave 3
	note A#, 1
	octave 4
	note D_, 1
	octave 3
	note A#, 1
	octave 4
	note D_, 1
	note D_, 3
	note D_, 1
	note D_, 2
	note D_, 2
	note D_, 2
	octave 2
	note G_, 2
	note G_, 1
	octave 4
	note D_, 1
	octave 3
	note D_, 1
	note A#, 1
	octave 2
	note G_, 1
	octave 3
	note A#, 1
	octave 2
	note A_, 2
	note A_, 1
	octave 4
	note D_, 1
	octave 3
	note D_, 1
	note A#, 1
	octave 2
	note A#, 1
	octave 3
	note A#, 1
	octave 4
	note D_, 2
	octave 3
	note A#, 1
	octave 4
	note D_, 1
	octave 3
	note A#, 1
	octave 4
	note D_, 1
	note D_, 3
	note D_, 1
	note D_, 2
	note D_, 2
	note D_, 2
	octave 3
	note C_, 2
	octave 4
	note D#, 1
	note G_, 2
	note D#, 1
	octave 3
	note D_, 1
	octave 4
	note D#, 1
	octave 2
	note A#, 1
	octave 3
	note D_, 1
	octave 4
	note D#, 1
	note G_, 2
	octave 3
	note D_, 1
	note D_, 1
	octave 4
	note D#, 1
	octave 3
	note F_, 1
	note __, 1
	octave 4
	note D#, 1
	note G_, 2
	note D#, 1
	octave 3
	note F_, 1
	octave 4
	note D#, 1
	octave 2
	note A_, 2
	note A_, 1
	octave 4
	note G_, 1
	octave 2
	note A_, 1
	octave 4
	note D#, 1
	octave 2
	note A#, 1
	note A#, 1
	note G_, 2
	note G_, 1
	octave 4
	note D_, 1
	octave 3
	note D_, 1
	note A#, 1
	octave 2
	note G_, 1
	octave 3
	note A#, 1
	octave 2
	note A_, 2
	note A_, 1
	octave 4
	note D_, 1
	octave 3
	note D_, 1
	note A#, 1
	octave 2
	note A#, 1
	octave 3
	note A#, 1
	octave 4
	note D_, 2
	octave 3
	note A#, 1
	octave 4
	note D_, 1
	octave 3
	note A#, 1
	octave 4
	note D_, 1
	note D_, 3
	note D_, 1
	note D_, 2
	note D_, 2
	note D_, 2
	octave 2
	note G_, 2
	note G_, 1
	octave 4
	note D_, 1
	octave 3
	note D_, 1
	note A#, 1
	octave 2
	note G_, 1
	octave 3
	note A#, 1
	octave 2
	note A_, 2
	note A_, 1
	octave 4
	note D_, 1
	octave 3
	note D_, 1
	note A#, 1
	octave 2
	note A#, 1
	octave 3
	note A#, 1
	octave 4
	note D_, 2
	octave 3
	note A#, 1
	octave 4
	note D_, 1
	octave 3
	note A#, 1
	octave 4
	note D_, 1
	note D_, 3
	note D_, 1
	note D_, 2
	note D_, 2
	note D_, 2
	octave 3
	note C_, 2
	octave 4
	note D#, 1
	note G_, 2
	note D#, 1
	octave 3
	note D_, 1
	octave 4
	note D#, 1
	octave 2
	note A#, 1
	octave 3
	note D_, 1
	octave 4
	note D#, 1
	note G_, 2
	note D#, 1
	octave 3
	note D_, 1
	octave 4
	note D#, 1
	octave 3
	note F_, 1
	note D_, 1
	octave 4
	note D#, 1
	note G_, 2
	note D#, 1
	octave 3
	note F_, 1
	octave 4
	note D#, 1
	octave 2
	note A_, 2
	note A_, 1
	octave 4
	note G_, 1
	octave 2
	note A_, 1
	octave 4
	note D#, 1
	octave 2
	note A#, 1
	note A#, 1
	note G_, 2
	note G_, 1
	octave 4
	note D_, 1
	octave 3
	note D_, 1
	note A#, 1
	octave 2
	note G_, 1
	octave 3
	note A#, 1
	octave 2
	note A_, 2
	note A_, 1
	octave 4
	note D_, 1
	octave 3
	note D_, 1
	note A#, 1
	octave 2
	note A#, 1
	octave 3
	note A#, 1
	octave 4
	note D_, 2
	octave 3
	note A#, 1
	octave 4
	note D_, 1
	octave 3
	note A#, 1
	octave 4
	note D_, 1
	note D_, 3
	note D_, 1
	note D_, 2
	note D_, 2
	note D_, 2
	stereopanning $f0
	octave 2
	note G_, 2
	octave 3
	note A#, 1
	octave 4
	note E_, 2
	note D_, 3
	octave 3
	note A#, 2
	octave 4
	note D_, 1
	note E_, 2
	note D_, 1
	octave 3
	note A#, 1
	note __, 1
	octave 2
	note F_, 2
	octave 3
	note A_, 1
	octave 4
	note E_, 2
	note D_, 3
	octave 3
	note A_, 2
	octave 4
	note D_, 1
	note E_, 2
	note D_, 1
	octave 3
	note A_, 1
	note __, 1
	octave 2
	note E_, 2
	octave 3
	note G#, 1
	octave 4
	note E_, 2
	note D_, 3
	octave 3
	note G#, 2
	octave 4
	note D_, 1
	note E_, 2
	note D_, 1
	octave 3
	note A_, 1
	note __, 1
	octave 2
	note G_, 2
	octave 3
	note A#, 1
	octave 4
	note E_, 2
	note D_, 3
	octave 3
	note A#, 2
	octave 4
	note D_, 1
	note E_, 2
	note D_, 1
	octave 3
	note A#, 1
	note __, 1
	octave 2
	note F_, 2
	octave 3
	note A_, 1
	octave 4
	note E_, 2
	note D_, 3
	octave 3
	note A_, 2
	octave 4
	note D_, 1
	note E_, 2
	note D_, 1
	octave 3
	note A_, 1
	note __, 1
	octave 2
	note E_, 2
	octave 3
	note G#, 1
	octave 4
	note E_, 2
	note D_, 3
	octave 3
	note G#, 2
	octave 4
	note D_, 1
	note E_, 2
	note D_, 3
	octave 2
	note E_, 2
	octave 3
	note G#, 1
	octave 4
	note E_, 2
	note D_, 3
	octave 3
	note G#, 2
	note __, 2
	note D_, 2
	note C#, 2
	stereopanning $ff
	note C_, 2
	octave 4
	note D#, 1
	note G_, 2
	note D#, 1
	octave 3
	note D_, 1
	octave 4
	note D#, 1
	octave 2
	note A#, 1
	octave 3
	note D_, 1
	octave 4
	note D#, 1
	note G_, 2
	octave 2
	note A#, 1
	octave 3
	note D_, 1
	note D_, 1
	note F_, 1
	octave 2
	note E_, 1
	octave 4
	note D#, 1
	note G_, 2
	note D#, 1
	octave 3
	note F_, 1
	octave 4
	note D#, 1
	octave 2
	note A_, 2
	note A_, 1
	octave 4
	note D#, 1
	octave 2
	note A_, 1
	octave 4
	note D#, 1
	octave 2
	note A#, 1
	note A#, 1
	note G_, 2
	note G_, 1
	octave 4
	note D_, 1
	octave 3
	note D_, 1
	note A#, 1
	octave 2
	note G_, 1
	octave 3
	note A#, 1
	octave 2
	note A_, 2
	note A_, 1
	octave 4
	note D_, 1
	octave 3
	note D_, 1
	note A#, 1
	octave 2
	note A#, 1
	octave 3
	note A#, 1
	octave 4
	note D_, 2
	octave 3
	note A#, 1
	note A#, 1
	note E_, 1
	note A#, 1
	octave 4
	note D_, 3
	octave 3
	note A_, 1
	octave 4
	note D_, 2
	note D_, 2
	note D_, 2
	octave 2
	note G_, 2
	note G_, 1
	octave 4
	note D_, 1
	octave 3
	note D_, 1
	note A#, 1
	octave 2
	note G_, 1
	octave 3
	note A#, 1
	octave 2
	note A_, 2
	note A_, 1
	octave 4
	note D_, 1
	octave 3
	note D_, 1
	note A#, 1
	octave 2
	note A#, 1
	octave 3
	note A#, 1
	octave 4
	note D_, 2
	octave 3
	note A#, 1
	note A#, 1
	note E_, 1
	octave 4
	note D_, 1
	note D_, 3
	octave 3
	note A_, 1
	octave 4
	note D_, 2
	note D_, 2
	note D_, 2
	octave 3
	note C_, 2
	octave 4
	note D#, 1
	note G_, 2
	note D#, 1
	octave 3
	note D_, 1
	octave 4
	note D#, 1
	octave 2
	note A#, 1
	octave 3
	note D_, 1
	octave 4
	note D#, 1
	note G_, 2
	note D#, 1
	octave 3
	note D_, 1
	octave 4
	note D#, 1
	octave 3
	note F_, 1
	note __, 1
	octave 4
	note D#, 1
	note G_, 2
	note D#, 1
	octave 3
	note F_, 1
	octave 4
	note D#, 1
	octave 2
	note A_, 2
	note A_, 1
	octave 4
	note D#, 1
	octave 2
	note A_, 1
	octave 4
	note D#, 1
	octave 2
	note A#, 1
	note A#, 1
	octave 3
	note G_, 2
	octave 2
	note G_, 1
	octave 4
	note D_, 1
	octave 3
	note D_, 1
	note A#, 1
	octave 2
	note G_, 1
	octave 3
	note A#, 1
	octave 2
	note A_, 2
	note A_, 1
	octave 4
	note D_, 1
	octave 3
	note D_, 1
	note A#, 1
	octave 2
	note A#, 1
	octave 3
	note A#, 1
	octave 4
	note D_, 2
	octave 3
	note E_, 1
	note A#, 1
	note E_, 1
	note A#, 1
	octave 4
	note D_, 3
	octave 3
	note A_, 1
	octave 4
	note D_, 2
	note D_, 2
	note D_, 2
	stereopanning $0f
	octave 3
	note A#, 2
	octave 4
	note D_, 1
	note E_, 2
	note D_, 3
	note F_, 1
	note E_, 2
	note D_, 3
	octave 3
	note A#, 1
	note __, 1
	note A_, 2
	octave 4
	note D_, 1
	note E_, 2
	note D_, 3
	note F_, 1
	note E_, 2
	note D_, 3
	octave 3
	note A_, 1
	note __, 1
	note G#, 2
	octave 4
	note D_, 1
	note E_, 2
	note D_, 3
	note F_, 1
	note E_, 2
	note D_, 3
	octave 3
	note A_, 1
	note __, 1
	note A#, 2
	octave 4
	note D_, 1
	note E_, 2
	note D_, 3
	note F_, 1
	note E_, 2
	note D_, 3
	octave 3
	note A#, 1
	note __, 1
	note A_, 2
	octave 4
	note D_, 1
	note E_, 2
	note D_, 3
	note F_, 1
	note E_, 2
	note D_, 3
	octave 3
	note A_, 1
	note __, 1
	note E_, 2
	note G#, 1
	octave 4
	note E_, 2
	note D_, 3
	octave 3
	note G#, 2
	octave 4
	note D_, 1
	note E_, 2
	note D_, 3
	octave 3
	note G#, 2
	octave 4
	note D_, 1
	note E_, 2
	note D_, 3
	octave 3
	note G#, 2
	octave 4
	note D_, 1
	note E_, 2
	note D_, 3
	loopchannel 0, Music_EcruteakCity_Ch2_Loop


Music_EcruteakCity_Ch3:
	notetype $c, $29
Music_EcruteakCity_Ch3_Loop:
	intensity $29
	stereopanning $f0
	octave 2
	note C_, 2
	note C_, 1
	octave 3
	note D#, 2
	note D#, 1
	octave 2
	note C_, 1
	note D_, 1
	octave 1
	note A#, 1
	octave 2
	note D_, 1
	octave 1
	note A#, 1
	octave 3
	note D#, 2
	octave 2
	note D_, 1
	note D_, 1
	note D_, 1
	note F_, 1
	octave 1
	note E_, 1
	octave 2
	note F_, 1
	octave 3
	note D#, 2
	note D#, 1
	octave 2
	note F_, 1
	octave 3
	note D#, 1
	octave 1
	note A_, 2
	note A_, 1
	octave 3
	note D#, 1
	octave 1
	note A_, 1
	note A#, 1
	note A#, 1
	note A#, 1
	note G_, 2
	note G_, 1
	octave 2
	note A#, 1
	note D_, 1
	note A#, 1
	octave 1
	note G_, 1
	octave 2
	note A#, 1
	octave 1
	note A_, 2
	note A_, 1
	octave 2
	note A#, 1
	octave 1
	note A#, 1
	octave 2
	note A#, 1
	octave 1
	note A#, 1
	octave 2
	note A#, 1
	note E_, 2
	note E_, 1
	note A#, 1
	note E_, 1
	note A#, 1
	note E_, 3
	note A_, 1
	note E_, 2
	note E_, 2
	octave 3
	note D_, 2
	octave 1
	note G_, 2
	note G_, 1
	octave 2
	note A#, 1
	note D_, 1
	note A#, 1
	octave 1
	note G_, 1
	octave 2
	note A#, 1
	octave 1
	note A_, 2
	note A_, 1
	octave 2
	note A#, 1
	octave 1
	note A#, 1
	octave 2
	note A#, 1
	octave 1
	note A#, 1
	octave 2
	note A#, 1
	note E_, 2
	note E_, 1
	note A#, 1
	note E_, 1
	note A#, 1
	note E_, 3
	note A_, 1
	note E_, 2
	note E_, 2
	octave 3
	note D_, 2
	octave 2
	note C_, 2
	note C_, 1
	octave 3
	note D#, 2
	note D#, 1
	octave 2
	note C_, 1
	note D_, 1
	octave 1
	note A#, 1
	octave 2
	note D_, 1
	octave 1
	note A#, 1
	octave 3
	note G_, 2
	octave 1
	note A#, 1
	octave 2
	note D_, 1
	note D_, 1
	note F_, 1
	note __, 1
	note F_, 1
	octave 3
	note D#, 2
	note D#, 1
	octave 2
	note F_, 1
	octave 3
	note D#, 1
	octave 1
	note A_, 2
	note A_, 1
	octave 3
	note D#, 1
	octave 1
	note A_, 1
	note A#, 1
	note A#, 1
	note A#, 1
	note G_, 2
	note G_, 1
	octave 2
	note A#, 1
	note D_, 1
	note A#, 1
	octave 1
	note G_, 1
	octave 2
	note A#, 1
	octave 1
	note A_, 2
	note A_, 1
	octave 2
	note A#, 1
	octave 1
	note A#, 1
	octave 2
	note A#, 1
	octave 1
	note A#, 1
	octave 2
	note A#, 1
	note E_, 2
	note E_, 1
	note A#, 1
	note E_, 1
	note A#, 1
	note E_, 3
	note A_, 1
	note E_, 2
	note E_, 2
	octave 3
	note D_, 2
	octave 1
	note G_, 2
	note G_, 1
	octave 2
	note A#, 1
	note D_, 1
	note A#, 1
	octave 1
	note G_, 1
	octave 2
	note A#, 1
	octave 1
	note A_, 2
	note A_, 1
	octave 2
	note A#, 1
	octave 1
	note A#, 1
	octave 2
	note A#, 1
	octave 1
	note A#, 1
	octave 2
	note A#, 1
	note E_, 2
	note E_, 1
	note A#, 1
	note E_, 1
	note A#, 1
	note E_, 3
	note A_, 1
	note E_, 2
	note E_, 2
	octave 3
	note D_, 2
	octave 2
	note C_, 2
	note C_, 1
	octave 3
	note D#, 2
	note D#, 1
	octave 2
	note C_, 1
	note D_, 1
	octave 1
	note A#, 1
	octave 2
	note D_, 1
	octave 1
	note A#, 1
	octave 3
	note D#, 2
	octave 1
	note A#, 1
	octave 2
	note D_, 1
	note D_, 1
	note F_, 1
	note D_, 1
	note F_, 1
	octave 3
	note D#, 2
	note D#, 1
	octave 2
	note D_, 1
	note D_, 1
	octave 1
	note A_, 2
	note A_, 1
	octave 3
	note D#, 1
	octave 1
	note A_, 1
	note A#, 1
	note A#, 1
	note A#, 1
	note G_, 2
	note G_, 1
	octave 2
	note A#, 1
	note D_, 1
	note A#, 1
	octave 1
	note G_, 1
	octave 2
	note A#, 1
	octave 1
	note A_, 2
	note A_, 1
	octave 2
	note A#, 1
	octave 1
	note A#, 1
	octave 2
	note A#, 1
	octave 1
	note A#, 1
	octave 2
	note A#, 1
	note E_, 2
	note E_, 1
	note A#, 1
	note E_, 1
	note A#, 1
	note E_, 3
	note A_, 1
	note E_, 2
	note E_, 2
	intensity $27
	stereopanning $ff
	octave 1
	note A_, 1
	note A#, 1
	octave 2
	note G_, 2
	note G_, 1
	note G_, 4
	note G_, 2
	note G_, 2
	note G_, 1
	note G_, 1
	note G_, 1
	note A_, 1
	note A#, 1
	note F_, 2
	note F_, 1
	note F_, 4
	note F_, 2
	note F_, 2
	note F_, 1
	note F_, 1
	note F_, 1
	note A_, 1
	note A#, 1
	note E_, 2
	note E_, 1
	note E_, 4
	note E_, 2
	note E_, 2
	octave 1
	note E_, 1
	octave 2
	note A#, 1
	note A_, 1
	note E_, 1
	note F_, 1
	note G_, 2
	note G_, 1
	note G_, 4
	note G_, 2
	note G_, 2
	note G_, 1
	note G_, 1
	note G_, 1
	note A_, 1
	note A#, 1
	note F_, 2
	note F_, 1
	note F_, 4
	note F_, 2
	note F_, 2
	note F_, 1
	note F_, 1
	note F_, 1
	note A_, 1
	note A#, 1
	note E_, 2
	note E_, 1
	note E_, 4
	note E_, 2
	note E_, 2
	note A#, 1
	note A_, 1
	note E_, 1
	note F_, 1
	note E_, 1
	octave 1
	note E_, 3
	octave 2
	note E_, 4
	octave 1
	note E_, 2
	note E_, 3
	octave 2
	note D_, 2
	note C#, 2
	stereopanning $f0
	note C_, 2
	note C_, 1
	note C_, 1
	note C_, 2
	note C_, 1
	note C_, 1
	octave 1
	note A#, 4
	octave 2
	note C_, 4
	octave 1
	note F_, 2
	note F_, 1
	note F_, 1
	note F_, 2
	note G_, 2
	note A_, 2
	note A_, 2
	note A#, 2
	note A#, 2
	note G_, 2
	note G_, 1
	note G_, 3
	note G_, 1
	note G#, 1
	note A_, 2
	note A_, 2
	note A#, 2
	note A#, 2
	octave 2
	note E_, 2
	octave 1
	note E_, 1
	octave 2
	note E_, 4
	octave 1
	note E_, 2
	note E_, 2
	note E_, 1
	octave 2
	note E_, 1
	note E_, 1
	octave 1
	note E_, 1
	octave 2
	note E_, 1
	octave 1
	note G_, 2
	note G_, 1
	note G_, 3
	note G_, 1
	note G#, 1
	note A_, 2
	note A_, 2
	note A#, 2
	note A#, 2
	octave 2
	note E_, 2
	octave 1
	note E_, 1
	octave 2
	note E_, 4
	octave 1
	note E_, 2
	note E_, 2
	note E_, 1
	octave 2
	note D_, 2
	note C#, 2
	note C_, 2
	note C_, 1
	note C_, 1
	note C_, 2
	note C_, 1
	note C_, 1
	octave 1
	note A#, 4
	octave 2
	note C_, 4
	octave 1
	note F_, 2
	note F_, 1
	note F_, 1
	note F_, 2
	note G_, 2
	note A_, 2
	note A_, 2
	note A#, 2
	note A#, 2
	note G_, 2
	note G_, 1
	note G_, 3
	note G_, 1
	note G#, 1
	note A_, 2
	note A_, 2
	note A#, 2
	note A#, 2
	octave 2
	note E_, 2
	octave 1
	note E_, 1
	octave 2
	note E_, 4
	octave 1
	note E_, 2
	note E_, 2
	note E_, 1
	octave 2
	note E_, 1
	note E_, 1
	octave 1
	note E_, 1
	octave 2
	note E_, 1
	stereopanning $ff
	note G_, 2
	note G_, 1
	note G_, 4
	note G_, 2
	note G_, 2
	note G_, 1
	note G_, 1
	note G_, 1
	note A_, 1
	note A#, 1
	note F_, 2
	note F_, 1
	note F_, 4
	note F_, 2
	note F_, 2
	note F_, 1
	note F_, 1
	note F_, 1
	note A_, 1
	note A#, 1
	note E_, 2
	note E_, 1
	note E_, 4
	note E_, 2
	note E_, 2
	octave 1
	note E_, 1
	octave 2
	note A#, 1
	note A_, 1
	note E_, 1
	note F_, 1
	note G_, 2
	note G_, 1
	note G_, 4
	note G_, 2
	note G_, 2
	note G_, 1
	note G_, 1
	note G_, 1
	note A_, 1
	note A#, 1
	note F_, 2
	note F_, 1
	note F_, 4
	note F_, 2
	note F_, 2
	note F_, 1
	note F_, 1
	note F_, 1
	note A_, 1
	note A#, 1
	note E_, 2
	note E_, 1
	note E_, 4
	note E_, 2
	note E_, 2
	note A#, 1
	note A_, 1
	note E_, 1
	note F_, 1
	note E_, 1
	octave 1
	note E_, 3
	octave 2
	note E_, 4
	octave 1
	note E_, 2
	note E_, 3
	octave 2
	note D_, 2
	note C#, 2
	loopchannel 0, Music_EcruteakCity_Ch3_Loop


Music_EcruteakCity_Ch4:
	notetype $c
	togglenoise 1
Music_EcruteakCity_Ch4_Loop:
	note F_, 2
	note F_, 1
	note F_, 1
	note C_, 1
	note C_, 1
	note G_, 1
	note F_, 2
	note F_, 2
	note F_, 1
	note C_, 1
	note C_, 1
	note E_, 2
	note F_, 2
	note F_, 1
	note F_, 1
	note C_, 1
	note C_, 1
	note G_, 1
	note F_, 2
	note F_, 2
	note F_, 1
	note C_, 1
	note C_, 1
	note E_, 2
	note F_, 2
	note F_, 1
	note F_, 1
	note C_, 1
	note C_, 1
	note G_, 1
	note F_, 2
	note F_, 2
	note F_, 1
	note C_, 1
	note C_, 1
	note E_, 2
	note F_, 2
	note F_, 1
	note F_, 1
	note C_, 1
	note C_, 1
	note G_, 1
	note F_, 2
	note F_, 2
	note F_, 1
	note C_, 1
	note C_, 1
	note E_, 2
	note F_, 2
	note F_, 1
	note F_, 1
	note C_, 1
	note C_, 1
	note G_, 1
	note F_, 2
	note F_, 2
	note F_, 1
	note C_, 1
	note C_, 1
	note E_, 2
	note F_, 2
	note F_, 1
	note F_, 1
	note C_, 1
	note C_, 1
	note G_, 1
	note F_, 2
	note F_, 2
	note F_, 1
	note C_, 1
	note C_, 1
	note E_, 2
	note F_, 2
	note F_, 1
	note F_, 1
	note C_, 1
	note C_, 1
	note G_, 1
	note F_, 2
	note F_, 2
	note F_, 1
	note C_, 1
	note C_, 1
	note E_, 2
	note F_, 2
	note F_, 1
	note F_, 1
	note C_, 1
	note C_, 1
	note G_, 1
	note F_, 2
	note F_, 2
	note F_, 1
	note C_, 1
	note C_, 1
	note E_, 2
	note F_, 2
	note F_, 1
	note F_, 1
	note C_, 1
	note C_, 1
	note G_, 1
	note F_, 2
	note F_, 2
	note F_, 1
	note C_, 1
	note C_, 1
	note E_, 2
	note F_, 2
	note F_, 1
	note F_, 1
	note C_, 1
	note C_, 1
	note G_, 1
	note F_, 2
	note F_, 2
	note F_, 1
	note C_, 1
	note C_, 1
	note E_, 2
	note F_, 2
	note F_, 1
	note F_, 1
	note C_, 1
	note C_, 1
	note G_, 1
	note F_, 2
	note F_, 2
	note F_, 1
	note C_, 1
	note C_, 1
	note E_, 2
	note F_, 2
	note F_, 1
	note F_, 1
	note C_, 1
	note C_, 1
	note G_, 1
	note F_, 2
	note F_, 2
	note F_, 1
	note C_, 1
	note C_, 1
	note E_, 2
	note F_, 2
	note F_, 1
	note F_, 1
	note C_, 1
	note C_, 1
	note G_, 1
	note F_, 2
	note F_, 2
	note F_, 1
	note C_, 1
	note C_, 1
	note E_, 2
	note F_, 2
	note F_, 1
	note F_, 1
	note C_, 1
	note C_, 1
	note G_, 1
	note F_, 2
	note F_, 2
	note F_, 1
	note C_, 1
	note C_, 1
	note E_, 2
	note F_, 2
	note F_, 1
	note F_, 1
	note C_, 1
	note C_, 1
	note G_, 1
	note F_, 2
	note F_, 2
	note F_, 1
	note C_, 1
	note C_, 1
	note E_, 2
	note F_, 2
	note F_, 1
	note F_, 1
	note C_, 1
	note C_, 1
	note G_, 1
	note F_, 2
	note F_, 2
	note F_, 1
	note C_, 1
	note C_, 1
	note E_, 2
	note F_, 2
	note F_, 1
	note F_, 1
	note C_, 1
	note C_, 1
	note G_, 1
	note F_, 2
	note F_, 2
	note F_, 1
	note C_, 1
	note C_, 1
	note E_, 2
	note F_, 2
	note F_, 1
	note F_, 1
	note C_, 1
	note C_, 1
	note G_, 1
	note F_, 2
	note F_, 2
	note F_, 1
	note C_, 1
	note C_, 1
	note E_, 2
	note F_, 2
	note F_, 1
	note F_, 1
	note C_, 1
	note C_, 1
	note G_, 1
	note F_, 2
	note F_, 2
	note F_, 1
	note C_, 1
	note C_, 1
	note E_, 2
	note F_, 2
	note F_, 1
	note F_, 1
	note C_, 1
	note C_, 1
	note G_, 1
	note F_, 2
	note F_, 2
	note F_, 1
	note C_, 1
	note C_, 1
	note E_, 2
	note F_, 2
	note F_, 1
	note F_, 1
	note C_, 1
	note C_, 1
	note G_, 1
	note F_, 2
	note F_, 2
	note F_, 1
	note C_, 1
	note C_, 1
	note E_, 2
	note F_, 2
	note F_, 1
	note F_, 1
	note C_, 1
	note C_, 1
	note G_, 1
	note F_, 2
	note F_, 2
	note F_, 1
	note C_, 1
	note C_, 1
	note E_, 2
	note F_, 2
	note F_, 1
	note F_, 1
	note C_, 1
	note C_, 1
	note G_, 1
	note F_, 2
	note F_, 2
	note F_, 1
	note C_, 1
	note C_, 1
	note E_, 2
	note F_, 2
	note F_, 1
	note F_, 1
	note C_, 1
	note C_, 1
	note G_, 1
	note F_, 2
	note F_, 2
	note F_, 1
	note C_, 1
	note C_, 1
	note E_, 2
	note F_, 2
	note F_, 1
	note F_, 1
	note C_, 1
	note C_, 1
	note G_, 1
	note F_, 2
	note F_, 2
	note F_, 1
	note C_, 1
	note C_, 1
	note E_, 2
	note F_, 2
	note F_, 1
	note F_, 1
	note C_, 1
	note C_, 1
	note G_, 1
	note F_, 2
	note F_, 2
	note F_, 1
	note C_, 1
	note C_, 1
	note E_, 2
	note F_, 2
	note F_, 1
	note F_, 1
	note C_, 1
	note C_, 1
	note G_, 1
	note F_, 2
	note F_, 2
	note F_, 1
	note C_, 1
	note C_, 1
	note E_, 2
	note F_, 2
	note F_, 1
	note F_, 1
	note C_, 1
	note C_, 1
	note G_, 1
	note F_, 2
	note F_, 2
	note F_, 1
	note C_, 1
	note C_, 1
	note E_, 2
	note F_, 2
	note F_, 1
	note F_, 1
	note C_, 1
	note C_, 1
	note G_, 1
	note F_, 2
	note F_, 2
	note F_, 1
	note C_, 1
	note C_, 1
	note E_, 2
	note F_, 2
	note F_, 1
	note F_, 1
	note C_, 1
	note C_, 1
	note G_, 1
	note F_, 2
	note F_, 2
	note F_, 1
	note C_, 1
	note C_, 1
	note E_, 2
	note F_, 2
	note F_, 1
	note F_, 1
	note C_, 1
	note C_, 1
	note G_, 1
	note F_, 2
	note F_, 2
	note F_, 1
	note C_, 1
	note C_, 1
	note E_, 2
	note F_, 2
	note F_, 1
	note F_, 1
	note C_, 1
	note C_, 1
	note G_, 1
	note F_, 2
	note F_, 2
	note F_, 1
	note C_, 1
	note C_, 1
	note E_, 2
	note F_, 2
	note F_, 1
	note F_, 1
	note C_, 1
	note C_, 1
	note G_, 1
	note F_, 2
	note F_, 2
	note F_, 1
	note C_, 1
	note C_, 1
	note E_, 2
	note F_, 2
	note F_, 1
	note F_, 1
	note C_, 1
	note C_, 1
	note G_, 1
	note F_, 2
	note F_, 2
	note F_, 1
	note C_, 1
	note C_, 1
	note E_, 2
	note F_, 2
	note F_, 1
	note F_, 1
	note C_, 1
	note C_, 1
	note G_, 1
	note F_, 2
	note F_, 2
	note F_, 1
	note C_, 1
	note C_, 1
	note E_, 2
	note F_, 2
	note F_, 1
	note F_, 1
	note C_, 1
	note C_, 1
	note G_, 1
	note F_, 2
	note F_, 2
	note F_, 1
	note C_, 1
	note C_, 1
	note E_, 2
	note F_, 2
	note F_, 1
	note F_, 1
	note C_, 1
	note C_, 1
	note G_, 1
	note F_, 2
	note F_, 2
	note F_, 1
	note C_, 1
	note C_, 1
	note E_, 2
	note F_, 2
	note F_, 1
	note F_, 1
	note C_, 1
	note C_, 1
	note G_, 1
	note F_, 2
	note F_, 2
	note F_, 1
	note C_, 1
	note C_, 1
	note E_, 2
	note F_, 2
	note F_, 1
	note F_, 1
	note C_, 1
	note C_, 1
	note G_, 1
	note F_, 2
	note F_, 2
	note F_, 1
	note C_, 1
	note C_, 1
	note E_, 2
	note F_, 2
	note F_, 1
	note F_, 1
	note C_, 1
	note C_, 1
	note G_, 1
	note F_, 2
	note F_, 2
	note F_, 1
	note C_, 1
	note C_, 1
	note E_, 2
	loopchannel 0, Music_EcruteakCity_Ch4_Loop


