Music_ElmsLab:
	musicheader 4, 1, Music_ElmsLab_Ch1
	musicheader 1, 2, Music_ElmsLab_Ch2
	musicheader 1, 3, Music_ElmsLab_Ch3
	musicheader 1, 4, Music_ElmsLab_Ch4


Music_ElmsLab_Ch1:
	tempo 213
	volume $77
	notetype $c, $00
	dutycycle $1
	intensity $95
Music_ElmsLab_Ch1_Loop:
	octave 4
	note B_, 4
	note B_, 4
	note A_, 4
	note F#, 8
	note D_, 4
	note B_, 2
	octave 5
	note D_, 1
	note C#, 1
	octave 4
	note B_, 4
	note A_, 4
	note F#, 8
	note D_, 4
	note A_, 4
	note B_, 4
	octave 5
	note C#, 4
	note D_, 8
	octave 4
	note D_, 4
	note F#, 8
	note F#, 2
	note G_, 1
	note F#, 1
	note E_, 12
	note D_, 12
	note __, 4
	note __, 4
	octave 5
	note F#, 2
	note G_, 2
	note A_, 12
	note D_, 12
	octave 4
	note D_, 12
	note D_, 12
	note D_, 12
	note D_, 8
	octave 5
	note D_, 2
	note F#, 2
	note E_, 12
	note __, 4
	octave 4
	note D_, 8
	note E_, 8
	note D_, 2
	note F#, 2
	note E_, 12
	note D_, 12
	note A_, 4
	note G_, 4
	note F#, 2
	note E_, 2
	note D_, 12
	octave 5
	note C#, 4
	octave 4
	note B_, 4
	note A_, 2
	note G_, 2
	note F#, 12
	note __, 4
	note G_, 8
	note E_, 4
	note D_, 4
	note E_, 4
	note D_, 12
	note B_, 12
	octave 5
	note D_, 2
	note E_, 2
	note C#, 2
	note D_, 2
	octave 4
	note B_, 2
	note D_, 2
	note B_, 8
	note A_, 4
	octave 5
	note E_, 2
	note F#, 2
	note D_, 2
	note E_, 2
	note C#, 2
	note D_, 2
	octave 4
	note A_, 4
	note B_, 4
	octave 5
	note C#, 4
	note D_, 8
	octave 4
	note D_, 4
	note F#, 8
	note F#, 2
	note G_, 1
	note F#, 1
	note E_, 12
	note D_, 4
	note E_, 4
	note F#, 4
	note G_, 8
	note A_, 4
	note A_, 12
	note D_, 12
	loopchannel 0, Music_ElmsLab_Ch1_Loop


Music_ElmsLab_Ch2:
	volume $77
	notetype $c, $00
	dutycycle $2
	intensity $95
	stereopanning $0f
Music_ElmsLab_Ch2_Loop:
	octave 4
	octave 3
	note D_, 4
	note D_, 4
	note E_, 4
	note F#, 12
	note D_, 8
	note E_, 4
	note F#, 12
	note D_, 12
	note D_, 12
	note D_, 12
	note E_, 8
	note E_, 4
	octave 2
	note A_, 12
	note A_, 12
	note A_, 12
	note A_, 12
	octave 3
	note D_, 4
	note E_, 4
	note F#, 4
	note G_, 8
	note A_, 4
	note F#, 4
	note E_, 4
	note D_, 2
	note F#, 2
	note E_, 12
	note D_, 4
	note E_, 4
	note F#, 4
	note G_, 8
	note A_, 4
	note E_, 8
	note D_, 2
	note F#, 2
	note E_, 12
	note D_, 4
	octave 4
	note D_, 4
	note C#, 4
	octave 3
	note B_, 8
	note A_, 4
	note F#, 2
	octave 4
	note D_, 1
	note C#, 1
	octave 3
	note B_, 4
	note A_, 4
	note D_, 12
	note D_, 4
	note E_, 4
	note F#, 4
	note G_, 8
	note F#, 4
	note E_, 4
	note D_, 4
	note E_, 4
	note D_, 12
	note B_, 4
	note B_, 4
	note A_, 4
	note F#, 8
	note D_, 4
	note B_, 2
	octave 4
	note D_, 1
	note C#, 1
	octave 3
	note B_, 4
	note A_, 4
	note F#, 12
	note A_, 4
	note B_, 4
	octave 4
	note C#, 4
	note D_, 8
	octave 3
	note D_, 4
	note F#, 8
	note F#, 2
	note G_, 1
	note F#, 1
	note E_, 12
	note D_, 12
	note D_, 12
	note A_, 12
	note F#, 12
	loopchannel 0, Music_ElmsLab_Ch2_Loop


Music_ElmsLab_Ch3:
	notetype $c, $00
	intensity $13
	stereopanning $f0
Music_ElmsLab_Ch3_Loop:
	octave 4
	octave 2
	note G_, 4
	note G_, 4
	note A_, 4
	note B_, 12
	note G_, 8
	note A_, 4
	note B_, 12
	octave 3
	note G_, 12
	octave 2
	note D_, 12
	note G_, 12
	note A_, 8
	note A_, 4
	note D_, 12
	note D_, 12
	note D_, 12
	note D_, 12
	note D_, 12
	note D_, 12
	note D_, 12
	note D_, 12
	note D_, 2
	note D_, 2
	note D_, 4
	octave 3
	note C#, 4
	octave 2
	note B_, 8
	octave 3
	note D_, 4
	octave 2
	note E_, 8
	note F#, 4
	note G_, 2
	octave 3
	note E_, 2
	note G_, 4
	octave 2
	note A_, 4
	note B_, 2
	octave 3
	note F#, 2
	octave 4
	note D_, 2
	octave 3
	note B_, 2
	note F#, 2
	note B_, 2
	note G_, 2
	note D_, 2
	note B_, 2
	note G_, 2
	note B_, 4
	octave 2
	note F#, 2
	octave 3
	note D_, 1
	note C#, 1
	octave 2
	note B_, 4
	note A_, 4
	note G_, 12
	octave 3
	note D_, 8
	note C#, 4
	octave 2
	note B_, 2
	octave 3
	note G_, 2
	note D_, 2
	note C#, 2
	octave 2
	note G_, 4
	note G_, 2
	octave 3
	note E_, 2
	note B_, 4
	octave 2
	note A_, 4
	note D_, 2
	note A_, 2
	octave 3
	note F#, 2
	note A_, 2
	octave 4
	note D_, 4
	octave 2
	note G_, 4
	note G_, 4
	note A_, 4
	note B_, 2
	octave 3
	note F#, 2
	note F#, 4
	note D_, 4
	octave 2
	note G_, 8
	note A_, 4
	note B_, 2
	octave 3
	note F#, 2
	note B_, 2
	octave 4
	note D_, 2
	octave 2
	note A_, 4
	note G_, 2
	octave 3
	note D_, 2
	note G_, 2
	note D_, 2
	note G_, 2
	note D_, 2
	octave 2
	note F#, 2
	octave 3
	note D_, 2
	note A_, 4
	octave 2
	note D_, 4
	note G_, 2
	note G_, 4
	note G_, 4
	note G_, 2
	note A_, 4
	octave 3
	note A_, 2
	note E_, 2
	octave 2
	note A_, 2
	note A_, 2
	note B_, 2
	octave 3
	note F#, 2
	note B_, 2
	note F#, 2
	octave 4
	note D_, 2
	octave 3
	note B_, 2
	octave 2
	note G_, 2
	octave 3
	note D_, 2
	note G_, 2
	note D_, 2
	note B_, 4
	octave 2
	note D_, 2
	note A_, 2
	octave 3
	note F#, 2
	octave 2
	note A_, 2
	octave 3
	note F#, 4
	octave 2
	note D_, 12
	loopchannel 0, Music_ElmsLab_Ch3_Loop


Music_ElmsLab_Ch4:
	notetype $c
	togglenoise 1
Music_ElmsLab_Ch4_Loop:
	note __, 12
	note __, 12
	note __, 12
	note __, 12
	note __, 12
	note __, 12
	note __, 12
	note __, 12
	note __, 12
	note __, 12
	note __, 12
	note __, 12
	note __, 12
	note __, 12
	note __, 12
	note __, 12
	note __, 12
	note __, 12
	note __, 12
	note __, 12
	note __, 12
	note __, 12
	note __, 12
	note __, 12
	note __, 12
	note __, 12
	note __, 12
	note __, 12
	note __, 12
	note __, 12
	note __, 12
	note __, 12
	note __, 12
	note __, 12
	note __, 12
	note __, 12
	note __, 12
	note __, 12
	note __, 12
	note __, 12
	loopchannel 0, Music_ElmsLab_Ch4_Loop


