Music_GoldenrodCity:
	musicheader 4, 1, Music_GoldenrodCity_Ch1
	musicheader 1, 2, Music_GoldenrodCity_Ch2
	musicheader 1, 3, Music_GoldenrodCity_Ch3
	musicheader 1, 4, Music_GoldenrodCity_Ch4


Music_GoldenrodCity_Ch1:
	tempo 182
	volume $77
	notetype $c, $97
	dutycycle $0
	tone $0001
	stereopanning $0f
Music_GoldenrodCity_Ch1_Loop:
	octave 3
	note G_, 2
	note G_, 2
	octave 4
	note D_, 2
	octave 3
	note G_, 2
	note G_, 2
	octave 4
	note D_, 6
	octave 3
	note G_, 2
	note G_, 2
	octave 4
	note D_, 2
	octave 3
	note G_, 2
	note G_, 2
	octave 4
	note D_, 6
	octave 3
	note G_, 2
	note G_, 2
	octave 4
	note D_, 2
	octave 3
	note G_, 2
	note G_, 2
	octave 4
	note D_, 6
	octave 3
	note G_, 2
	note G_, 2
	octave 4
	note D_, 2
	octave 3
	note G_, 2
	note G_, 2
	octave 4
	note D_, 6
	octave 3
	note G_, 2
	note G_, 2
	octave 4
	note D_, 2
	octave 3
	note G_, 2
	note G_, 2
	octave 4
	note D_, 6
	octave 3
	note F#, 2
	note G_, 2
	octave 4
	note D_, 2
	octave 3
	note F#, 2
	note G_, 2
	octave 4
	note D_, 6
	octave 3
	note E_, 2
	note G_, 2
	octave 4
	note D_, 2
	octave 3
	note E_, 2
	note G_, 2
	octave 4
	note D_, 6
	octave 3
	note D_, 2
	note G_, 2
	octave 4
	note D_, 2
	octave 3
	note D_, 2
	note G_, 2
	octave 4
	note D_, 6
	note __, 2
	note __, 2
	note C_, 2
	octave 3
	note G_, 2
	note __, 2
	octave 4
	note C_, 4
	octave 3
	note G_, 2
	note __, 2
	note __, 2
	octave 4
	note C_, 2
	note __, 2
	note __, 2
	note C_, 4
	octave 3
	note D_, 2
	note __, 2
	note __, 2
	note G_, 2
	note D_, 2
	note __, 2
	note G_, 4
	note D_, 2
	note __, 2
	note __, 2
	note G_, 2
	note D_, 2
	note __, 2
	note G_, 4
	note D_, 2
	dutycycle $2
	octave 5
	note G_, 8
	note __, 2
	dutycycle $0
	octave 3
	note G_, 6
	dutycycle $2
	octave 5
	note F#, 8
	note __, 2
	dutycycle $0
	octave 3
	note G_, 6
	dutycycle $2
	octave 5
	note E_, 8
	note __, 2
	dutycycle $0
	octave 3
	note G_, 6
	dutycycle $2
	octave 5
	note D_, 8
	note __, 2
	dutycycle $0
	octave 3
	note G_, 6
	dutycycle $2
	octave 5
	note C_, 4
	dutycycle $0
	octave 4
	note C_, 2
	octave 3
	note G_, 2
	note __, 2
	octave 4
	note C_, 4
	octave 3
	note G_, 2
	dutycycle $2
	octave 5
	note D#, 4
	dutycycle $0
	octave 4
	note C_, 2
	note __, 2
	note __, 2
	note C_, 4
	octave 3
	note D_, 2
	dutycycle $2
	octave 5
	note G_, 8
	note __, 2
	dutycycle $0
	octave 3
	note G_, 4
	note D_, 2
	note __, 2
	note __, 2
	note G_, 2
	note D_, 2
	note __, 2
	note __, 2
	note G_, 2
	note G_, 2
	dutycycle $2
	octave 5
	note E_, 8
	note __, 2
	dutycycle $0
	octave 3
	note E_, 4
	note __, 2
	dutycycle $2
	octave 4
	note B_, 8
	note __, 2
	dutycycle $0
	octave 3
	note B_, 4
	note F#, 2
	dutycycle $2
	octave 5
	note E_, 4
	dutycycle $0
	octave 4
	note C_, 2
	octave 3
	note G_, 2
	dutycycle $2
	octave 5
	note C_, 4
	dutycycle $0
	octave 4
	note C_, 2
	octave 3
	note D_, 2
	dutycycle $2
	octave 5
	note D_, 8
	note __, 2
	dutycycle $0
	octave 2
	note A_, 2
	octave 3
	note G_, 2
	note B_, 2
	dutycycle $2
	octave 5
	note E_, 8
	note __, 2
	dutycycle $0
	octave 3
	note E_, 4
	note __, 2
	dutycycle $2
	octave 4
	note B_, 8
	note __, 2
	dutycycle $0
	octave 3
	note B_, 4
	note F#, 2
	dutycycle $2
	octave 5
	note E_, 4
	dutycycle $0
	octave 4
	note C_, 2
	octave 3
	note G_, 2
	dutycycle $2
	octave 5
	note C_, 4
	dutycycle $0
	octave 4
	note C_, 2
	octave 3
	note D_, 2
	dutycycle $2
	octave 5
	note D_, 8
	note __, 2
	dutycycle $0
	octave 4
	note D_, 4
	note __, 2
	dutycycle $2
	octave 5
	note G_, 8
	note __, 8
	note F#, 8
	note __, 8
	note E_, 8
	note __, 8
	note D_, 8
	note __, 8
	note C_, 8
	note __, 2
	dutycycle $0
	octave 4
	note C_, 4
	octave 3
	note G_, 2
	dutycycle $2
	octave 5
	note D#, 8
	note __, 2
	dutycycle $0
	octave 4
	note C_, 4
	octave 3
	note D_, 2
	dutycycle $2
	octave 5
	note G_, 8
	note __, 2
	dutycycle $0
	octave 3
	note G_, 4
	note D_, 2
	dutycycle $2
	octave 5
	note G_, 8
	note __, 2
	dutycycle $0
	octave 3
	note G_, 4
	note D_, 2
	loopchannel 0, Music_GoldenrodCity_Ch1_Loop


Music_GoldenrodCity_Ch2:
	notetype $c, $c5
	dutycycle $1
Music_GoldenrodCity_Ch2_Loop:
	note __, 16
	note __, 16
	note __, 16
	note __, 16
	octave 3
	note A_, 6
	note B_, 4
	note B_, 6
	note A_, 4
	note B_, 2
	note B_, 8
	note G_, 2
	note A_, 4
	note B_, 2
	note B_, 4
	note G_, 4
	octave 4
	note E_, 4
	note D_, 4
	octave 3
	note B_, 1
	note A_, 1
	note G_, 8
	octave 4
	note D_, 4
	octave 3
	note G_, 2
	note G_, 10
	octave 4
	note D_, 4
	note C_, 2
	octave 3
	note G_, 4
	note A_, 4
	note B_, 8
	note __, 2
	note __, 8
	note __, 16
	note A_, 4
	note B_, 2
	note B_, 4
	note B_, 6
	note A_, 4
	note B_, 2
	note B_, 10
	note A_, 4
	note B_, 2
	note B_, 4
	note G_, 4
	octave 4
	note E_, 4
	note D_, 4
	octave 3
	note B_, 1
	note A_, 1
	note G_, 8
	octave 4
	note D_, 4
	octave 3
	note G_, 2
	note G_, 10
	octave 4
	note D_, 4
	note C_, 2
	octave 3
	note G_, 4
	note A_, 4
	note B_, 10
	note __, 8
	note __, 16
	note A_, 6
	note B_, 4
	note B_, 6
	note A_, 4
	note B_, 2
	note B_, 10
	octave 4
	note C_, 4
	octave 3
	note B_, 4
	note G_, 2
	note A_, 4
	note B_, 8
	note __, 2
	note __, 8
	note A_, 6
	note B_, 4
	note B_, 6
	note B_, 4
	note F#, 2
	note F#, 8
	note D_, 2
	note B_, 4
	note A_, 4
	note G_, 2
	note A_, 4
	note A_, 8
	note __, 2
	note __, 8
	note A_, 6
	note B_, 4
	note B_, 4
	note B_, 2
	note A_, 4
	note B_, 2
	note B_, 8
	note G_, 2
	note A_, 4
	note B_, 2
	note B_, 4
	note G_, 4
	octave 4
	note E_, 4
	note D_, 4
	octave 3
	note B_, 1
	note A_, 1
	note G_, 8
	octave 4
	note D_, 4
	octave 3
	note G_, 2
	note G_, 10
	octave 4
	note D_, 4
	note C_, 2
	octave 3
	note G_, 6
	note A_, 4
	note A_, 2
	note G_, 8
	note __, 2
	note __, 4
	note __, 2
	note __, 2
	octave 4
	note G_, 2
	note D_, 2
	note __, 2
	note G_, 4
	note D_, 2
	loopchannel 0, Music_GoldenrodCity_Ch2_Loop


Music_GoldenrodCity_Ch3:
	notetype $c, $29
	stereopanning $f0
Music_GoldenrodCity_Ch3_Loop:
	octave 3
	note G_, 2
	note G_, 2
	octave 4
	note D_, 2
	octave 3
	note G_, 2
	note G_, 2
	octave 4
	note D_, 6
	octave 3
	note G_, 2
	note G_, 2
	octave 4
	note D_, 2
	octave 3
	note G_, 2
	note G_, 2
	octave 4
	note D_, 6
	octave 3
	note G_, 2
	note G_, 2
	octave 4
	note D_, 2
	octave 3
	note G_, 2
	note G_, 2
	octave 4
	note D_, 6
	octave 3
	note G_, 2
	note G_, 2
	octave 4
	note D_, 2
	octave 3
	note G_, 2
	note G_, 2
	octave 4
	note D_, 6
	octave 3
	note G_, 2
	note G_, 2
	octave 4
	note D_, 2
	octave 3
	note G_, 2
	note G_, 2
	octave 4
	note D_, 6
	octave 3
	note F#, 2
	note G_, 2
	octave 4
	note D_, 2
	octave 3
	note F#, 2
	note G_, 2
	octave 4
	note D_, 6
	octave 3
	note E_, 2
	note G_, 2
	octave 4
	note D_, 2
	octave 3
	note E_, 2
	note G_, 2
	octave 4
	note D_, 6
	octave 3
	note D_, 2
	note G_, 2
	octave 4
	note D_, 2
	octave 3
	note D_, 2
	note G_, 2
	octave 4
	note D_, 6
	octave 3
	note C_, 2
	note G_, 2
	octave 4
	note E_, 2
	note C_, 2
	octave 3
	note C_, 2
	octave 4
	note E_, 4
	note C_, 2
	octave 3
	note C_, 2
	note G_, 2
	octave 4
	note D#, 2
	note C_, 2
	octave 3
	note G_, 2
	octave 4
	note D#, 4
	octave 3
	note G_, 2
	octave 2
	note G_, 2
	octave 3
	note D_, 2
	octave 4
	note D_, 2
	octave 3
	note G_, 2
	octave 2
	note G_, 2
	octave 4
	note D_, 4
	octave 3
	note G_, 2
	octave 2
	note G_, 2
	octave 3
	note D_, 2
	octave 4
	note D_, 2
	octave 3
	note G_, 2
	octave 2
	note G_, 2
	octave 4
	note D_, 4
	octave 3
	note G_, 2
	note G_, 2
	note G_, 2
	octave 4
	note D_, 2
	octave 3
	note G_, 2
	note G_, 2
	octave 4
	note D_, 6
	octave 3
	note F#, 2
	note G_, 2
	octave 4
	note D_, 2
	octave 3
	note F#, 2
	note G_, 2
	octave 4
	note D_, 6
	octave 3
	note E_, 2
	note G_, 2
	octave 4
	note D_, 2
	octave 3
	note E_, 2
	note G_, 2
	octave 4
	note D_, 6
	octave 3
	note D_, 2
	note G_, 2
	octave 4
	note D_, 2
	octave 3
	note D_, 2
	note G_, 2
	octave 4
	note D_, 6
	octave 3
	note C_, 2
	note G_, 2
	octave 4
	note E_, 2
	note C_, 2
	octave 3
	note C_, 2
	octave 4
	note E_, 4
	note C_, 2
	octave 3
	note C_, 2
	note G_, 2
	octave 4
	note D#, 2
	note C_, 2
	octave 3
	note G_, 2
	octave 4
	note D#, 4
	octave 3
	note G_, 2
	octave 2
	note G_, 2
	octave 3
	note D_, 2
	octave 4
	note D_, 2
	octave 3
	note G_, 2
	octave 2
	note G_, 2
	octave 4
	note D_, 4
	octave 3
	note G_, 2
	octave 2
	note G_, 2
	octave 3
	note D_, 2
	octave 4
	note D_, 2
	octave 3
	note G_, 2
	octave 2
	note F#, 2
	note A_, 2
	octave 4
	note D_, 2
	octave 3
	note B_, 2
	octave 2
	note E_, 4
	octave 3
	note B_, 2
	note G_, 2
	octave 2
	note E_, 2
	octave 3
	note G_, 4
	note D_, 2
	octave 2
	note B_, 2
	octave 3
	note F#, 2
	octave 4
	note D_, 2
	octave 2
	note B_, 4
	octave 4
	note D_, 4
	octave 3
	note B_, 2
	note C_, 2
	note G_, 2
	octave 4
	note E_, 2
	note C_, 2
	octave 3
	note C_, 2
	octave 4
	note E_, 4
	octave 3
	note G_, 2
	octave 2
	note G_, 2
	octave 3
	note D_, 2
	octave 4
	note D_, 2
	octave 3
	note G_, 2
	octave 2
	note F#, 2
	octave 3
	note D_, 2
	octave 4
	note E_, 2
	note E_, 2
	octave 2
	note E_, 4
	octave 3
	note B_, 2
	note G_, 2
	octave 2
	note E_, 2
	octave 3
	note G_, 4
	note D_, 2
	octave 2
	note B_, 2
	octave 3
	note F#, 2
	octave 4
	note D_, 2
	octave 2
	note B_, 4
	octave 4
	note D_, 4
	octave 3
	note B_, 2
	note C_, 2
	note G_, 2
	octave 4
	note E_, 2
	note C_, 2
	octave 3
	note C_, 2
	octave 4
	note E_, 4
	octave 3
	note G_, 2
	note D_, 2
	note A_, 2
	octave 4
	note F#, 2
	note D_, 2
	octave 3
	note D_, 2
	octave 4
	note F#, 4
	octave 3
	note G_, 2
	note G_, 2
	note G_, 2
	octave 4
	note D_, 2
	octave 3
	note G_, 2
	note G_, 2
	octave 4
	note D_, 6
	octave 3
	note F#, 2
	note G_, 2
	octave 4
	note D_, 2
	octave 3
	note F#, 2
	note G_, 2
	octave 4
	note D_, 6
	octave 3
	note E_, 2
	note G_, 2
	octave 4
	note D_, 2
	octave 3
	note E_, 2
	note G_, 2
	octave 4
	note D_, 6
	octave 3
	note D_, 2
	note G_, 2
	octave 4
	note D_, 2
	octave 3
	note D_, 2
	note G_, 2
	octave 4
	note D_, 6
	octave 3
	note C_, 2
	note G_, 2
	octave 4
	note E_, 2
	note C_, 2
	octave 3
	note C_, 2
	octave 4
	note E_, 4
	note C_, 2
	octave 3
	note C_, 2
	note G_, 2
	octave 4
	note D#, 2
	note C_, 2
	octave 3
	note G_, 2
	octave 4
	note D#, 4
	octave 3
	note G_, 2
	octave 2
	note G_, 2
	octave 3
	note D_, 2
	octave 4
	note D_, 2
	octave 3
	note G_, 2
	octave 2
	note G_, 2
	octave 4
	note D_, 4
	octave 3
	note G_, 2
	octave 2
	note G_, 2
	octave 3
	note D_, 2
	octave 4
	note D_, 2
	octave 3
	note G_, 2
	octave 2
	note G_, 2
	octave 4
	note D_, 4
	octave 3
	note G_, 2
	loopchannel 0, Music_GoldenrodCity_Ch3_Loop


Music_GoldenrodCity_Ch4:
	notetype $c
	togglenoise 1
Music_GoldenrodCity_Ch4_Loop:
	note __, 16
	note __, 16
	note __, 16
	note __, 16
	note __, 16
	note __, 16
	note __, 16
	note __, 16
	note __, 16
	note __, 16
	note __, 16
	note __, 16
	note F_, 2
	note F_, 2
	note D_, 2
	note F_, 2
	note F_, 2
	note D_, 2
	note __, 4
	note F_, 2
	note F_, 2
	note D_, 2
	note F_, 2
	note F_, 2
	note D_, 2
	note F_, 4
	note F_, 2
	note F_, 2
	note D_, 2
	note F_, 2
	note F_, 2
	note D_, 2
	note __, 4
	note F_, 2
	note F_, 2
	note D_, 2
	note F_, 2
	note F_, 2
	note D_, 2
	note F_, 4
	note F_, 2
	note F_, 2
	note D_, 2
	note F_, 2
	note F_, 2
	note D_, 2
	note __, 4
	note F_, 2
	note F_, 2
	note D_, 2
	note F_, 2
	note F_, 2
	note D_, 2
	note F_, 4
	note F_, 2
	note F_, 2
	note D_, 2
	note F_, 2
	note F_, 2
	note D_, 2
	note __, 4
	note F_, 2
	note F_, 2
	note D_, 2
	note F_, 2
	note F_, 2
	note D_, 2
	note F_, 4
	note F_, 2
	note F_, 2
	note D_, 2
	note F_, 2
	note F_, 2
	note D_, 2
	note __, 4
	note F_, 2
	note F_, 2
	note D_, 2
	note F_, 2
	note F_, 2
	note D_, 2
	note F_, 4
	note F_, 2
	note F_, 2
	note D_, 2
	note F_, 2
	note F_, 2
	note D_, 2
	note __, 4
	note F_, 2
	note F_, 2
	note D_, 2
	note F_, 2
	note F_, 2
	note D_, 2
	note F_, 4
	note F_, 2
	note F_, 2
	note D_, 2
	note F_, 2
	note F_, 2
	note D_, 2
	note __, 4
	note F_, 2
	note F_, 2
	note D_, 2
	note F_, 2
	note F_, 2
	note D_, 2
	note F_, 4
	note F_, 2
	note F_, 2
	note D_, 2
	note F_, 2
	note F_, 2
	note D_, 2
	note __, 4
	note F_, 2
	note F_, 2
	note D_, 2
	note F_, 2
	note F_, 2
	note D_, 2
	note F_, 4
	note F_, 2
	note F_, 2
	note D_, 2
	note F_, 2
	note F_, 2
	note D_, 2
	note __, 4
	note F_, 2
	note F_, 2
	note D_, 2
	note F_, 2
	note F_, 2
	note D_, 2
	note F_, 4
	note F_, 2
	note F_, 2
	note D_, 2
	note F_, 2
	note F_, 2
	note D_, 2
	note __, 4
	note F_, 2
	note F_, 2
	note D_, 2
	note F_, 2
	note F_, 2
	note D_, 2
	note F_, 4
	note F_, 2
	note F_, 2
	note D_, 2
	note F_, 2
	note F_, 2
	note D_, 2
	note __, 4
	note F_, 2
	note F_, 2
	note D_, 2
	note F_, 2
	note F_, 2
	note D_, 2
	note F_, 4
	note F_, 2
	note F_, 2
	note D_, 2
	note F_, 2
	note F_, 2
	note D_, 2
	note __, 4
	note F_, 2
	note F_, 2
	note D_, 2
	note F_, 2
	note F_, 2
	note D_, 2
	note F_, 4
	loopchannel 0, Music_GoldenrodCity_Ch4_Loop


