Music_JohtoGymBattle:
	musicheader 4, 1, Music_JohtoGymBattle_Ch1
	musicheader 1, 2, Music_JohtoGymBattle_Ch2
	musicheader 1, 3, Music_JohtoGymBattle_Ch3
	musicheader 1, 4, Music_JohtoGymBattle_Ch4


Music_JohtoGymBattle_Ch1:
	tempo 137
	volume $77
	notetype $c, $97
	dutycycle $2
Music_JohtoGymBattle_Ch1_Loop:
	stereopanning $0f
	octave 3
	note C_, 1
	note __, 1
	note __, 2
	octave 4
	note C_, 1
	note __, 1
	note __, 2
	octave 3
	note C_, 1
	note __, 1
	note C_, 1
	note __, 1
	octave 4
	note C_, 1
	note __, 1
	note __, 2
	octave 3
	note C_, 1
	note __, 1
	note C_, 1
	note __, 1
	note C_, 1
	note __, 1
	note C_, 1
	note __, 1
	note __, 1
	note __, 1
	note C_, 1
	note __, 1
	octave 4
	note C_, 1
	note __, 1
	note __, 2
	octave 2
	note G#, 1
	note __, 1
	note __, 2
	octave 3
	note G#, 1
	note __, 1
	note __, 2
	octave 2
	note G#, 1
	note __, 1
	note G#, 1
	note __, 1
	octave 3
	note G#, 1
	note __, 1
	note __, 2
	octave 2
	note G#, 1
	note __, 1
	note G#, 1
	note __, 1
	note G#, 1
	note __, 1
	note G#, 1
	note __, 1
	note __, 1
	note __, 1
	note G#, 1
	note __, 1
	octave 3
	note G#, 1
	note __, 1
	note __, 2
	note C_, 1
	note __, 1
	note __, 2
	octave 4
	note C_, 1
	note __, 1
	note __, 2
	octave 3
	note C_, 1
	note __, 1
	note C_, 1
	note __, 1
	octave 4
	note C_, 1
	note __, 1
	note __, 2
	octave 3
	note C_, 1
	note __, 1
	note C_, 1
	note __, 1
	note C_, 1
	note __, 1
	note C_, 1
	note __, 1
	note __, 1
	note __, 1
	note C_, 1
	note __, 1
	octave 4
	note C_, 1
	note __, 1
	note __, 2
	octave 2
	note G#, 1
	note __, 1
	note __, 2
	octave 3
	note G#, 1
	note __, 1
	note __, 2
	octave 2
	note G#, 1
	note __, 1
	note G#, 1
	note __, 1
	octave 3
	note G#, 1
	note __, 1
	note __, 2
	octave 2
	note G#, 1
	note __, 1
	stereopanning $f0
	dutycycle $1
	octave 5
	note F_, 2
	note G_, 2
	note F_, 2
	note D#, 2
	note D_, 2
	note C_, 2
	octave 4
	note A#, 2
	note G#, 12
	note G_, 2
	note G#, 2
	note A#, 8
	octave 5
	note D_, 8
	note C_, 12
	octave 4
	note A#, 2
	octave 5
	note C_, 2
	note D_, 8
	note D#, 4
	note F_, 4
	note G_, 8
	note G_, 8
	note F_, 10
	note D_, 2
	note D#, 2
	note __, 2
	note G_, 8
	note G_, 8
	note F_, 10
	note D_, 2
	note D#, 2
	dutycycle $2
	note __, 2
	loopchannel 0, Music_JohtoGymBattle_Ch1_Loop


Music_JohtoGymBattle_Ch2:
	notetype $c, $b7
	dutycycle $1
Music_JohtoGymBattle_Ch2_Loop:
	octave 5
	note C_, 2
	note D_, 2
	note C_, 2
	octave 4
	note G_, 16
	octave 3
	note A#, 2
	octave 4
	note C_, 2
	note D#, 2
	note F_, 2
	note G_, 2
	note A#, 2
	octave 5
	note C_, 2
	octave 4
	note A#, 2
	note G#, 16
	octave 5
	note D_, 2
	note D#, 2
	note D_, 2
	note C_, 2
	octave 4
	note G_, 2
	octave 5
	note C_, 2
	note D_, 2
	note C_, 2
	octave 4
	note G_, 16
	octave 3
	note A#, 2
	octave 4
	note C_, 2
	note D#, 2
	note F_, 2
	note G_, 2
	note A#, 2
	octave 5
	note C_, 2
	octave 4
	note A#, 2
	note G#, 12
	stereopanning $0f
	octave 5
	note D_, 2
	note D#, 2
	note D_, 2
	note C_, 2
	octave 4
	note A#, 2
	note G#, 2
	note G_, 2
	note F_, 12
	note D#, 2
	note F_, 2
	note G_, 8
	note A#, 8
	note G#, 12
	note G_, 2
	note G#, 2
	note A#, 8
	octave 5
	note C_, 4
	note D_, 4
	note D#, 8
	note D#, 8
	note D_, 10
	octave 4
	note B_, 2
	octave 5
	note C_, 2
	note __, 2
	note D#, 8
	note D#, 8
	note D_, 10
	octave 4
	note B_, 2
	octave 5
	note C_, 2
	stereopanning $ff
	note __, 2
	loopchannel 0, Music_JohtoGymBattle_Ch2_Loop


Music_JohtoGymBattle_Ch3:
	notetype $c, $27
Music_JohtoGymBattle_Ch3_Loop:
	stereopanning $f0
	octave 2
	note C_, 2
	note __, 2
	octave 3
	note C_, 2
	note __, 2
	octave 2
	note C_, 2
	note C_, 2
	octave 3
	note C_, 2
	note __, 2
	octave 2
	note C_, 2
	note C_, 2
	note C_, 2
	note C_, 2
	note __, 1
	note __, 1
	note C_, 2
	octave 3
	note C_, 2
	note __, 2
	octave 1
	note G#, 2
	note __, 2
	octave 2
	note G#, 2
	note __, 2
	octave 1
	note G#, 2
	note G#, 2
	octave 2
	note G#, 2
	note __, 2
	octave 1
	note G#, 2
	note G#, 2
	note G#, 2
	note G#, 2
	note __, 1
	note __, 1
	note G#, 2
	octave 2
	note G#, 2
	note __, 2
	note C_, 2
	note __, 2
	octave 3
	note C_, 2
	note __, 2
	octave 2
	note C_, 2
	note C_, 2
	octave 3
	note C_, 2
	note __, 2
	octave 2
	note C_, 2
	note C_, 2
	note C_, 2
	note C_, 2
	note __, 1
	note __, 1
	note C_, 2
	octave 3
	note C_, 2
	note __, 2
	octave 1
	note G#, 2
	note __, 2
	octave 2
	note G#, 2
	note __, 2
	octave 1
	note G#, 2
	note G#, 2
	octave 2
	note G#, 2
	note __, 2
	octave 1
	note G#, 2
	stereopanning $ff
	note G#, 1
	note __, 1
	note G#, 1
	note __, 1
	note G#, 1
	note __, 1
	note __, 1
	note __, 1
	note G#, 1
	note __, 1
	octave 2
	note G#, 1
	note __, 1
	note __, 2
	octave 1
	note F_, 1
	note __, 1
	note __, 2
	octave 2
	note F_, 1
	note __, 1
	note __, 2
	octave 1
	note F_, 1
	note __, 1
	note F_, 1
	note __, 1
	octave 2
	note F_, 1
	note __, 1
	note __, 2
	octave 1
	note G_, 1
	note __, 1
	note G_, 1
	note __, 1
	note G_, 1
	note __, 1
	note G_, 1
	note __, 1
	note __, 1
	note __, 1
	note G_, 1
	note __, 1
	octave 2
	note G_, 1
	note __, 1
	note __, 2
	octave 1
	note F_, 1
	note __, 1
	note __, 2
	octave 2
	note F_, 1
	note __, 1
	note __, 2
	octave 1
	note F_, 1
	note __, 1
	note F_, 1
	note __, 1
	octave 2
	note F_, 1
	note __, 1
	note __, 2
	octave 1
	note G_, 1
	note __, 1
	note G_, 1
	note __, 1
	note G_, 1
	note __, 1
	note G_, 1
	note __, 1
	note __, 1
	note __, 1
	note G_, 1
	note __, 1
	octave 2
	note G_, 1
	note __, 1
	note __, 2
	note C_, 1
	note __, 1
	note __, 2
	octave 3
	note C_, 1
	note __, 1
	note __, 2
	octave 1
	note G#, 1
	note __, 1
	note G#, 1
	note __, 1
	octave 2
	note G#, 1
	note __, 1
	note __, 2
	octave 1
	note G_, 1
	note __, 1
	note G_, 1
	note __, 1
	note G_, 1
	note __, 1
	note G_, 1
	note __, 1
	note __, 1
	note __, 1
	note G_, 1
	note __, 1
	octave 2
	note G_, 1
	note __, 1
	note __, 2
	note C_, 1
	note __, 1
	note __, 2
	octave 3
	note C_, 1
	note __, 1
	note __, 2
	octave 1
	note G#, 1
	note __, 1
	note G#, 1
	note __, 1
	octave 2
	note G#, 1
	note __, 1
	note __, 2
	octave 1
	note G_, 1
	note __, 1
	note G_, 1
	note __, 1
	note G_, 1
	note __, 1
	note G_, 1
	note __, 1
	note __, 1
	note __, 1
	note G_, 1
	note __, 1
	octave 2
	note G_, 1
	note __, 1
	note __, 2
	loopchannel 0, Music_JohtoGymBattle_Ch3_Loop


Music_JohtoGymBattle_Ch4:
	notetype $c
	togglenoise 1
Music_JohtoGymBattle_Ch4_Loop:
	note F_, 2
	note __, 2
	note F_, 2
	note __, 2
	note F_, 2
	note F_, 2
	note C_, 4
	note F_, 2
	note F_, 2
	note F_, 2
	note F_, 2
	note __, 2
	note F_, 2
	note C_, 2
	note __, 2
	note F_, 2
	note __, 2
	note C_, 2
	note __, 2
	note F_, 2
	note F_, 2
	note F_, 2
	note F_, 2
	note F_, 2
	note F_, 2
	note F_, 2
	note F_, 2
	note __, 2
	note F_, 2
	note C_, 2
	note __, 2
	note F_, 2
	note __, 2
	note F_, 2
	note __, 2
	note F_, 2
	note F_, 2
	note C_, 4
	note F_, 2
	note F_, 2
	note F_, 2
	note F_, 2
	note __, 2
	note F_, 2
	note C_, 2
	note __, 2
	note F_, 2
	note __, 2
	note C_, 2
	note __, 2
	note F_, 2
	note F_, 2
	note F_, 2
	note F_, 2
	note F_, 2
	note F_, 2
	note F_, 2
	note F_, 2
	note __, 2
	note F_, 2
	note C_, 2
	note __, 2
	note F_, 2
	note __, 2
	note F_, 2
	note C_, 2
	note F_, 2
	note F_, 2
	note C_, 4
	note F_, 2
	note F_, 2
	note F_, 2
	note F_, 2
	note __, 2
	note F_, 2
	note C_, 2
	note __, 2
	note F_, 2
	note __, 2
	note C_, 2
	note __, 2
	note F_, 2
	note F_, 2
	note F_, 4
	note F_, 2
	note F_, 2
	note F_, 2
	note F_, 2
	note __, 2
	note F_, 2
	note C_, 4
	note F_, 2
	note __, 2
	note C_, 2
	note __, 2
	note F_, 2
	note F_, 2
	note C_, 4
	note F_, 2
	note F_, 2
	note F_, 2
	note F_, 2
	note __, 2
	note F_, 2
	note C_, 4
	note F_, 2
	note __, 2
	note C_, 2
	note __, 2
	note F_, 2
	note F_, 2
	note C_, 4
	note F_, 2
	note F_, 2
	note F_, 2
	note F_, 2
	note __, 2
	note F_, 2
	note C_, 4
	loopchannel 0, Music_JohtoGymBattle_Ch4_Loop


