Music_JohtoTrainerBattle:
	musicheader 4, 1, Music_JohtoTrainerBattle_Ch1
	musicheader 1, 2, Music_JohtoTrainerBattle_Ch2
	musicheader 1, 3, Music_JohtoTrainerBattle_Ch3
	musicheader 1, 4, Music_JohtoTrainerBattle_Ch4


Music_JohtoTrainerBattle_Ch1:
	tempo 160
	volume $77
	notetype $c, $97
	dutycycle $1
	tone $0001
	stereopanning $f0
Music_JohtoTrainerBattle_Ch1_Loop:
	note __, 16
	note __, 16
	note __, 16
	note __, 16
	octave 4
	note D_, 16
	note C_, 16
	octave 3
	note B_, 16
	note A#, 16
	note D_, 1
	note D_, 1
	octave 4
	note D_, 2
	octave 3
	note A_, 2
	note __, 1
	note G#, 1
	note __, 1
	note G_, 1
	note __, 1
	note F_, 2
	note D_, 1
	note F_, 1
	note G_, 1
	note C_, 1
	note C_, 1
	octave 4
	note D_, 2
	octave 3
	note A_, 2
	note __, 1
	note G#, 1
	note __, 1
	note G_, 1
	note __, 1
	note F_, 2
	note D_, 1
	note F_, 1
	note G_, 1
	octave 2
	note B_, 1
	note B_, 1
	octave 4
	note D_, 2
	octave 3
	note A_, 2
	note __, 1
	note G#, 1
	note __, 1
	note G_, 1
	note __, 1
	note F_, 2
	note D_, 1
	note F_, 1
	note G_, 1
	octave 2
	note A#, 1
	note A#, 1
	octave 4
	note D_, 2
	octave 3
	note A_, 2
	note __, 1
	note G#, 1
	note __, 1
	note G_, 1
	note __, 1
	note F_, 2
	note D_, 1
	note F_, 1
	note G_, 1
	note D_, 1
	note D_, 1
	octave 4
	note D_, 2
	octave 3
	note A_, 2
	note __, 1
	note G#, 1
	note __, 1
	note G_, 1
	note __, 1
	note F_, 2
	note D_, 1
	note F_, 1
	note G_, 1
	note C_, 1
	note C_, 1
	octave 4
	note D_, 2
	octave 3
	note A_, 2
	note __, 1
	note G#, 1
	note __, 1
	note G_, 1
	note __, 1
	note F_, 2
	note D_, 1
	note F_, 1
	note G_, 1
	octave 2
	note B_, 1
	note B_, 1
	octave 4
	note D_, 2
	octave 3
	note A_, 2
	note __, 1
	note G#, 1
	note __, 1
	note G_, 1
	note __, 1
	note F_, 2
	note D_, 1
	note F_, 1
	note G_, 1
	octave 2
	note A#, 1
	note A#, 1
	octave 4
	note D_, 2
	octave 3
	note A_, 2
	note __, 1
	note G#, 1
	note __, 1
	note G_, 1
	note __, 1
	note F_, 2
	note D_, 1
	note C_, 2
	note __, 8
	note __, 6
	octave 4
	note D_, 2
	note __, 16
	note __, 12
	note __, 2
	octave 3
	note B_, 2
	note __, 4
	note __, 4
	note __, 2
	note __, 1
	octave 5
	note G_, 5
	octave 4
	note F_, 2
	note F_, 1
	note F_, 1
	note __, 1
	note F_, 1
	note __, 1
	note F_, 2
	note D_, 1
	note __, 1
	note D_, 5
	note F_, 2
	note F_, 2
	note F_, 1
	note F_, 1
	note __, 1
	note D_, 1
	note __, 1
	note F_, 1
	note __, 1
	note E_, 2
	note D_, 1
	note C_, 2
	note F_, 2
	note __, 6
	note E_, 2
	note __, 6
	octave 3
	note G_, 2
	note A#, 1
	octave 4
	note C_, 2
	note D_, 2
	note E_, 9
	note __, 8
	note D_, 1
	octave 3
	note A#, 1
	octave 4
	note D_, 1
	note D_, 1
	note D_, 1
	note D_, 1
	note D_, 1
	octave 3
	note A#, 1
	octave 4
	note F_, 1
	note __, 1
	note D_, 2
	note E_, 8
	octave 3
	note C_, 1
	note C_, 1
	note __, 2
	note D_, 2
	note D_, 2
	note D_, 1
	note D_, 1
	note __, 1
	note D_, 1
	note __, 1
	note D_, 1
	note __, 1
	note D_, 1
	note D_, 1
	note D_, 1
	note D_, 2
	note C#, 2
	note C#, 2
	note C#, 1
	note C#, 1
	note __, 1
	note D#, 2
	note D#, 1
	note __, 1
	note D#, 1
	note D#, 1
	note D#, 1
	note __, 2
	note F_, 2
	note G_, 2
	note A_, 2
	octave 4
	note A_, 2
	note G_, 4
	note F_, 4
	note G_, 4
	note A_, 4
	octave 5
	note C_, 4
	octave 4
	note A_, 4
	octave 5
	note D_, 4
	note __, 4
	note __, 8
	octave 4
	note G#, 8
	octave 5
	note D#, 8
	octave 2
	note A#, 2
	note A#, 2
	note A#, 1
	note A#, 1
	note __, 1
	note A#, 1
	note __, 1
	note A#, 1
	note __, 1
	note A#, 1
	note A#, 1
	note A#, 1
	note A#, 2
	octave 3
	note C_, 2
	note C_, 2
	note C_, 1
	note C_, 1
	note __, 1
	note C_, 1
	note __, 1
	note C_, 1
	note __, 1
	note C_, 1
	note C_, 1
	note C_, 1
	note C_, 2
	octave 2
	note B_, 2
	note B_, 2
	note B_, 1
	note B_, 1
	note __, 1
	note B_, 1
	note __, 1
	note B_, 1
	note __, 1
	note B_, 1
	note B_, 1
	note B_, 1
	note B_, 2
	note B_, 2
	note B_, 2
	note B_, 1
	note B_, 1
	note __, 1
	note B_, 1
	note __, 1
	note B_, 1
	note __, 1
	note B_, 1
	note B_, 1
	note B_, 1
	note B_, 2
	note A#, 2
	note A#, 2
	note A#, 1
	note A#, 1
	note __, 1
	note A#, 1
	note __, 1
	note A#, 1
	note __, 1
	note A#, 1
	note A#, 1
	note A#, 1
	note A#, 2
	octave 3
	note C_, 2
	note C_, 2
	note C_, 1
	note C_, 1
	note __, 1
	note C_, 1
	note __, 1
	note C_, 1
	note __, 1
	note C_, 1
	note C_, 1
	note C_, 1
	note C_, 2
	note D_, 2
	note D_, 2
	note D_, 1
	note D_, 1
	note __, 1
	note D_, 1
	note __, 1
	note D_, 1
	note __, 1
	note D_, 1
	note D_, 1
	note D_, 1
	note D_, 2
	note D_, 2
	note D_, 2
	note D_, 1
	note D_, 1
	note __, 1
	note D_, 1
	note __, 1
	note D_, 1
	note __, 1
	note D_, 1
	note D_, 1
	note D_, 1
	note D_, 2
	octave 1
	note A#, 16
	octave 2
	note C_, 16
	octave 1
	note B_, 16
	note B_, 16
	note A#, 16
	octave 2
	note C_, 16
	note D_, 2
	octave 4
	note F_, 2
	note E_, 2
	note __, 1
	note C_, 1
	note __, 1
	note E_, 1
	note __, 1
	note D_, 2
	octave 2
	note D_, 3
	note D_, 2
	octave 4
	note F_, 2
	note E_, 2
	note __, 1
	note C_, 1
	note __, 1
	note E_, 1
	note __, 1
	note D_, 2
	octave 2
	note D_, 3
	octave 1
	note A#, 2
	note A#, 2
	note A#, 1
	note A#, 1
	note __, 1
	note A#, 1
	note __, 1
	note A#, 1
	note __, 1
	note A#, 1
	note A#, 1
	note A#, 1
	octave 2
	note A#, 2
	note C_, 2
	note C_, 2
	note C_, 1
	note C_, 1
	note __, 1
	note C_, 1
	note __, 1
	note C_, 1
	note __, 1
	note C_, 1
	note C_, 1
	note C_, 1
	octave 3
	note C_, 1
	octave 2
	note C_, 1
	note D_, 2
	note D_, 2
	note D_, 1
	note D_, 1
	note __, 1
	note C#, 1
	note __, 1
	note C#, 1
	note __, 1
	note C#, 1
	note C#, 1
	note C#, 1
	octave 3
	note C#, 2
	octave 2
	note C_, 2
	note C_, 2
	note C_, 1
	note C_, 1
	note __, 1
	octave 1
	note B_, 1
	note __, 1
	note B_, 1
	note __, 1
	note B_, 1
	note B_, 1
	note B_, 1
	octave 2
	note B_, 2
	octave 1
	note A#, 2
	note A#, 2
	note A#, 1
	note A#, 1
	note __, 1
	note A#, 1
	note __, 1
	note A#, 1
	note __, 1
	note A#, 1
	note A#, 1
	note A#, 1
	octave 2
	note A#, 2
	note C_, 2
	note C_, 2
	note C_, 1
	note C_, 1
	note __, 1
	note C_, 1
	note __, 1
	note C_, 1
	note __, 1
	note C_, 1
	note C_, 1
	note C_, 1
	octave 3
	note C_, 1
	octave 2
	note C_, 1
	note D_, 2
	note D_, 2
	note D_, 1
	note D_, 1
	note __, 1
	note D_, 1
	note __, 1
	note D_, 1
	note __, 1
	note D_, 1
	note D_, 1
	note D_, 1
	octave 3
	note D_, 2
	octave 2
	note D_, 2
	note D_, 2
	note D_, 1
	note D_, 1
	note __, 1
	note D_, 1
	note __, 1
	note D_, 1
	note __, 1
	note D_, 1
	note D_, 1
	note D_, 1
	octave 3
	note D_, 2
	octave 1
	note A#, 2
	note A#, 2
	note A#, 1
	note A#, 1
	note __, 1
	note A#, 1
	note __, 1
	note A#, 1
	note __, 1
	note A#, 1
	note A#, 1
	note A#, 1
	octave 2
	note A#, 2
	note C_, 2
	note C_, 2
	note C_, 1
	note C_, 1
	note __, 1
	note C_, 1
	note __, 1
	note C_, 1
	note __, 1
	note C_, 1
	note C_, 1
	note C_, 1
	octave 3
	note C_, 1
	octave 2
	note C_, 1
	note D_, 2
	note D_, 2
	note D_, 1
	note D_, 1
	note __, 1
	note C#, 1
	note __, 1
	note C#, 1
	note __, 1
	note C#, 1
	note C#, 1
	note C#, 1
	octave 3
	note C#, 2
	octave 2
	note C_, 2
	note C_, 2
	note C_, 1
	note C_, 1
	note __, 1
	octave 1
	note B_, 1
	note __, 1
	note B_, 1
	note __, 1
	note B_, 1
	note B_, 1
	note B_, 1
	octave 2
	note B_, 2
	octave 1
	note A#, 2
	note A#, 2
	note A#, 1
	note A#, 1
	note __, 1
	note A#, 1
	note __, 1
	note A#, 1
	note __, 1
	note A#, 1
	note A#, 1
	note A#, 1
	octave 2
	note A#, 2
	note C_, 2
	note C_, 2
	note C_, 1
	note C_, 1
	note __, 1
	note C_, 1
	note __, 1
	note C_, 1
	note __, 1
	note C_, 1
	note C_, 1
	note C_, 1
	octave 3
	note C_, 1
	octave 2
	note C_, 1
	note D_, 2
	note D_, 2
	note D_, 1
	note D_, 1
	note __, 1
	note D_, 1
	note __, 1
	note D_, 1
	note __, 1
	note D_, 1
	note D_, 1
	note D_, 1
	octave 3
	note D_, 2
	octave 2
	note D_, 2
	note D_, 2
	note D_, 1
	note D_, 1
	note __, 1
	note D_, 1
	note __, 1
	note D_, 1
	note __, 1
	note D_, 1
	note D_, 1
	note D_, 1
	octave 3
	note D_, 2
	note __, 16
	note __, 16
	note __, 16
	note __, 16
	note __, 16
	note __, 16
	loopchannel 0, Music_JohtoTrainerBattle_Ch1_Loop


Music_JohtoTrainerBattle_Ch2:
	notetype $c, $c5
	dutycycle $2
Music_JohtoTrainerBattle_Ch2_Loop:
	octave 4
	note D_, 1
	note D_, 1
	octave 5
	note D_, 2
	octave 4
	note A_, 2
	note __, 1
	note G#, 1
	note __, 1
	note G_, 1
	note __, 1
	note F_, 2
	note D_, 1
	note F_, 1
	note G_, 1
	note C_, 1
	note C_, 1
	octave 5
	note D_, 2
	octave 4
	note A_, 2
	note __, 1
	note G#, 1
	note __, 1
	note G_, 1
	note __, 1
	note F_, 2
	note D_, 1
	note F_, 1
	note G_, 1
	octave 3
	note B_, 1
	note B_, 1
	octave 5
	note D_, 2
	octave 4
	note A_, 2
	note __, 1
	note G#, 1
	note __, 1
	note G_, 1
	note __, 1
	note F_, 2
	note D_, 1
	note F_, 1
	note G_, 1
	octave 3
	note A#, 1
	note A#, 1
	octave 5
	note D_, 2
	octave 4
	note A_, 2
	note __, 1
	note G#, 1
	note __, 1
	note G_, 1
	note __, 1
	note F_, 2
	note D_, 1
	note F_, 1
	note G_, 1
	note D_, 1
	note D_, 1
	octave 5
	note D_, 2
	octave 4
	note A_, 2
	note __, 1
	note G#, 1
	note __, 1
	note G_, 1
	note __, 1
	note F_, 2
	note D_, 1
	note F_, 1
	note G_, 1
	note C_, 1
	note C_, 1
	octave 5
	note D_, 2
	octave 4
	note A_, 2
	note __, 1
	note G#, 1
	note __, 1
	note G_, 1
	note __, 1
	note F_, 2
	note D_, 1
	note F_, 1
	note G_, 1
	octave 3
	note B_, 1
	note B_, 1
	octave 5
	note D_, 2
	octave 4
	note A_, 2
	note __, 1
	note G#, 1
	note __, 1
	note G_, 1
	note __, 1
	note F_, 2
	note D_, 1
	note F_, 1
	note G_, 1
	octave 3
	note A#, 1
	note A#, 1
	octave 5
	note D_, 2
	octave 4
	note A_, 2
	note __, 1
	note G#, 1
	note __, 1
	note G_, 1
	note __, 1
	note F_, 2
	note D_, 1
	note F_, 1
	note G_, 1
	note D_, 1
	note D_, 1
	octave 5
	note D_, 2
	octave 4
	note A_, 2
	note __, 1
	note G#, 1
	note __, 1
	note G_, 1
	note __, 1
	note F_, 2
	note D_, 1
	note F_, 1
	note G_, 1
	note C_, 1
	note C_, 1
	octave 5
	note D_, 2
	octave 4
	note A_, 2
	note __, 1
	note G#, 1
	note __, 1
	note G_, 1
	note __, 1
	note F_, 2
	note D_, 1
	note F_, 1
	note G_, 1
	octave 3
	note B_, 1
	note B_, 1
	octave 5
	note D_, 2
	octave 4
	note A_, 2
	note __, 1
	note G#, 1
	note __, 1
	note G_, 1
	note __, 1
	note F_, 2
	note D_, 1
	note F_, 1
	note G_, 1
	octave 3
	note A#, 1
	note A#, 1
	octave 5
	note D_, 2
	octave 4
	note A_, 2
	note __, 1
	note G#, 1
	note __, 1
	note G_, 1
	note __, 1
	note F_, 2
	note D_, 1
	note F_, 1
	note G_, 1
	note D_, 1
	note D_, 1
	octave 5
	note D_, 2
	octave 4
	note A_, 2
	note __, 1
	note G#, 1
	note __, 1
	note G_, 1
	note __, 1
	note F_, 2
	note D_, 1
	note F_, 1
	note G_, 1
	note C_, 1
	note C_, 1
	octave 5
	note D_, 2
	octave 4
	note A_, 2
	note __, 1
	note G#, 1
	note __, 1
	note G_, 1
	note __, 1
	note F_, 2
	note D_, 1
	note F_, 1
	note G_, 1
	octave 3
	note B_, 1
	note B_, 1
	octave 5
	note D_, 2
	octave 4
	note A_, 2
	note __, 1
	note G#, 1
	note __, 1
	note G_, 1
	note __, 1
	note F_, 2
	note D_, 1
	note F_, 1
	note G_, 1
	octave 3
	note A#, 1
	note A#, 1
	octave 5
	note D_, 2
	octave 4
	note A_, 2
	note __, 1
	note G#, 1
	note __, 1
	note G_, 1
	note __, 1
	note F_, 2
	note D_, 1
	note C_, 1
	note E_, 1
	note F_, 2
	note F_, 1
	note F_, 1
	note __, 1
	note F_, 1
	note __, 1
	note F_, 2
	note D_, 1
	note __, 1
	note D_, 5
	note F_, 2
	note F_, 1
	note F_, 1
	note __, 1
	note G_, 1
	note __, 1
	note G#, 2
	note G_, 2
	note D_, 1
	note F_, 1
	note G_, 1
	note __, 2
	note F_, 2
	note F_, 1
	note F_, 1
	note __, 1
	note G_, 1
	note __, 1
	note G#, 1
	note __, 1
	note A_, 1
	note __, 1
	octave 5
	note C_, 1
	note __, 1
	octave 4
	note A_, 3
	octave 5
	note D_, 2
	note D_, 2
	note D_, 1
	octave 4
	note A_, 1
	octave 5
	note D_, 1
	note C_, 9
	octave 4
	note A_, 2
	note A_, 1
	note A_, 1
	note __, 1
	note A_, 1
	note __, 1
	note A_, 2
	note G_, 1
	note __, 1
	note G_, 5
	note A_, 2
	note A_, 2
	note A_, 1
	note A_, 1
	note __, 1
	note G_, 1
	note __, 1
	note A_, 1
	note __, 1
	octave 5
	note D_, 2
	octave 4
	note A_, 1
	note G_, 2
	octave 5
	note D_, 2
	octave 4
	note A_, 2
	note G_, 2
	note F_, 2
	octave 5
	note C_, 2
	octave 4
	note G_, 2
	note F_, 2
	note E_, 2
	octave 3
	note A#, 2
	octave 4
	note D_, 1
	note E_, 2
	note F_, 2
	octave 5
	note C_, 9
	note __, 8
	octave 4
	note F_, 1
	note D_, 1
	note F_, 1
	note G_, 1
	note G#, 1
	note G_, 1
	note F_, 1
	note D_, 1
	note G#, 1
	note D_, 1
	note F_, 2
	note G_, 8
	note G_, 1
	note G#, 2
	note A_, 1
	octave 5
	note C_, 1
	note __, 1
	octave 4
	note A_, 1
	note G#, 1
	note G_, 1
	note F_, 1
	note D_, 1
	note E_, 1
	note F_, 2
	note G_, 2
	note A_, 2
	octave 5
	note C_, 2
	note C#, 2
	octave 4
	note G#, 1
	note __, 1
	note G#, 1
	note G_, 1
	note F_, 1
	note G_, 9
	note D_, 2
	note E_, 2
	note F_, 2
	octave 5
	note F_, 2
	note E_, 4
	note D_, 4
	note E_, 4
	note F_, 4
	note G_, 4
	note E_, 4
	note A_, 8
	note A_, 1
	note G#, 1
	note G_, 1
	note F#, 1
	note F_, 1
	note E_, 1
	note D#, 1
	note D_, 1
	note C#, 4
	note D_, 12
	octave 3
	note A#, 12
	octave 4
	note F_, 4
	note E_, 8
	note D_, 8
	note F_, 16
	note __, 16
	octave 3
	note A#, 12
	octave 4
	note F_, 4
	note E_, 8
	note D_, 8
	note D_, 16
	note D_, 6
	note C_, 1
	octave 3
	note A#, 1
	note A_, 1
	note G_, 1
	note F_, 1
	note E_, 1
	note D_, 4
	note A#, 12
	octave 4
	note F_, 4
	note E_, 8
	note D_, 8
	note F_, 16
	note G_, 1
	octave 5
	note D_, 1
	note F_, 1
	note D_, 1
	note G_, 2
	note F_, 2
	note D_, 1
	note C_, 1
	note __, 1
	octave 4
	note A_, 2
	note G_, 1
	note A_, 1
	octave 5
	note C_, 1
	octave 3
	note A#, 12
	octave 4
	note F_, 4
	note E_, 8
	note D_, 8
	note D_, 2
	octave 5
	note F_, 2
	note E_, 2
	note __, 1
	note C_, 1
	note __, 1
	note E_, 1
	note __, 1
	note D_, 2
	octave 4
	note G_, 1
	note A_, 1
	octave 5
	note C_, 1
	note __, 2
	note F_, 2
	note E_, 2
	note __, 1
	note C_, 1
	note __, 1
	note E_, 1
	note __, 1
	note D_, 2
	octave 4
	note G_, 1
	note A_, 1
	octave 5
	note C_, 1
	note __, 16
	note __, 16
	note __, 16
	note __, 16
	note __, 16
	note __, 16
	note __, 16
	note __, 16
	note __, 16
	note __, 16
	note __, 16
	note __, 16
	note __, 16
	note __, 16
	octave 4
	note D_, 1
	note D_, 1
	octave 5
	note D_, 2
	octave 4
	note A_, 2
	note __, 1
	note G#, 1
	note __, 1
	note G_, 1
	note __, 1
	note F_, 2
	note D_, 1
	note F_, 1
	note G_, 1
	note D_, 1
	note D_, 1
	octave 5
	note D_, 2
	octave 4
	note A_, 2
	note __, 1
	note G#, 1
	note __, 1
	note G_, 1
	note __, 1
	note F_, 2
	note D_, 1
	note F_, 1
	note G_, 1
	octave 3
	note A#, 1
	note A#, 1
	octave 5
	note D_, 2
	octave 4
	note A_, 2
	note __, 1
	note G#, 1
	note __, 1
	note G_, 1
	note __, 1
	note F_, 2
	note D_, 1
	note F_, 1
	note G_, 1
	note C_, 1
	note C_, 1
	octave 5
	note D_, 2
	octave 4
	note A_, 2
	note __, 1
	note G#, 1
	note __, 1
	note G_, 1
	note __, 1
	note F_, 2
	note D_, 1
	note F_, 1
	note G_, 1
	note D_, 1
	note D_, 1
	octave 5
	note D_, 2
	octave 4
	note A_, 2
	note __, 1
	note G#, 1
	note __, 1
	note G_, 1
	note __, 1
	note F_, 2
	note D_, 1
	note F_, 1
	note G_, 1
	note D_, 1
	note D_, 1
	octave 5
	note D_, 2
	octave 4
	note A_, 2
	note __, 1
	note G#, 1
	note __, 1
	note G_, 1
	note __, 1
	note F_, 2
	note D_, 1
	note F_, 1
	note G_, 1
	octave 3
	note A#, 1
	note A#, 1
	octave 5
	note D_, 2
	octave 4
	note A_, 2
	note __, 1
	note G#, 1
	note __, 1
	note G_, 1
	note __, 1
	note F_, 2
	note D_, 1
	note F_, 1
	note G_, 1
	note C_, 1
	note C_, 1
	octave 5
	note D_, 2
	octave 4
	note A_, 2
	note __, 1
	note G#, 1
	note __, 1
	note G_, 1
	note __, 1
	note F_, 2
	note D_, 1
	note F_, 1
	note G_, 1
	loopchannel 0, Music_JohtoTrainerBattle_Ch2_Loop


Music_JohtoTrainerBattle_Ch3:
	notetype $c, $26
	stereopanning $0f
Music_JohtoTrainerBattle_Ch3_Loop:
	note __, 16
	note __, 16
	note __, 16
	note __, 16
	octave 3
	note D_, 2
	note D_, 2
	note D_, 1
	note D_, 1
	note __, 1
	note D_, 1
	note __, 1
	note D_, 1
	note __, 1
	note D_, 1
	note D_, 1
	note D_, 1
	note D_, 2
	note C_, 2
	note C_, 2
	note C_, 1
	note C_, 1
	note __, 1
	note C_, 1
	note __, 1
	note C_, 1
	note __, 1
	note C_, 1
	note C_, 1
	note C_, 1
	note C_, 2
	octave 2
	note B_, 2
	note B_, 2
	note B_, 1
	note B_, 1
	note __, 1
	note B_, 1
	note __, 1
	note B_, 1
	note __, 1
	note B_, 1
	note B_, 1
	note B_, 1
	note B_, 2
	note A#, 2
	note A#, 2
	note A#, 1
	note A#, 1
	note __, 1
	octave 3
	note C_, 1
	note __, 1
	note C_, 1
	note __, 1
	note C_, 1
	note C_, 1
	note C_, 1
	note C_, 2
	octave 2
	note D_, 2
	note D_, 2
	note D_, 1
	note D_, 1
	note __, 1
	note D_, 1
	note __, 1
	note D_, 1
	note __, 1
	note D_, 1
	note D_, 1
	note D_, 1
	note D_, 1
	octave 3
	note D_, 1
	octave 2
	note C_, 2
	note C_, 2
	note C_, 1
	note C_, 1
	note __, 1
	note C_, 1
	note __, 1
	note C_, 1
	note __, 1
	note C_, 1
	note C_, 1
	note C_, 1
	note C_, 2
	octave 1
	note B_, 2
	note B_, 2
	note B_, 1
	note B_, 1
	note __, 1
	note B_, 1
	note __, 1
	note B_, 1
	note __, 1
	note B_, 1
	note B_, 1
	note B_, 1
	note B_, 2
	note A#, 2
	note A#, 2
	note A#, 1
	note A#, 1
	note __, 1
	octave 2
	note C_, 1
	note __, 1
	note C_, 1
	note __, 1
	note C_, 1
	note C_, 1
	note C_, 1
	note C_, 2
	note D_, 2
	note D_, 2
	note D_, 1
	note D_, 1
	note __, 1
	note D_, 1
	note __, 1
	note D_, 1
	note __, 1
	note D_, 1
	note D_, 1
	note D_, 1
	note D_, 1
	octave 3
	note D_, 1
	octave 2
	note C_, 2
	note C_, 2
	note C_, 1
	note C_, 1
	note __, 1
	note C_, 1
	note __, 1
	note C_, 1
	note __, 1
	note C_, 1
	note C_, 1
	note C_, 1
	note C_, 2
	octave 1
	note B_, 2
	note B_, 2
	note B_, 1
	note B_, 1
	note __, 1
	note B_, 1
	note __, 1
	note B_, 1
	note __, 1
	note B_, 1
	note B_, 1
	note B_, 1
	note B_, 2
	note A#, 2
	note A#, 2
	note A#, 1
	note A#, 1
	note __, 1
	octave 2
	note C_, 1
	note __, 1
	note C_, 1
	note __, 1
	note C_, 1
	note C_, 1
	note C_, 1
	note C_, 2
	octave 3
	note D_, 2
	note D_, 2
	note D_, 1
	note D_, 1
	note __, 1
	note D_, 1
	note __, 1
	note D_, 1
	note __, 1
	note D_, 1
	note D_, 1
	note D_, 3
	note C_, 2
	note C_, 2
	note C_, 1
	note C_, 1
	note __, 1
	note C_, 1
	note __, 1
	note C_, 1
	note __, 1
	note C_, 1
	note C_, 1
	note C_, 1
	octave 4
	note C_, 1
	octave 3
	note C_, 1
	octave 2
	note B_, 2
	note B_, 2
	note B_, 1
	note B_, 1
	note __, 1
	note B_, 1
	note __, 1
	note B_, 1
	note __, 1
	note B_, 1
	note B_, 1
	note B_, 3
	note A#, 2
	note A#, 2
	note A#, 1
	note A#, 1
	note __, 1
	octave 3
	note C_, 1
	note __, 1
	note C_, 1
	note __, 1
	note C_, 1
	note C_, 1
	note C_, 1
	octave 4
	note C_, 1
	octave 3
	note C_, 1
	note D_, 1
	note D_, 1
	octave 4
	note D_, 2
	octave 3
	note A_, 2
	note __, 1
	note G#, 1
	note __, 1
	note G_, 1
	note __, 1
	note F_, 2
	note D_, 1
	note F_, 1
	note G_, 1
	note C_, 1
	note C_, 1
	octave 4
	note D_, 2
	octave 3
	note A_, 2
	note __, 1
	note G#, 1
	note __, 1
	note G_, 1
	note __, 1
	note F_, 2
	note D_, 1
	note F_, 1
	note G_, 1
	octave 2
	note B_, 1
	note B_, 1
	octave 4
	note D_, 2
	octave 3
	note A_, 2
	note __, 1
	note G#, 1
	note __, 1
	note G_, 1
	note __, 1
	note F_, 2
	note D_, 1
	note F_, 1
	note G_, 1
	octave 2
	note A#, 1
	note A#, 1
	octave 4
	note D_, 2
	octave 3
	note A_, 2
	octave 2
	note B_, 1
	octave 3
	note C_, 2
	note G_, 1
	note __, 1
	note F_, 2
	note D_, 1
	note F_, 1
	note G_, 1
	octave 1
	note A#, 2
	note A#, 2
	note A#, 1
	note A#, 1
	note __, 1
	note A#, 1
	note __, 1
	note A#, 1
	note __, 1
	note A#, 1
	note A#, 1
	note A#, 1
	octave 2
	note A#, 2
	note C_, 2
	note C_, 2
	note C_, 1
	note C_, 1
	note __, 1
	note C_, 1
	note __, 1
	note C_, 1
	note __, 1
	note C_, 1
	note C_, 1
	note C_, 1
	octave 3
	note C_, 2
	octave 2
	note D_, 2
	note D_, 2
	note D_, 1
	note D_, 1
	note __, 1
	note D_, 1
	note __, 1
	note D_, 1
	note __, 1
	note D_, 1
	note D_, 1
	note D_, 1
	octave 3
	note D_, 2
	octave 2
	note C#, 2
	note C#, 2
	note C#, 1
	note C#, 1
	note __, 1
	note D#, 2
	note D#, 1
	note __, 1
	note D#, 1
	note D#, 1
	note D#, 1
	octave 3
	note D#, 2
	octave 1
	note A#, 2
	note A#, 2
	note A#, 1
	note A#, 1
	note __, 1
	note A#, 1
	note __, 1
	note A#, 1
	note __, 1
	note A#, 1
	note A#, 1
	note A#, 1
	octave 2
	note A#, 2
	note C_, 2
	note C_, 2
	note C_, 1
	note C_, 1
	note __, 1
	note C_, 1
	note __, 1
	note C_, 1
	note __, 1
	note C_, 1
	note C_, 1
	note C_, 1
	octave 3
	note C_, 2
	octave 2
	note D_, 2
	note D_, 2
	note D_, 1
	note D_, 1
	note __, 1
	note D_, 1
	note __, 1
	note D_, 1
	note __, 1
	note D_, 1
	note D_, 1
	note D_, 1
	octave 3
	note D_, 2
	octave 2
	note C#, 2
	note C#, 2
	note C#, 1
	note C#, 1
	note __, 1
	note D#, 2
	note D#, 1
	note __, 1
	note D#, 1
	note D#, 1
	note D#, 1
	octave 3
	note D#, 2
	octave 1
	note A#, 2
	note A#, 2
	note A#, 1
	note A#, 1
	note __, 1
	note A#, 1
	note __, 1
	note A#, 1
	note __, 1
	note A#, 1
	note A#, 1
	note A#, 1
	note A#, 2
	octave 2
	note C_, 2
	note C_, 2
	note C_, 1
	note C_, 1
	note __, 1
	note C_, 1
	note __, 1
	note C_, 1
	note __, 1
	note C_, 1
	note C_, 1
	note C_, 1
	note C_, 2
	octave 1
	note B_, 2
	note B_, 2
	note B_, 1
	note B_, 1
	note __, 1
	note B_, 1
	note __, 1
	note B_, 1
	note __, 1
	note B_, 1
	note B_, 1
	note B_, 1
	note B_, 2
	note B_, 2
	note B_, 2
	note B_, 1
	note B_, 1
	note __, 1
	note B_, 1
	note __, 1
	note B_, 1
	note __, 1
	note B_, 1
	note B_, 1
	note B_, 1
	note B_, 2
	note A#, 2
	note A#, 2
	note A#, 1
	note A#, 1
	note __, 1
	note A#, 1
	note __, 1
	note A#, 1
	note __, 1
	note A#, 1
	note A#, 1
	note A#, 1
	note A#, 2
	octave 2
	note C_, 2
	note C_, 2
	note C_, 1
	note C_, 1
	note __, 1
	note C_, 1
	note __, 1
	note C_, 1
	note __, 1
	note C_, 1
	note C_, 1
	note C_, 1
	note C_, 2
	note D_, 2
	note D_, 2
	note D_, 1
	note D_, 1
	note __, 1
	note D_, 1
	note __, 1
	note D_, 1
	note __, 1
	note D_, 1
	note D_, 1
	note D_, 1
	note D_, 2
	note D_, 2
	note D_, 2
	note D_, 1
	note D_, 1
	note __, 1
	note D_, 1
	note __, 1
	note D_, 1
	note __, 1
	note D_, 1
	note D_, 1
	note D_, 1
	note D_, 2
	note __, 1
	octave 3
	note D_, 1
	octave 4
	note D_, 2
	octave 3
	note A_, 2
	note __, 1
	note G#, 1
	note __, 1
	note G_, 1
	note __, 1
	note F_, 2
	note D_, 1
	note F_, 1
	note G_, 1
	note C_, 1
	note C_, 1
	octave 4
	note D_, 2
	octave 3
	note A_, 2
	note __, 1
	note G#, 1
	note __, 1
	note G_, 1
	note __, 1
	note F_, 2
	note D_, 1
	note F_, 1
	note G_, 1
	octave 2
	note B_, 1
	note B_, 1
	octave 4
	note D_, 2
	octave 3
	note A_, 2
	note __, 1
	note G#, 1
	note __, 1
	note G_, 1
	note __, 1
	note F_, 2
	note D_, 1
	note F_, 1
	note G_, 1
	octave 2
	note B_, 1
	note B_, 1
	octave 4
	note D_, 2
	octave 3
	note A_, 2
	note __, 1
	note G#, 1
	note __, 1
	note G_, 1
	note __, 1
	note F_, 2
	note D_, 1
	note F_, 1
	note G_, 1
	note __, 1
	note D_, 1
	octave 4
	note D_, 2
	octave 3
	note A_, 2
	note __, 1
	note G#, 1
	note __, 1
	note G_, 1
	note __, 1
	note F_, 2
	note D_, 1
	note F_, 1
	note G_, 1
	note C_, 1
	note C_, 1
	octave 4
	note D_, 2
	octave 3
	note A_, 2
	note __, 1
	note G#, 1
	note __, 1
	note G_, 1
	note __, 1
	note F_, 2
	note D_, 1
	note F_, 1
	note G_, 1
	note D_, 1
	note D_, 1
	octave 4
	note D_, 2
	octave 3
	note A_, 2
	note __, 1
	note G#, 1
	note __, 1
	note G_, 1
	note __, 1
	note F_, 2
	note D_, 1
	note F_, 1
	note G_, 1
	note D_, 1
	note D_, 1
	octave 4
	note D_, 2
	octave 3
	note A_, 2
	note __, 1
	note G#, 1
	note __, 1
	note G_, 1
	note __, 1
	note F_, 2
	note D_, 1
	note F_, 1
	note G_, 1
	octave 2
	note A#, 2
	note A#, 2
	note A#, 1
	note A#, 1
	note __, 1
	note A#, 1
	note __, 1
	note A#, 1
	note __, 1
	note A#, 1
	note A#, 1
	note A#, 1
	note A#, 2
	octave 3
	note C_, 2
	note C_, 2
	note C_, 1
	note C_, 1
	note __, 1
	note C_, 1
	note __, 1
	note C_, 1
	note __, 1
	note C_, 1
	note C_, 1
	note C_, 1
	note C_, 1
	octave 2
	note C_, 1
	octave 3
	note D_, 2
	note D_, 2
	note D_, 1
	note D_, 1
	note __, 1
	note C#, 1
	note __, 1
	note C#, 1
	note __, 1
	note C#, 1
	note C#, 1
	note C#, 1
	note C#, 2
	note C_, 2
	note C_, 2
	note C_, 1
	note C_, 1
	note __, 1
	octave 2
	note B_, 1
	note __, 1
	note B_, 1
	note __, 1
	note B_, 1
	note B_, 1
	note B_, 1
	note B_, 2
	note A#, 2
	note A#, 2
	note A#, 1
	note A#, 1
	note __, 1
	note A#, 1
	note __, 1
	note A#, 1
	note __, 1
	note A#, 1
	note A#, 1
	note A#, 1
	note A#, 2
	octave 3
	note C_, 2
	note C_, 2
	note C_, 1
	note C_, 1
	note __, 1
	note C_, 1
	note __, 1
	note C_, 1
	note __, 1
	note C_, 1
	note C_, 1
	note C_, 1
	note C_, 1
	octave 2
	note C_, 1
	octave 3
	note D_, 2
	note D_, 2
	note D_, 1
	note D_, 1
	note __, 1
	note D_, 1
	note __, 1
	note D_, 1
	note __, 1
	note D_, 1
	note D_, 1
	note D_, 1
	note D_, 2
	note D_, 2
	note D_, 2
	note D_, 1
	note D_, 1
	note __, 1
	note D_, 1
	note __, 1
	note D_, 1
	note __, 1
	note D_, 1
	note D_, 1
	note D_, 1
	note D_, 2
	octave 2
	note A#, 2
	note A#, 2
	note A#, 1
	note A#, 1
	note __, 1
	note A#, 1
	note __, 1
	note A#, 1
	note __, 1
	note A#, 1
	note A#, 1
	note A#, 1
	note A#, 2
	octave 3
	note C_, 2
	note C_, 2
	note C_, 1
	note C_, 1
	note __, 1
	note C_, 1
	note __, 1
	note C_, 1
	note __, 1
	note C_, 1
	note C_, 1
	note C_, 1
	note C_, 1
	octave 2
	note C_, 1
	octave 3
	note D_, 2
	note D_, 2
	note D_, 1
	note D_, 1
	note __, 1
	note C#, 1
	note __, 1
	note C#, 1
	note __, 1
	note C#, 1
	note C#, 1
	note C#, 1
	note C#, 2
	note C_, 2
	note C_, 2
	note C_, 1
	note C_, 1
	note __, 1
	octave 2
	note B_, 1
	note __, 1
	note B_, 1
	note __, 1
	note B_, 1
	note B_, 1
	note B_, 1
	note B_, 2
	note A#, 2
	note A#, 2
	note A#, 1
	note A#, 1
	note __, 1
	note A#, 1
	note __, 1
	note A#, 1
	note __, 1
	note A#, 1
	note A#, 1
	note A#, 1
	note A#, 2
	octave 3
	note C_, 2
	note C_, 2
	note C_, 1
	note C_, 1
	note __, 1
	note C_, 1
	note __, 1
	note C_, 1
	note __, 1
	note C_, 1
	note C_, 1
	note C_, 1
	note C_, 1
	octave 2
	note C_, 1
	octave 3
	note D_, 2
	note D_, 2
	note D_, 1
	note D_, 1
	note __, 1
	note D_, 1
	note __, 1
	note D_, 1
	note __, 1
	note D_, 1
	note D_, 1
	note D_, 1
	note D_, 2
	note D_, 2
	note D_, 2
	note D_, 1
	note D_, 1
	note __, 1
	note D_, 1
	note __, 1
	note D_, 1
	note __, 1
	note D_, 1
	note D_, 1
	note D_, 1
	note D_, 2
	note __, 16
	note __, 16
	note __, 16
	note __, 16
	note __, 16
	note __, 16
	loopchannel 0, Music_JohtoTrainerBattle_Ch3_Loop


Music_JohtoTrainerBattle_Ch4:
	notetype $c
	togglenoise 3
Music_JohtoTrainerBattle_Ch4_Loop:
	note __, 16
	note __, 16
	note __, 16
	note __, 16
	note __, 16
	note __, 16
	note __, 16
	note C_, 2
	note __, 2
	note C_, 2
	note __, 2
	note C_, 2
	note C_, 2
	note C_, 2
	note C_, 2
	note F_, 2
	note C_, 2
	note F_, 2
	note C_, 2
	note F_, 2
	note C_, 2
	note F_, 2
	note C_, 2
	note F_, 2
	note C_, 2
	note F_, 2
	note C_, 2
	note F_, 2
	note C_, 2
	note F_, 2
	note C_, 2
	note F_, 2
	note C_, 2
	note F_, 2
	note C_, 2
	note F_, 2
	note C_, 2
	note F_, 2
	note C_, 2
	note F_, 2
	note C_, 2
	note F_, 2
	note C_, 2
	note F_, 2
	note C_, 2
	note F_, 2
	note C_, 2
	note F_, 2
	note C_, 2
	note F_, 2
	note C_, 2
	note F_, 2
	note C_, 2
	note F_, 2
	note C_, 2
	note F_, 2
	note C_, 2
	note F_, 2
	note C_, 2
	note F_, 2
	note C_, 2
	note F_, 2
	note C_, 2
	note F_, 2
	note C_, 2
	note F_, 2
	note C_, 2
	note F_, 2
	note C_, 2
	note F_, 2
	note C_, 2
	note F_, 2
	note C_, 2
	note F_, 2
	note C_, 2
	note F_, 2
	note C_, 2
	note F_, 2
	note C_, 1
	note C_, 1
	note F_, 1
	note __, 1
	note C_, 2
	note F_, 1
	note F_, 1
	note C_, 1
	note F_, 1
	note __, 1
	note F_, 1
	note C_, 2
	note F_, 1
	note F_, 1
	note C_, 2
	note F_, 1
	note __, 1
	note C_, 2
	note F_, 1
	note F_, 1
	note C_, 1
	note F_, 1
	note __, 1
	note F_, 1
	note C_, 2
	note F_, 1
	note F_, 1
	note C_, 2
	note F_, 1
	note __, 1
	note C_, 2
	note F_, 1
	note F_, 1
	note C_, 1
	note F_, 1
	note __, 1
	note F_, 1
	note C_, 2
	note F_, 1
	note F_, 1
	note C_, 2
	note F_, 1
	note __, 1
	note C_, 2
	note F_, 1
	note F_, 1
	note C_, 1
	note F_, 1
	note C_, 3
	note C_, 3
	note C_, 2
	note F_, 1
	note __, 1
	note C_, 2
	note F_, 1
	note F_, 1
	note C_, 1
	note F_, 1
	note __, 1
	note F_, 1
	note C_, 2
	note F_, 1
	note F_, 1
	note C_, 2
	note F_, 1
	note __, 1
	note C_, 2
	note F_, 1
	note F_, 1
	note C_, 1
	note F_, 1
	note __, 1
	note F_, 1
	note C_, 2
	note F_, 1
	note F_, 1
	note C_, 2
	note F_, 1
	note __, 1
	note C_, 2
	note F_, 1
	note F_, 1
	note C_, 1
	note F_, 1
	note __, 1
	note F_, 1
	note C_, 2
	note F_, 1
	note F_, 1
	note C_, 2
	note F_, 1
	note __, 1
	note C_, 2
	note F_, 1
	note F_, 1
	note C_, 1
	note F_, 1
	note C_, 3
	note C_, 3
	note C_, 2
	note F_, 1
	note __, 1
	note C_, 2
	note F_, 1
	note F_, 1
	note C_, 1
	note F_, 1
	note __, 1
	note F_, 1
	note C_, 2
	note F_, 1
	note F_, 1
	note C_, 2
	note F_, 1
	note __, 1
	note C_, 2
	note F_, 1
	note F_, 1
	note C_, 1
	note F_, 1
	note __, 1
	note F_, 1
	note C_, 2
	note F_, 1
	note F_, 1
	note C_, 2
	note F_, 1
	note __, 1
	note C_, 2
	note F_, 1
	note F_, 1
	note C_, 1
	note F_, 1
	note __, 1
	note F_, 1
	note C_, 2
	note F_, 1
	note F_, 1
	note C_, 2
	note F_, 1
	note __, 1
	note C_, 2
	note F_, 1
	note F_, 1
	note C_, 1
	note F_, 1
	note C_, 3
	note C_, 3
	note C_, 2
	note F_, 1
	note __, 1
	note C_, 2
	note F_, 1
	note F_, 1
	note C_, 1
	note F_, 1
	note __, 1
	note F_, 1
	note C_, 2
	note F_, 1
	note F_, 1
	note C_, 2
	note F_, 1
	note __, 1
	note C_, 2
	note F_, 1
	note F_, 1
	note C_, 1
	note F_, 1
	note __, 1
	note F_, 1
	note C_, 2
	note F_, 1
	note F_, 1
	note C_, 2
	note F_, 1
	note __, 1
	note C_, 2
	note F_, 1
	note F_, 1
	note C_, 1
	note F_, 1
	note __, 1
	note F_, 1
	note C_, 2
	note F_, 1
	note F_, 1
	note C_, 2
	note F_, 1
	note __, 1
	note C_, 2
	note F_, 1
	note F_, 1
	note C_, 1
	note F_, 1
	note C_, 3
	note C_, 3
	note C_, 2
	note F_, 1
	note __, 1
	note C_, 2
	note F_, 1
	note F_, 1
	note C_, 1
	note F_, 1
	note __, 1
	note F_, 1
	note C_, 2
	note F_, 1
	note F_, 1
	note C_, 2
	note F_, 1
	note __, 1
	note C_, 2
	note F_, 1
	note F_, 1
	note C_, 1
	note F_, 1
	note __, 1
	note F_, 1
	note C_, 2
	note F_, 1
	note F_, 1
	note C_, 2
	note F_, 1
	note __, 1
	note C_, 2
	note F_, 1
	note F_, 1
	note C_, 1
	note F_, 1
	note __, 1
	note F_, 1
	note C_, 2
	note F_, 1
	note F_, 1
	note C_, 2
	note F_, 1
	note __, 1
	note C_, 2
	note F_, 1
	note F_, 1
	note C_, 1
	note F_, 1
	note __, 1
	note F_, 1
	note C_, 2
	note F_, 1
	note F_, 1
	note C_, 2
	note F_, 1
	note __, 1
	note C_, 2
	note F_, 1
	note F_, 1
	note C_, 1
	note F_, 1
	note __, 1
	note F_, 1
	note C_, 2
	note F_, 1
	note F_, 1
	note C_, 2
	note F_, 1
	note __, 1
	note C_, 2
	note F_, 1
	note F_, 1
	note C_, 1
	note F_, 1
	note __, 1
	note F_, 1
	note C_, 2
	note F_, 1
	note F_, 1
	note C_, 2
	note F_, 1
	note __, 1
	note C_, 2
	note F_, 1
	note F_, 1
	note C_, 1
	note F_, 1
	note __, 1
	note F_, 1
	note C_, 2
	note F_, 1
	note F_, 1
	note C_, 2
	note F_, 1
	note __, 1
	note C_, 2
	note F_, 1
	note F_, 1
	note C_, 1
	note F_, 1
	note C_, 3
	note C_, 3
	note C_, 2
	note F_, 2
	note C_, 2
	note F_, 2
	note C_, 2
	note F_, 2
	note C_, 2
	note F_, 2
	note C_, 2
	note F_, 2
	note C_, 2
	note F_, 2
	note C_, 2
	note F_, 2
	note C_, 2
	note F_, 2
	note C_, 2
	note F_, 2
	note C_, 2
	note F_, 2
	note C_, 2
	note F_, 2
	note C_, 2
	note F_, 2
	note C_, 2
	note F_, 2
	note C_, 2
	note F_, 2
	note C_, 2
	note F_, 2
	note C_, 2
	note F_, 2
	note C_, 2
	note F_, 2
	note C_, 2
	note F_, 2
	note C_, 2
	note F_, 2
	note C_, 2
	note F_, 2
	note C_, 2
	note F_, 2
	note C_, 2
	note F_, 2
	note C_, 2
	note F_, 2
	note C_, 2
	note F_, 2
	note C_, 2
	note F_, 2
	note C_, 2
	note F_, 2
	note C_, 2
	note F_, 2
	note C_, 2
	note F_, 2
	note C_, 2
	note F_, 2
	note C_, 2
	note F_, 2
	note C_, 2
	note F_, 2
	note C_, 2
	note F_, 2
	note C_, 2
	note F_, 2
	note C_, 2
	note F_, 2
	note C_, 2
	note F_, 2
	note C_, 2
	note F_, 2
	note C_, 2
	note F_, 2
	note C_, 2
	note F_, 2
	note C_, 2
	note F_, 2
	note C_, 2
	note F_, 2
	note C_, 2
	note F_, 2
	note C_, 2
	note F_, 2
	note C_, 2
	note F_, 2
	note C_, 2
	note F_, 2
	note C_, 2
	note F_, 2
	note C_, 2
	note F_, 2
	note C_, 2
	note F_, 2
	note C_, 2
	note F_, 2
	note C_, 2
	note F_, 2
	note C_, 2
	note F_, 2
	note C_, 2
	note F_, 2
	note C_, 2
	note F_, 2
	note C_, 2
	note F_, 2
	note C_, 2
	note F_, 2
	note C_, 2
	note F_, 2
	note C_, 2
	note F_, 2
	note C_, 2
	note F_, 2
	note C_, 2
	note F_, 2
	note C_, 2
	note F_, 2
	note C_, 2
	note F_, 2
	note C_, 2
	note F_, 2
	note C_, 2
	note F_, 2
	note C_, 2
	note F_, 2
	note C_, 2
	note F_, 2
	note C_, 2
	note F_, 2
	note C_, 2
	note F_, 2
	note C_, 2
	note F_, 2
	note C_, 2
	note F_, 2
	note C_, 2
	note F_, 2
	note C_, 2
	note F_, 2
	note C_, 2
	note F_, 2
	note C_, 2
	note F_, 2
	note C_, 2
	note F_, 2
	note C_, 2
	note F_, 2
	note C_, 2
	note F_, 2
	note C_, 2
	note F_, 2
	note C_, 2
	note F_, 2
	note C_, 2
	note F_, 2
	note C_, 2
	note F_, 2
	note C_, 2
	note F_, 2
	note C_, 2
	note F_, 2
	note C_, 2
	note F_, 2
	note C_, 2
	note F_, 2
	note C_, 2
	note F_, 2
	note C_, 2
	note F_, 2
	note C_, 2
	note F_, 2
	note C_, 2
	note F_, 2
	note C_, 2
	note F_, 2
	note C_, 2
	note F_, 1
	note __, 1
	note C_, 2
	note F_, 1
	note F_, 1
	note C_, 1
	note F_, 1
	note __, 1
	note F_, 1
	note C_, 2
	note F_, 1
	note F_, 1
	note C_, 2
	note F_, 1
	note __, 1
	note C_, 2
	note F_, 1
	note F_, 1
	note C_, 1
	note F_, 1
	note __, 1
	note F_, 1
	note C_, 2
	note F_, 1
	note F_, 1
	note C_, 2
	note C_, 4
	note __, 4
	note C_, 4
	note __, 4
	note C_, 4
	note __, 4
	note C_, 4
	note __, 4
	note C_, 4
	note __, 4
	note C_, 4
	note __, 4
	note C_, 4
	note __, 4
	note C_, 4
	note __, 4
	note C_, 4
	note __, 4
	note C_, 4
	note __, 4
	note C_, 4
	note __, 4
	note C_, 4
	note __, 4
	loopchannel 0, Music_JohtoTrainerBattle_Ch4_Loop


