Music_MainMenu:
	musicheader 3, 1, Music_MainMenu_Ch1
	musicheader 1, 2, Music_MainMenu_Ch2
	musicheader 1, 3, Music_MainMenu_Ch3


Music_MainMenu_Ch1:
	tempo 164
	volume $77
	notetype $c, $00
	dutycycle $0
	intensity $95
Music_MainMenu_Ch1_Loop:
	octave 4
	note __, 1
	note __, 1
	note __, 2
	note __, 1
	note __, 1
	note __, 2
	note __, 1
	note D#, 4
	note __, 1
	note __, 2
	note C_, 4
	octave 3
	note G_, 4
	note F#, 4
	octave 4
	note C_, 1
	note D_, 2
	note __, 1
	octave 3
	note D#, 1
	note D#, 1
	note D_, 1
	note D#, 1
	note __, 4
	note __, 4
	octave 4
	note C_, 1
	note D_, 2
	note __, 1
	octave 3
	note D#, 1
	note D#, 1
	note D_, 1
	note D#, 1
	note __, 4
	note __, 4
	octave 4
	note C_, 1
	octave 3
	note B_, 2
	note __, 1
	octave 4
	note C_, 16
	note C_, 4
	octave 3
	note G_, 4
	note F#, 4
	octave 4
	note C_, 1
	note D_, 2
	note __, 1
	octave 3
	note D#, 1
	note D#, 1
	note D_, 1
	note D#, 1
	note __, 4
	note __, 4
	octave 4
	note C_, 1
	note D_, 2
	note __, 1
	octave 3
	note D#, 1
	note D#, 1
	note D_, 1
	note D#, 1
	note __, 4
	note __, 4
	octave 4
	note C_, 1
	octave 3
	note B_, 2
	note __, 1
	octave 4
	note C_, 16
	octave 3
	note B_, 4
	note F#, 4
	note F_, 4
	note B_, 1
	octave 4
	note C#, 2
	note __, 1
	octave 3
	note D_, 1
	note D_, 1
	note C#, 1
	note D_, 1
	note __, 4
	note __, 4
	note B_, 1
	octave 4
	note C#, 2
	note __, 1
	octave 3
	note D_, 1
	note D_, 1
	note C#, 1
	note D_, 1
	note __, 4
	note __, 4
	note B_, 1
	note A#, 2
	note __, 1
	note B_, 16
	note B_, 4
	note F#, 4
	note F_, 4
	note B_, 1
	octave 4
	note C#, 2
	note __, 1
	octave 3
	note D_, 1
	note D_, 1
	note C#, 1
	note D_, 1
	note __, 4
	note __, 4
	note B_, 1
	octave 4
	note C#, 2
	note __, 1
	octave 3
	note D_, 1
	note D_, 1
	note C#, 1
	note D_, 1
	note __, 4
	note __, 4
	note B_, 1
	note A#, 2
	note __, 1
	note B_, 16
	octave 4
	note D#, 3
	note F_, 3
	note D#, 3
	note G_, 2
	note F_, 2
	note D#, 2
	note __, 1
	octave 5
	note F_, 1
	note D#, 1
	note D_, 2
	note D_, 1
	note D#, 1
	note F_, 2
	note G_, 2
	note F_, 1
	note G_, 3
	note __, 2
	octave 3
	note G#, 8
	note A#, 8
	note B_, 8
	octave 4
	note D_, 8
	note D#, 3
	note F_, 3
	note D#, 3
	note G_, 2
	note F_, 2
	note D#, 2
	note __, 1
	octave 5
	note F_, 1
	note D#, 1
	note D_, 2
	note D_, 1
	note D#, 1
	note F_, 2
	note C_, 2
	octave 4
	note A#, 1
	octave 5
	note C_, 3
	note __, 2
	octave 4
	note D#, 4
	note C_, 4
	note D#, 4
	note D_, 4
	octave 3
	note B_, 1
	octave 4
	note C_, 2
	note D_, 2
	note F_, 2
	note G_, 8
	note __, 1
	loopchannel 0, Music_MainMenu_Ch1_Loop


Music_MainMenu_Ch2:
	volume $77
	notetype $c, $00
	dutycycle $2
	intensity $95
Music_MainMenu_Ch2_Loop:
	octave 4
	note __, 4
	note A#, 1
	note A_, 1
	note G_, 1
	note A_, 1
	note __, 1
	note F_, 4
	note __, 1
	note __, 2
	note __, 4
	note A#, 1
	note A_, 1
	note G_, 1
	note A_, 1
	note __, 1
	note F_, 4
	note __, 1
	note __, 2
	note __, 4
	note A#, 1
	note A_, 1
	note G_, 1
	note A_, 1
	note __, 1
	note F_, 4
	note __, 1
	note __, 2
	note __, 4
	note A#, 1
	note A_, 1
	note G_, 1
	note A_, 1
	note __, 1
	note F_, 4
	note __, 1
	note __, 2
	note __, 4
	note A#, 1
	note A_, 1
	note G_, 1
	note A_, 1
	note __, 1
	note F_, 4
	note __, 1
	note __, 2
	note __, 4
	note A#, 1
	note A_, 1
	note G_, 1
	note A_, 1
	note __, 1
	note F_, 4
	note __, 1
	note __, 2
	note __, 4
	note A#, 1
	note A_, 1
	note G_, 1
	note A_, 1
	note __, 1
	note F_, 4
	note __, 1
	note __, 2
	note __, 4
	note A#, 1
	note A_, 1
	note G_, 1
	note A_, 1
	note __, 1
	note F_, 4
	note __, 1
	note __, 2
	note __, 4
	note A#, 1
	note A_, 1
	note G_, 1
	note A_, 1
	note __, 1
	note F_, 4
	note __, 1
	note __, 2
	note __, 4
	note A_, 1
	note G#, 1
	note F#, 1
	note G#, 1
	note __, 1
	note E_, 4
	note __, 1
	note __, 2
	note __, 4
	note A_, 1
	note G#, 1
	note F#, 1
	note G#, 1
	note __, 1
	note E_, 4
	note __, 1
	note __, 2
	note __, 4
	note A_, 1
	note G#, 1
	note F#, 1
	note G#, 1
	note __, 1
	note E_, 4
	note __, 1
	note __, 2
	note __, 4
	note A_, 1
	note G#, 1
	note F#, 1
	note G#, 1
	note __, 1
	note E_, 4
	note __, 1
	note __, 2
	note __, 4
	note A_, 1
	note G#, 1
	note F#, 1
	note G#, 1
	note __, 1
	note E_, 4
	note __, 1
	note __, 2
	note __, 4
	note A_, 1
	note G#, 1
	note F#, 1
	note G#, 1
	note __, 1
	note E_, 4
	note __, 1
	note __, 2
	note __, 4
	note A_, 1
	note G#, 1
	note F#, 1
	note G#, 1
	note __, 1
	note E_, 4
	note __, 1
	note __, 2
	note __, 4
	note A_, 1
	note G#, 1
	note F#, 1
	note G#, 1
	note __, 1
	note E_, 4
	note __, 1
	note __, 2
	note C_, 8
	octave 3
	note B_, 8
	note A#, 8
	note A_, 8
	octave 2
	note G#, 8
	note A#, 8
	note B_, 16
	octave 3
	note C_, 8
	octave 2
	note B_, 8
	note A#, 8
	note A_, 8
	note G#, 8
	note A#, 8
	note B_, 16
	loopchannel 0, Music_MainMenu_Ch2_Loop


Music_MainMenu_Ch3:
	notetype $c, $00
	intensity $13
Music_MainMenu_Ch3_Loop:
	octave 4
	octave 3
	note C_, 4
	octave 2
	note G_, 4
	note F#, 4
	note F_, 4
	octave 3
	note C_, 4
	octave 2
	note G_, 4
	note F#, 4
	note F_, 4
	octave 3
	note C_, 4
	octave 2
	note G_, 4
	note F#, 4
	note F_, 4
	octave 3
	note C_, 4
	octave 2
	note G_, 4
	note F#, 4
	note F_, 4
	octave 3
	note C_, 4
	octave 2
	note G_, 4
	note F#, 4
	note F_, 4
	octave 3
	note C_, 4
	octave 2
	note G_, 4
	note F#, 4
	note F_, 4
	octave 3
	note C_, 4
	octave 2
	note G_, 4
	note F#, 4
	note F_, 4
	octave 3
	note C_, 4
	octave 2
	note G_, 4
	note F#, 4
	note F_, 4
	octave 3
	note C_, 4
	octave 2
	note G_, 4
	note F#, 4
	note F_, 4
	note B_, 4
	note F#, 4
	note F_, 4
	note E_, 4
	note B_, 4
	note F#, 4
	note F_, 4
	note E_, 4
	note B_, 4
	note F#, 4
	note F_, 4
	note E_, 4
	note B_, 4
	note F#, 4
	note F_, 4
	note E_, 4
	note B_, 4
	note F#, 4
	note F_, 4
	note E_, 4
	note B_, 4
	note F#, 4
	note F_, 4
	note E_, 4
	note B_, 4
	note F#, 4
	note F_, 4
	note E_, 4
	note B_, 4
	note F#, 4
	note F_, 4
	note E_, 4
	octave 3
	note C_, 8
	octave 2
	note B_, 8
	note A#, 8
	note A_, 8
	note __, 16
	note __, 16
	octave 3
	note G_, 1
	note F_, 1
	note D#, 1
	note F_, 1
	note D#, 1
	note D_, 1
	note D#, 1
	note F_, 1
	note G_, 1
	note F_, 1
	note D#, 1
	note F_, 1
	note D#, 1
	note D_, 1
	note D#, 1
	note F_, 1
	note G_, 1
	note F_, 1
	note D#, 1
	note F_, 1
	note D#, 1
	note D_, 1
	note D#, 1
	note F_, 1
	note __, 1
	note A#, 1
	octave 4
	note C_, 2
	octave 3
	note F#, 2
	note F_, 1
	note D#, 1
	octave 4
	note G#, 8
	note A#, 8
	note B_, 8
	octave 5
	note D_, 8
	loopchannel 0, Music_MainMenu_Ch3_Loop


