Music_Mom:
	musicheader 3, 1, Music_Mom_Ch1
	musicheader 1, 2, Music_Mom_Ch2
	musicheader 1, 3, Music_Mom_Ch3


Music_Mom_Ch1:
	tempo 160
	volume $77
	notetype $c, $00
	dutycycle $2
	intensity $95
	stereopanning $0f
Music_Mom_Ch1_Loop:
	octave 4
	note __, 4
	octave 3
	note E_, 8
	note G_, 4
	note __, 4
	note F_, 8
	note C_, 8
	note C_, 8
	octave 2
	note A_, 4
	note B_, 4
	octave 3
	note C_, 12
	note __, 4
	note C_, 8
	note C_, 6
	note __, 2
	note D_, 8
	note E_, 8
	note E_, 8
	note E_, 4
	note D_, 4
	note D_, 12
	note __, 4
	note G_, 4
	note __, 4
	note D_, 8
	note D_, 6
	note C_, 2
	note C_, 4
	note __, 4
	note F_, 8
	note G#, 4
	note __, 4
	note E_, 12
	note __, 4
	note C_, 8
	note D_, 6
	note __, 2
	note E_, 4
	note __, 4
	note F#, 6
	note __, 2
	note C_, 8
	note F_, 8
	note F_, 8
	note E_, 4
	loopchannel 0, Music_Mom_Ch1_Loop


Music_Mom_Ch2:
	volume $77
	notetype $c, $00
	dutycycle $2
	intensity $95
Music_Mom_Ch2_Loop:
	octave 4
	octave 3
	note E_, 2
	note F_, 2
	note G_, 4
	octave 4
	note C_, 3
	octave 3
	note B_, 1
	octave 4
	note C_, 4
	octave 3
	note G_, 4
	note A_, 6
	note F_, 2
	note D_, 4
	note A_, 4
	note G_, 8
	note G_, 4
	note F_, 4
	note E_, 12
	note E_, 4
	note D_, 4
	note F#, 2
	note G_, 2
	note A_, 6
	note D_, 2
	note B_, 4
	note A_, 4
	note G_, 6
	note G_, 2
	octave 4
	note C_, 6
	octave 3
	note A_, 2
	note G_, 4
	note F#, 4
	note G_, 12
	note G_, 2
	note G_, 2
	octave 4
	note D_, 4
	octave 3
	note B_, 2
	note G_, 2
	note F_, 4
	note G_, 4
	note F_, 6
	note E_, 2
	note E_, 4
	note C_, 4
	note A_, 8
	note B_, 4
	note E_, 4
	octave 4
	note C_, 12
	octave 3
	note C_, 4
	note D_, 4
	note D_, 2
	note E_, 2
	note F_, 6
	note D_, 2
	note G_, 4
	note A_, 2
	note B_, 2
	octave 4
	note C_, 6
	octave 3
	note A_, 2
	note G_, 4
	octave 4
	note C_, 4
	note C_, 4
	octave 3
	note B_, 4
	octave 4
	note C_, 12
	loopchannel 0, Music_Mom_Ch2_Loop


Music_Mom_Ch3:
	notetype $c, $00
	intensity $24
	stereopanning $f0
Music_Mom_Ch3_Loop:
	octave 4
	note __, 4
	octave 2
	note G_, 8
	octave 3
	note C_, 8
	note C_, 8
	octave 2
	note A_, 8
	note E_, 8
	note F_, 8
	note G_, 8
	note E_, 8
	note F#, 8
	note D_, 8
	note G_, 8
	note E_, 8
	note A_, 8
	octave 3
	note C_, 8
	note C_, 8
	octave 2
	note B_, 8
	note B_, 8
	note G_, 8
	note C_, 12
	note E_, 4
	octave 3
	note C_, 8
	note E_, 4
	note D_, 4
	note C_, 16
	octave 2
	note A_, 8
	note G#, 8
	note G_, 8
	note A_, 8
	note E_, 8
	octave 3
	note D_, 8
	octave 2
	note C_, 8
	note G_, 4
	loopchannel 0, Music_Mom_Ch3_Loop

