Music_NationalPark:
	musicheader 3, 1, Music_NationalPark_Ch1
	musicheader 1, 2, Music_NationalPark_Ch2
	musicheader 1, 3, Music_NationalPark_Ch3


Music_NationalPark_Ch1:
	tempo 206
	volume $77
	notetype $c, $b5
	dutycycle $0
	stereopanning $0f
	note __, 4
	note __, 16
	note __, 8
	note __, 2
	note __, 2
	note __, 2
	octave 3
	note B_, 2
Music_NationalPark_Ch1_Loop:
	note G_, 2
	note F#, 2
	note E_, 2
	octave 2
	note B_, 2
	octave 3
	note G_, 2
	note E_, 2
	note E_, 2
	octave 2
	note B_, 2
	octave 4
	note D_, 2
	octave 3
	note F#, 2
	note E_, 2
	octave 2
	note B_, 2
	note __, 1
	octave 3
	note E_, 1
	note E_, 2
	note E_, 2
	octave 2
	note B_, 2
	octave 3
	note E_, 2
	note B_, 1
	note B_, 7
	note A_, 2
	note __, 2
	note D_, 2
	note G_, 2
	note F#, 2
	note E_, 2
	octave 2
	note A_, 2
	note B_, 2
	octave 3
	note G_, 2
	note F#, 2
	note E_, 2
	note G_, 2
	note F#, 2
	note E_, 2
	octave 2
	note B_, 2
	octave 3
	note G_, 2
	note F#, 2
	note E_, 2
	octave 2
	note B_, 2
	octave 3
	note G_, 2
	note F#, 2
	note E_, 2
	octave 2
	note B_, 2
	octave 3
	note G_, 2
	note F#, 2
	note E_, 2
	octave 2
	note B_, 2
	octave 3
	note G_, 2
	note F#, 2
	note E_, 2
	note C_, 2
	note G_, 2
	note F#, 2
	note E_, 2
	note C_, 2
	note G_, 2
	note F#, 2
	note E_, 2
	octave 2
	note A_, 2
	octave 3
	note D_, 1
	note __, 1
	note __, 6
	note B_, 2
	note A_, 2
	note G_, 2
	note A_, 2
	octave 2
	note E_, 2
	octave 3
	note E_, 2
	note __, 2
	note E_, 2
	note B_, 2
	note A_, 2
	note G_, 2
	note A_, 4
	octave 2
	note E_, 2
	note __, 4
	octave 3
	note B_, 2
	note A_, 2
	note G_, 2
	note A_, 2
	octave 2
	note E_, 2
	octave 3
	note E_, 2
	note __, 2
	note D_, 2
	note E_, 2
	note B_, 1
	note B_, 3
	note D_, 2
	note B_, 2
	note B_, 1
	note B_, 3
	note __, 2
	stereopanning $f0
	note __, 2
	octave 4
	note E_, 1
	note E_, 1
	note E_, 2
	note E_, 2
	note E_, 2
	note E_, 2
	note E_, 1
	note E_, 3
	note __, 2
	note E_, 1
	note E_, 1
	note E_, 2
	note E_, 2
	note E_, 2
	note E_, 2
	note E_, 1
	note E_, 2
	note E_, 1
	note C_, 1
	note C_, 1
	note C_, 2
	note E_, 3
	note E_, 1
	note C_, 1
	note C_, 1
	note C_, 2
	note E_, 4
	note E_, 1
	note E_, 1
	note E_, 1
	note E_, 1
	note E_, 2
	note E_, 2
	note __, 4
	octave 3
	note B_, 4
	stereopanning $f0
	note B_, 1
	note B_, 2
	note A_, 1
	note B_, 2
	note G_, 2
	note A_, 2
	note G_, 2
	note G_, 1
	note E_, 2
	note E_, 1
	note A_, 1
	note B_, 1
	note A_, 1
	note G_, 1
	note A_, 2
	note A_, 1
	note G_, 1
	note A_, 2
	note G_, 2
	note G_, 1
	note E_, 3
	note A_, 1
	note B_, 1
	note A_, 1
	note G_, 1
	note G_, 3
	note E_, 1
	note A_, 1
	note B_, 1
	note A_, 1
	note G_, 1
	note G_, 3
	note E_, 1
	note A_, 1
	note B_, 1
	note A_, 1
	note G_, 1
	note A_, 1
	note G_, 1
	note E_, 2
	note E_, 2
	note E_, 2
	stereopanning $0f
	octave 5
	note B_, 4
	note __, 16
	note __, 8
	note __, 4
	note __, 1
	note __, 1
	octave 3
	note B_, 2
	note G_, 2
	note F#, 2
	note E_, 2
	octave 2
	note B_, 2
	octave 3
	note G_, 2
	note E_, 2
	note E_, 2
	octave 2
	note B_, 2
	octave 4
	note D_, 2
	octave 3
	note F#, 2
	note E_, 2
	octave 2
	note B_, 2
	note __, 1
	octave 3
	note E_, 1
	note E_, 2
	note E_, 2
	octave 2
	note B_, 2
	octave 3
	note E_, 2
	note B_, 1
	note B_, 7
	note A_, 2
	note __, 2
	note D_, 2
	note G_, 2
	note F#, 2
	note E_, 2
	octave 2
	note A_, 2
	note B_, 2
	octave 3
	note G_, 2
	note F#, 2
	note E_, 2
	note G_, 2
	note F#, 2
	note E_, 2
	octave 2
	note B_, 2
	octave 3
	note G_, 2
	note F#, 2
	note E_, 2
	octave 2
	note B_, 2
	octave 3
	note G_, 2
	note F#, 2
	note E_, 2
	octave 2
	note B_, 2
	octave 3
	note G_, 2
	note F#, 2
	note E_, 2
	octave 2
	note B_, 2
	octave 3
	note G_, 2
	note F#, 2
	note E_, 2
	note C_, 2
	note G_, 2
	note F#, 2
	note E_, 2
	note C_, 2
	note G_, 2
	note F#, 2
	note E_, 2
	octave 2
	note A_, 2
	octave 3
	note D_, 1
	note __, 1
	note __, 6
	note B_, 2
	note A_, 2
	note G_, 2
	note A_, 2
	octave 2
	note E_, 2
	octave 3
	note E_, 2
	note __, 2
	note E_, 2
	note B_, 2
	note A_, 2
	note G_, 2
	note A_, 4
	octave 2
	note E_, 2
	note __, 4
	octave 3
	note B_, 2
	note A_, 2
	note G_, 2
	note A_, 2
	octave 2
	note E_, 2
	octave 3
	note E_, 2
	note __, 2
	note D_, 2
	note E_, 2
	note B_, 1
	note B_, 3
	note D_, 2
	note B_, 2
	note B_, 1
	note B_, 1
	note A_, 2
	note G_, 2
	note B_, 2
	note A_, 1
	note B_, 1
	note A_, 2
	note G_, 2
	note A_, 2
	note G_, 2
	note G_, 1
	note E_, 2
	note E_, 1
	note A_, 1
	note B_, 1
	note A_, 1
	note G_, 1
	note A_, 2
	note G_, 2
	note A_, 2
	note G_, 2
	note G_, 1
	note E_, 2
	note E_, 1
	note A_, 1
	note B_, 1
	note A_, 1
	note G_, 1
	note G_, 3
	note E_, 1
	note A_, 1
	note B_, 1
	note A_, 1
	note G_, 1
	note G_, 3
	note E_, 1
	note A_, 1
	note B_, 1
	note A_, 1
	note G_, 1
	note A_, 2
	note G_, 2
	note G_, 2
	note E_, 2
	note E_, 2
	note E_, 2
	note E_, 2
	note D_, 2
	octave 2
	note B_, 2
	octave 3
	note E_, 2
	note D_, 2
	octave 2
	note B_, 2
	note G_, 2
	note A_, 2
	octave 3
	note G_, 15
	note E_, 1
	note A_, 1
	note B_, 1
	note A_, 1
	note G_, 1
	note G_, 2
	note E_, 2
	note A_, 1
	note B_, 1
	note A_, 1
	note G_, 1
	note A_, 3
	note E_, 1
	note B_, 2
	note B_, 2
	note B_, 1
	note A_, 1
	note B_, 1
	note A_, 1
	note B_, 2
	note B_, 2
	octave 4
	note B_, 4
	note __, 16
	note __, 8
	note __, 4
	note __, 1
	note __, 1
	octave 3
	note B_, 2
	note G_, 2
	note F#, 2
	note E_, 2
	octave 2
	note B_, 2
	octave 3
	note G_, 2
	note E_, 2
	note E_, 2
	octave 2
	note B_, 2
	octave 4
	note D_, 2
	octave 3
	note F#, 2
	note E_, 2
	octave 2
	note B_, 2
	note __, 1
	octave 3
	note E_, 1
	note E_, 2
	note E_, 2
	octave 2
	note B_, 2
	octave 3
	note E_, 2
	note B_, 1
	note B_, 7
	note A_, 2
	note __, 2
	note D_, 2
	note G_, 2
	note F#, 2
	note E_, 2
	octave 2
	note A_, 2
	note B_, 2
	octave 3
	note G_, 2
	note F#, 2
	note E_, 2
	note G_, 2
	note F#, 2
	note E_, 2
	octave 2
	note B_, 2
	octave 3
	note G_, 2
	note F#, 2
	note E_, 2
	octave 2
	note B_, 2
	octave 3
	note G_, 2
	note F#, 2
	note E_, 2
	octave 2
	note B_, 2
	octave 3
	note G_, 2
	note F#, 2
	note E_, 2
	octave 2
	note B_, 2
	octave 3
	note G_, 2
	note F#, 2
	note E_, 2
	note C_, 2
	note G_, 2
	note F#, 2
	note E_, 2
	note C_, 2
	note G_, 2
	note F#, 2
	note E_, 2
	octave 2
	note A_, 2
	octave 3
	note D_, 1
	note __, 1
	note __, 6
	note B_, 2
	note A_, 2
	note G_, 2
	note A_, 2
	octave 2
	note E_, 2
	octave 3
	note E_, 2
	note __, 2
	note E_, 2
	note B_, 2
	note A_, 2
	note G_, 2
	note A_, 4
	octave 2
	note E_, 2
	note __, 4
	octave 3
	note B_, 2
	note A_, 2
	note G_, 2
	note A_, 2
	octave 2
	note E_, 2
	octave 3
	note E_, 2
	note __, 2
	note D_, 2
	note E_, 2
	note B_, 1
	note B_, 3
	note D_, 2
	note E_, 2
	note B_, 1
	note B_, 4
	note __, 1
	note B_, 4
	octave 4
	note E_, 4
	octave 5
	note E_, 2
	octave 3
	note B_, 2
	note B_, 3
	note F#, 1
	octave 4
	note E_, 1
	octave 3
	note B_, 3
	octave 4
	note G_, 4
	octave 5
	note G_, 4
	note E_, 2
	octave 3
	note G_, 2
	octave 4
	note E_, 4
	octave 5
	note C_, 4
	note A_, 3
	octave 3
	note B_, 1
	note A_, 2
	note G_, 2
	octave 4
	note E_, 8
	octave 5
	note F#, 8
	octave 3
	note B_, 2
	note E_, 1
	note G_, 1
	note B_, 1
	octave 4
	note E_, 1
	note G_, 1
	note B_, 1
	octave 5
	note E_, 2
	octave 3
	note B_, 2
	note B_, 3
	note F#, 1
	note B_, 1
	note B_, 1
	note G_, 1
	note B_, 1
	octave 4
	note D_, 1
	note G_, 1
	note B_, 1
	octave 5
	note D_, 1
	note G_, 4
	note E_, 2
	octave 3
	note G_, 2
	octave 4
	note C_, 2
	octave 3
	note A_, 1
	octave 4
	note C_, 1
	note E_, 1
	note A_, 1
	octave 5
	note C_, 1
	note E_, 1
	note A_, 3
	octave 3
	note B_, 1
	note A_, 2
	note G_, 2
	octave 4
	note C_, 1
	octave 2
	note A_, 1
	octave 3
	note C_, 1
	note E_, 1
	note A_, 1
	octave 4
	note C_, 1
	note E_, 2
	octave 5
	note F#, 4
	octave 3
	note E_, 2
	note F#, 2
	note G_, 2
	note B_, 2
	note E_, 2
	note F#, 1
	note G_, 3
	note B_, 2
	note E_, 2
	note B_, 2
	note A_, 2
	note G_, 2
	note A_, 2
	note G_, 1
	note A_, 3
	note G_, 2
	note E_, 2
	note F#, 2
	note G_, 2
	note B_, 2
	note E_, 2
	note F#, 1
	note G_, 3
	note B_, 2
	note E_, 2
	note B_, 2
	note A_, 2
	note __, 2
	note __, 4
	note __, 4
	note __, 2
	note B_, 2
	loopchannel 0, Music_NationalPark_Ch1_Loop


Music_NationalPark_Ch2:
	notetype $c, $95
	dutycycle $1
	octave 4
	note E_, 1
	note __, 1
	note F#, 1
	note __, 1
	stereopanning $0f
	note G_, 2
	note B_, 1
	note __, 1
	note E_, 1
	note __, 1
	note F#, 1
	note G_, 3
	note B_, 1
	note __, 1
	note E_, 1
	note __, 1
	note B_, 1
	note __, 1
	note A_, 2
	note G_, 1
	note __, 1
	note A_, 1
	note __, 1
	note G_, 1
	note A_, 3
	note G_, 1
	note __, 1
	note E_, 1
	note __, 1
	stereopanning $ff
	note E_, 2
Music_NationalPark_Ch2_Loop:
	note G_, 2
	note F#, 2
	note E_, 2
	note E_, 2
	note __, 2
	note E_, 2
	note E_, 2
	note E_, 2
	note G_, 2
	note F#, 2
	note E_, 2
	note E_, 2
	note __, 1
	note E_, 1
	note E_, 2
	note E_, 2
	note E_, 2
	note E_, 2
	note B_, 1
	note B_, 7
	note A_, 2
	note __, 2
	note D_, 2
	note E_, 2
	note B_, 1
	note B_, 3
	note D_, 2
	note E_, 2
	note B_, 1
	note B_, 3
	note __, 1
	note __, 1
	note G_, 2
	note F#, 2
	note E_, 2
	note E_, 4
	note E_, 2
	note __, 2
	note E_, 2
	note G_, 2
	note F#, 2
	note E_, 2
	note E_, 2
	note __, 1
	note E_, 1
	note E_, 2
	note E_, 2
	note E_, 2
	note E_, 2
	note B_, 1
	note B_, 7
	note A_, 2
	note __, 2
	note D_, 2
	note E_, 2
	note B_, 1
	note B_, 3
	note D_, 2
	note E_, 2
	note B_, 1
	note B_, 3
	note E_, 2
	note B_, 2
	note A_, 2
	note G_, 2
	note A_, 2
	octave 3
	note E_, 2
	octave 4
	note E_, 2
	note __, 2
	note E_, 2
	note B_, 2
	note A_, 2
	note G_, 2
	note A_, 4
	octave 3
	note E_, 2
	note __, 4
	octave 4
	note B_, 2
	note A_, 2
	note G_, 2
	note A_, 2
	octave 3
	note E_, 2
	octave 4
	note E_, 2
	note __, 2
	note D_, 2
	note E_, 2
	note B_, 1
	note B_, 3
	note D_, 2
	note E_, 2
	note B_, 1
	note B_, 3
	note __, 2
	note __, 2
	note B_, 1
	note B_, 1
	note A_, 2
	note G_, 2
	note A_, 2
	note G_, 2
	note G_, 1
	note E_, 3
	note __, 2
	note B_, 1
	note B_, 1
	note A_, 2
	note G_, 2
	note A_, 2
	note G_, 2
	note G_, 1
	note E_, 2
	note E_, 1
	note A_, 1
	note B_, 1
	note A_, 2
	note G_, 3
	note E_, 1
	note A_, 1
	note B_, 1
	note A_, 2
	note G_, 4
	note A_, 1
	note B_, 1
	note A_, 1
	note G_, 1
	note A_, 2
	note G_, 2
	note __, 4
	note G_, 4
	stereopanning $0f
	note B_, 1
	note B_, 2
	note A_, 1
	note B_, 2
	note G_, 2
	note A_, 2
	note G_, 2
	note G_, 1
	note E_, 2
	note E_, 1
	note A_, 1
	note B_, 1
	note A_, 1
	note G_, 1
	note A_, 2
	note A_, 1
	note G_, 1
	note A_, 2
	note G_, 2
	note G_, 1
	note E_, 3
	note A_, 1
	note B_, 1
	note A_, 1
	note G_, 1
	note G_, 3
	note E_, 1
	note A_, 1
	note B_, 1
	note A_, 1
	note G_, 1
	note G_, 3
	note E_, 1
	note A_, 1
	note B_, 1
	note A_, 1
	note G_, 1
	note A_, 1
	note G_, 1
	note E_, 2
	note E_, 2
	note E_, 2
	stereopanning $ff
	note C_, 2
	note F#, 2
	stereopanning $0f
	note G_, 2
	note B_, 1
	note __, 1
	note E_, 1
	note __, 1
	note F#, 1
	note G_, 3
	note B_, 1
	note __, 1
	note E_, 1
	note __, 1
	note B_, 1
	note __, 1
	note A_, 2
	note G_, 1
	note __, 1
	note A_, 1
	note __, 1
	note G_, 1
	note A_, 3
	note G_, 1
	note __, 1
	note E_, 1
	note __, 1
	stereopanning $ff
	note E_, 2
	note G_, 2
	note F#, 2
	note E_, 2
	note E_, 2
	note __, 2
	note E_, 2
	note E_, 2
	note E_, 2
	note G_, 2
	note F#, 2
	note E_, 2
	note E_, 2
	note __, 1
	note E_, 1
	note E_, 2
	note E_, 2
	note E_, 2
	note E_, 2
	note B_, 1
	note B_, 7
	note A_, 2
	note __, 2
	note D_, 2
	note E_, 2
	note B_, 1
	note B_, 3
	note D_, 2
	note E_, 2
	note B_, 1
	note B_, 3
	note __, 1
	note __, 1
	note G_, 2
	note F#, 2
	note E_, 2
	note E_, 4
	note E_, 2
	note __, 2
	note E_, 2
	note G_, 2
	note F#, 2
	note E_, 2
	note E_, 2
	note __, 1
	note E_, 1
	note E_, 2
	note E_, 2
	note E_, 2
	note E_, 2
	note B_, 1
	note B_, 7
	note A_, 2
	note __, 2
	note D_, 2
	note E_, 2
	note B_, 1
	note B_, 3
	note D_, 2
	note E_, 2
	note B_, 1
	note B_, 3
	note E_, 2
	note B_, 2
	note A_, 2
	note G_, 2
	note A_, 2
	octave 3
	note E_, 2
	octave 4
	note E_, 2
	note __, 2
	note E_, 2
	note B_, 2
	note A_, 2
	note G_, 2
	note A_, 4
	octave 3
	note E_, 2
	note __, 4
	octave 4
	note B_, 2
	note A_, 2
	note G_, 2
	note A_, 2
	octave 3
	note E_, 2
	octave 4
	note E_, 2
	note __, 2
	note D_, 2
	note E_, 2
	note B_, 1
	note B_, 3
	note D_, 2
	note E_, 2
	note B_, 1
	note B_, 1
	note A_, 2
	note G_, 2
	note E_, 2
	note A_, 1
	note B_, 1
	note A_, 2
	note G_, 2
	note A_, 2
	note G_, 2
	note G_, 1
	note E_, 2
	note E_, 1
	note A_, 1
	note B_, 1
	note A_, 1
	note G_, 1
	note A_, 2
	note G_, 2
	note A_, 2
	note G_, 2
	note G_, 1
	note E_, 2
	note E_, 1
	note A_, 1
	note B_, 1
	note A_, 1
	note G_, 1
	note G_, 3
	note E_, 1
	note A_, 1
	note B_, 1
	note A_, 1
	note G_, 1
	note G_, 3
	note E_, 1
	note A_, 1
	note B_, 1
	note A_, 1
	note G_, 1
	note A_, 2
	note G_, 2
	note G_, 2
	note E_, 2
	note E_, 2
	note E_, 2
	note E_, 2
	note D_, 2
	octave 3
	note B_, 2
	octave 4
	note E_, 2
	note D_, 2
	octave 3
	note B_, 2
	note G_, 2
	note A_, 2
	note B_, 15
	octave 4
	note E_, 1
	note A_, 1
	note B_, 1
	note A_, 1
	note G_, 1
	note G_, 2
	note E_, 2
	note A_, 1
	note B_, 1
	note A_, 1
	note G_, 1
	note A_, 3
	note E_, 1
	note B_, 2
	note B_, 2
	note B_, 1
	note A_, 1
	note B_, 1
	note A_, 1
	note B_, 2
	note B_, 2
	note E_, 2
	note F#, 2
	note G_, 2
	note B_, 1
	note __, 1
	note E_, 1
	note __, 1
	note F#, 1
	note G_, 3
	note B_, 1
	note __, 1
	note E_, 1
	note __, 1
	note B_, 1
	note __, 1
	note A_, 2
	note G_, 1
	note __, 1
	note A_, 1
	note __, 1
	note G_, 1
	note A_, 3
	note G_, 1
	note __, 1
	note E_, 1
	note __, 1
	stereopanning $ff
	note E_, 2
	note G_, 2
	note F#, 2
	note E_, 2
	note E_, 2
	note __, 2
	note E_, 2
	note E_, 2
	note E_, 2
	note G_, 2
	note F#, 2
	note E_, 2
	note E_, 2
	note __, 1
	note E_, 1
	note E_, 2
	note E_, 2
	note E_, 2
	note E_, 2
	note B_, 1
	note B_, 7
	note A_, 2
	note __, 2
	note D_, 2
	note E_, 2
	note B_, 1
	note B_, 3
	note D_, 2
	note E_, 2
	note B_, 1
	note B_, 3
	note __, 1
	note __, 1
	note G_, 2
	note F#, 2
	note E_, 2
	note E_, 4
	note E_, 2
	note __, 2
	note E_, 2
	note G_, 2
	note F#, 2
	note E_, 2
	note E_, 2
	note __, 1
	note E_, 1
	note E_, 2
	note E_, 2
	note E_, 2
	note E_, 2
	note B_, 1
	note B_, 7
	note A_, 2
	note __, 2
	note D_, 2
	note E_, 2
	note B_, 1
	note B_, 3
	note D_, 2
	note E_, 2
	note B_, 1
	note B_, 3
	note E_, 2
	note B_, 2
	note A_, 2
	note G_, 2
	note A_, 2
	octave 3
	note E_, 2
	octave 4
	note E_, 2
	note __, 2
	note E_, 2
	note B_, 2
	note A_, 2
	note G_, 2
	note A_, 4
	octave 3
	note E_, 2
	note __, 4
	octave 4
	note B_, 2
	note A_, 2
	note G_, 2
	note A_, 2
	octave 3
	note E_, 2
	octave 4
	note E_, 2
	note __, 2
	note D_, 2
	note E_, 2
	note B_, 1
	note B_, 3
	note D_, 2
	note E_, 2
	note B_, 1
	note B_, 4
	note __, 1
	note E_, 10
	note D_, 2
	note E_, 3
	note F#, 1
	note G_, 1
	note B_, 13
	note E_, 2
	note A_, 11
	note B_, 1
	note A_, 2
	note G_, 2
	note A_, 8
	octave 5
	note B_, 8
	octave 4
	note E_, 10
	note D_, 2
	note E_, 3
	note F#, 1
	note G_, 1
	note B_, 13
	note E_, 2
	note A_, 11
	note B_, 1
	note A_, 2
	note G_, 2
	note A_, 12
	note E_, 2
	note F#, 2
	note G_, 2
	note B_, 2
	note E_, 2
	note F#, 1
	note G_, 3
	note B_, 2
	note E_, 2
	note B_, 2
	note A_, 2
	note G_, 2
	note A_, 2
	note G_, 1
	note A_, 3
	note G_, 2
	note E_, 2
	note F#, 2
	note G_, 2
	note B_, 2
	note E_, 2
	note F#, 1
	note G_, 3
	note B_, 2
	note E_, 2
	note B_, 2
	note A_, 2
	note G_, 2
	note A_, 2
	note G_, 1
	note A_, 3
	note G_, 2
	note __, 2
	stereopanning $ff
	note E_, 2
	loopchannel 0, Music_NationalPark_Ch2_Loop


Music_NationalPark_Ch3:
	notetype $c, $27
	stereopanning $f0
	note __, 4
	octave 2
	note E_, 16
	octave 1
	note E_, 16
Music_NationalPark_Ch3_Loop:
	octave 2
	note E_, 1
	note __, 1
	octave 1
	note E_, 1
	octave 2
	note E_, 1
	note B_, 2
	octave 1
	note E_, 1
	octave 2
	note B_, 2
	octave 1
	note E_, 1
	octave 2
	note B_, 2
	note E_, 2
	note B_, 2
	note G_, 1
	note __, 1
	octave 1
	note G_, 1
	octave 2
	note G_, 1
	octave 3
	note D_, 2
	octave 1
	note G_, 1
	octave 2
	note G_, 2
	octave 1
	note G_, 1
	octave 2
	note G_, 2
	note G_, 2
	note G_, 2
	note C_, 1
	note __, 1
	octave 1
	note C_, 1
	octave 2
	note C_, 1
	note G_, 2
	octave 1
	note C_, 1
	octave 2
	note G_, 2
	octave 1
	note C_, 1
	octave 2
	note G_, 2
	note C_, 2
	note G_, 2
	octave 1
	note A_, 1
	note __, 1
	note A_, 1
	note A_, 1
	octave 2
	note E_, 2
	octave 1
	note A_, 1
	octave 2
	note E_, 2
	octave 1
	note D_, 1
	octave 2
	note A_, 2
	note D_, 2
	note A_, 2
	note E_, 1
	note __, 1
	octave 1
	note E_, 1
	octave 2
	note E_, 1
	note B_, 2
	octave 1
	note E_, 1
	octave 2
	note B_, 2
	octave 1
	note E_, 1
	octave 2
	note B_, 2
	note E_, 2
	note B_, 2
	note G_, 1
	note __, 1
	octave 1
	note G_, 1
	octave 2
	note G_, 1
	octave 3
	note G_, 2
	octave 1
	note G_, 1
	octave 3
	note D_, 2
	octave 1
	note G_, 1
	octave 2
	note G_, 2
	note G_, 2
	octave 3
	note D_, 2
	octave 2
	note C_, 1
	note __, 1
	octave 1
	note C_, 1
	octave 2
	note C_, 1
	octave 3
	note C_, 2
	octave 1
	note C_, 1
	octave 2
	note G_, 2
	octave 1
	note C_, 1
	octave 2
	note C_, 2
	note C_, 2
	note G_, 2
	octave 1
	note A_, 1
	note __, 1
	note A_, 1
	note A_, 1
	octave 2
	note E_, 2
	octave 1
	note A_, 2
	octave 2
	note A_, 1
	note __, 1
	note __, 6
	note E_, 1
	note __, 1
	octave 1
	note E_, 1
	octave 2
	note E_, 1
	octave 3
	note E_, 2
	octave 1
	note E_, 1
	octave 2
	note B_, 2
	octave 1
	note E_, 1
	octave 2
	note E_, 2
	note E_, 2
	note B_, 2
	note G_, 1
	note __, 1
	octave 1
	note G_, 1
	octave 2
	note G_, 1
	octave 3
	note G_, 2
	octave 1
	note G_, 1
	octave 3
	note D_, 2
	octave 1
	note G_, 1
	octave 2
	note G_, 2
	note G_, 2
	octave 3
	note D_, 2
	octave 2
	note C_, 1
	note __, 1
	octave 1
	note C_, 1
	octave 2
	note C_, 1
	octave 3
	note C_, 2
	octave 1
	note C_, 1
	octave 2
	note G_, 2
	octave 1
	note C_, 1
	octave 2
	note C_, 2
	note C_, 2
	note G_, 2
	note A_, 1
	note __, 1
	octave 1
	note A_, 1
	octave 2
	note A_, 1
	note A_, 2
	octave 1
	note A_, 1
	octave 2
	note E_, 2
	octave 1
	note D_, 1
	octave 2
	note D_, 2
	note D_, 2
	note A_, 2
	stereopanning $0f
	note E_, 2
	octave 1
	note E_, 1
	octave 2
	note E_, 1
	note B_, 2
	octave 1
	note E_, 1
	octave 2
	note B_, 2
	octave 1
	note E_, 1
	octave 2
	note B_, 2
	note E_, 2
	note B_, 2
	note G_, 2
	octave 1
	note G_, 1
	octave 2
	note G_, 1
	octave 3
	note D_, 2
	octave 1
	note G_, 1
	octave 3
	note D_, 2
	octave 1
	note G_, 1
	octave 3
	note D_, 2
	octave 2
	note G_, 2
	octave 3
	note D_, 2
	octave 2
	note C_, 2
	octave 1
	note C_, 1
	octave 2
	note C_, 1
	note G_, 2
	octave 1
	note C_, 1
	octave 2
	note G_, 2
	octave 1
	note C_, 1
	octave 2
	note G_, 2
	note C_, 2
	note G_, 2
	note A_, 2
	octave 1
	note A_, 1
	octave 2
	note A_, 1
	octave 3
	note E_, 2
	octave 1
	note A_, 1
	octave 3
	note E_, 1
	octave 2
	note D_, 1
	note __, 1
	note D_, 1
	note __, 1
	octave 4
	note G_, 4
	stereopanning $ff
	octave 2
	note E_, 1
	note __, 1
	octave 1
	note E_, 1
	octave 2
	note E_, 1
	octave 3
	note E_, 2
	octave 1
	note E_, 1
	octave 2
	note B_, 2
	octave 1
	note E_, 1
	octave 2
	note E_, 2
	note E_, 2
	note B_, 2
	note G_, 1
	note __, 1
	octave 1
	note G_, 1
	octave 2
	note G_, 1
	octave 3
	note G_, 2
	octave 1
	note G_, 1
	octave 3
	note D_, 2
	octave 1
	note G_, 1
	octave 2
	note G_, 2
	note G_, 2
	octave 3
	note D_, 2
	octave 2
	note C_, 1
	note __, 1
	octave 1
	note C_, 1
	octave 2
	note C_, 1
	octave 3
	note C_, 2
	octave 1
	note C_, 1
	octave 2
	note G_, 2
	octave 1
	note C_, 1
	octave 2
	note C_, 2
	note C_, 2
	note G_, 2
	note A_, 1
	note __, 1
	octave 1
	note A_, 1
	octave 2
	note A_, 1
	octave 3
	note A_, 2
	octave 1
	note A_, 1
	octave 3
	note E_, 2
	octave 2
	note D_, 1
	octave 3
	note D_, 2
	stereopanning $f0
	note D_, 2
	note A_, 2
	octave 1
	note E_, 3
	octave 2
	note E_, 1
	note B_, 2
	note E_, 3
	octave 1
	note E_, 1
	octave 2
	note E_, 2
	note B_, 1
	note E_, 2
	note B_, 1
	octave 1
	note E_, 3
	octave 2
	note E_, 1
	note B_, 2
	note E_, 3
	octave 1
	note E_, 1
	octave 2
	note E_, 2
	note B_, 1
	note E_, 2
	note B_, 1
	note E_, 1
	note __, 1
	octave 1
	note E_, 1
	octave 2
	note E_, 1
	note B_, 2
	octave 1
	note E_, 1
	octave 2
	note B_, 2
	octave 1
	note E_, 1
	octave 2
	note B_, 2
	note E_, 2
	note B_, 2
	note G_, 1
	note __, 1
	octave 1
	note G_, 1
	octave 2
	note G_, 1
	octave 3
	note D_, 2
	octave 1
	note G_, 1
	octave 2
	note G_, 2
	octave 1
	note G_, 1
	octave 2
	note G_, 2
	note G_, 2
	note G_, 2
	note C_, 1
	note __, 1
	octave 1
	note C_, 1
	octave 2
	note C_, 1
	note G_, 2
	octave 1
	note C_, 1
	octave 2
	note G_, 2
	octave 1
	note C_, 1
	octave 2
	note G_, 2
	note C_, 2
	note G_, 2
	octave 1
	note A_, 1
	note __, 1
	note A_, 1
	note A_, 1
	octave 2
	note E_, 2
	octave 1
	note A_, 1
	octave 2
	note E_, 2
	octave 1
	note D_, 1
	octave 2
	note A_, 2
	note D_, 2
	note A_, 2
	note E_, 1
	note __, 1
	octave 1
	note E_, 1
	octave 2
	note E_, 1
	note B_, 2
	octave 1
	note E_, 1
	octave 2
	note B_, 2
	octave 1
	note E_, 1
	octave 2
	note B_, 2
	note E_, 2
	note B_, 2
	note G_, 1
	note __, 1
	octave 1
	note G_, 1
	octave 2
	note G_, 1
	octave 3
	note G_, 2
	octave 1
	note G_, 1
	octave 3
	note D_, 2
	octave 1
	note G_, 1
	octave 2
	note G_, 2
	note G_, 2
	octave 3
	note D_, 2
	octave 2
	note C_, 1
	note __, 1
	octave 1
	note C_, 1
	octave 2
	note C_, 1
	octave 3
	note C_, 2
	octave 1
	note C_, 1
	octave 2
	note G_, 2
	octave 1
	note C_, 1
	octave 2
	note C_, 2
	note C_, 2
	note G_, 2
	octave 1
	note A_, 1
	note __, 1
	note A_, 1
	note A_, 1
	octave 2
	note E_, 2
	octave 1
	note A_, 2
	octave 2
	note A_, 1
	note __, 1
	note __, 6
	note E_, 1
	note __, 1
	octave 1
	note E_, 1
	octave 2
	note E_, 1
	octave 3
	note E_, 2
	octave 1
	note E_, 1
	octave 2
	note B_, 2
	octave 1
	note E_, 1
	octave 2
	note E_, 2
	note E_, 2
	note B_, 2
	note G_, 1
	note __, 1
	octave 1
	note G_, 1
	octave 2
	note G_, 1
	octave 3
	note G_, 2
	octave 1
	note G_, 1
	octave 3
	note D_, 2
	octave 1
	note G_, 1
	octave 2
	note G_, 2
	note G_, 2
	octave 3
	note D_, 2
	octave 2
	note C_, 1
	note __, 1
	octave 1
	note C_, 1
	octave 2
	note C_, 1
	octave 3
	note C_, 2
	octave 1
	note C_, 1
	octave 2
	note G_, 2
	octave 1
	note C_, 1
	octave 2
	note C_, 2
	note C_, 2
	note G_, 2
	note A_, 1
	note __, 1
	octave 1
	note A_, 1
	octave 2
	note A_, 1
	note A_, 2
	octave 1
	note A_, 1
	octave 2
	note E_, 2
	octave 1
	note D_, 1
	octave 2
	note D_, 2
	note D_, 2
	note A_, 2
	octave 3
	note E_, 1
	note __, 1
	octave 2
	note E_, 1
	octave 3
	note E_, 1
	note E_, 2
	octave 2
	note E_, 1
	octave 3
	note E_, 2
	octave 2
	note E_, 1
	octave 3
	note E_, 2
	note E_, 2
	note B_, 2
	note G_, 1
	note __, 1
	octave 2
	note G_, 1
	octave 3
	note G_, 1
	note G_, 2
	octave 2
	note G_, 1
	octave 3
	note G_, 2
	octave 2
	note G_, 1
	octave 3
	note G_, 2
	note G_, 2
	octave 4
	note D_, 2
	octave 3
	note C_, 1
	note __, 1
	octave 2
	note C_, 1
	octave 3
	note C_, 1
	note C_, 2
	octave 2
	note C_, 1
	octave 3
	note C_, 2
	octave 2
	note C_, 1
	octave 3
	note C_, 2
	note C_, 2
	note G_, 2
	octave 2
	note A_, 1
	note __, 1
	octave 1
	note A_, 1
	octave 2
	note A_, 1
	note A_, 2
	octave 1
	note A_, 1
	octave 2
	note A_, 1
	note D_, 1
	note __, 1
	note D_, 1
	note __, 1
	note __, 4
	note E_, 4
	note E_, 4
	note E_, 4
	note E_, 4
	octave 1
	note E_, 2
	octave 2
	note E_, 2
	note E_, 2
	note E_, 2
	note E_, 2
	note E_, 2
	note E_, 2
	note E_, 2
	note C_, 1
	note __, 1
	octave 1
	note C_, 1
	octave 2
	note C_, 1
	note C_, 2
	octave 1
	note C_, 1
	octave 2
	note C_, 2
	octave 1
	note C_, 1
	octave 2
	note C_, 3
	octave 1
	note B_, 3
	octave 2
	note A_, 1
	note __, 1
	octave 1
	note A_, 1
	octave 2
	note A_, 1
	note A_, 2
	octave 1
	note A_, 1
	octave 2
	note A_, 2
	note D_, 1
	note D_, 2
	note D_, 2
	octave 3
	note D_, 2
	octave 1
	note E_, 3
	octave 2
	note E_, 1
	note B_, 2
	note E_, 3
	octave 1
	note E_, 1
	octave 2
	note E_, 2
	note B_, 1
	note E_, 2
	note B_, 1
	octave 1
	note E_, 3
	octave 2
	note E_, 1
	note B_, 2
	note E_, 3
	octave 1
	note E_, 1
	octave 2
	note E_, 2
	note B_, 1
	note E_, 2
	note B_, 1
	note E_, 1
	note __, 1
	octave 1
	note E_, 1
	octave 2
	note E_, 1
	note B_, 2
	octave 1
	note E_, 1
	octave 2
	note B_, 2
	octave 1
	note E_, 1
	octave 2
	note B_, 2
	note E_, 2
	note B_, 2
	note G_, 1
	note __, 1
	octave 1
	note G_, 1
	octave 2
	note G_, 1
	octave 3
	note D_, 2
	octave 1
	note G_, 1
	octave 2
	note G_, 2
	octave 1
	note G_, 1
	octave 2
	note G_, 2
	note G_, 2
	note G_, 2
	note C_, 1
	note __, 1
	octave 1
	note C_, 1
	octave 2
	note C_, 1
	note G_, 2
	octave 1
	note C_, 1
	octave 2
	note G_, 2
	octave 1
	note C_, 1
	octave 2
	note G_, 2
	note C_, 2
	note G_, 2
	octave 1
	note A_, 1
	note __, 1
	note A_, 1
	note A_, 1
	octave 2
	note E_, 2
	octave 1
	note A_, 1
	octave 2
	note E_, 2
	octave 1
	note D_, 1
	octave 2
	note A_, 2
	note D_, 2
	note A_, 2
	note E_, 1
	note __, 1
	octave 1
	note E_, 1
	octave 2
	note E_, 1
	note B_, 2
	octave 1
	note E_, 1
	octave 2
	note B_, 2
	octave 1
	note E_, 1
	octave 2
	note B_, 2
	note E_, 2
	note B_, 2
	note G_, 1
	note __, 1
	octave 1
	note G_, 1
	octave 2
	note G_, 1
	octave 3
	note G_, 2
	octave 1
	note G_, 1
	octave 3
	note D_, 2
	octave 1
	note G_, 1
	octave 2
	note G_, 2
	note G_, 2
	octave 3
	note D_, 2
	octave 2
	note C_, 1
	note __, 1
	octave 1
	note C_, 1
	octave 2
	note C_, 1
	octave 3
	note C_, 2
	octave 1
	note C_, 1
	octave 2
	note G_, 2
	octave 1
	note C_, 1
	octave 2
	note C_, 2
	note C_, 2
	note G_, 2
	octave 1
	note A_, 1
	note __, 1
	note A_, 1
	note A_, 1
	octave 2
	note E_, 2
	octave 1
	note A_, 2
	octave 2
	note A_, 1
	note __, 1
	note __, 6
	note E_, 1
	note __, 1
	octave 1
	note E_, 1
	octave 2
	note E_, 1
	octave 3
	note E_, 2
	octave 1
	note E_, 1
	octave 2
	note B_, 2
	octave 1
	note E_, 1
	octave 2
	note E_, 2
	note E_, 2
	note B_, 2
	note G_, 1
	note __, 1
	octave 1
	note G_, 1
	octave 2
	note G_, 1
	octave 3
	note G_, 2
	octave 1
	note G_, 1
	octave 3
	note D_, 2
	octave 1
	note G_, 1
	octave 2
	note G_, 2
	note G_, 2
	octave 3
	note D_, 2
	octave 2
	note C_, 1
	note __, 1
	octave 1
	note C_, 1
	octave 2
	note C_, 1
	octave 3
	note C_, 2
	octave 1
	note C_, 1
	octave 2
	note G_, 2
	octave 1
	note C_, 1
	octave 2
	note C_, 2
	note C_, 2
	note G_, 2
	note A_, 1
	note __, 1
	octave 1
	note A_, 1
	octave 2
	note A_, 1
	note A_, 2
	octave 1
	note A_, 1
	octave 2
	note E_, 2
	octave 1
	note D_, 1
	octave 2
	note D_, 2
	note D_, 2
	note A_, 2
	octave 3
	note E_, 2
	octave 2
	note E_, 1
	note E_, 1
	octave 3
	note E_, 2
	octave 2
	note E_, 2
	octave 3
	note E_, 2
	octave 2
	note E_, 2
	octave 3
	note E_, 2
	octave 2
	note E_, 2
	octave 3
	note G_, 2
	octave 2
	note G_, 1
	note G_, 1
	octave 3
	note G_, 2
	octave 2
	note G_, 2
	octave 3
	note G_, 2
	octave 2
	note G_, 2
	octave 3
	note G_, 2
	octave 2
	note G_, 2
	octave 3
	note C_, 2
	octave 2
	note C_, 1
	note C_, 1
	octave 3
	note C_, 2
	octave 2
	note C_, 2
	octave 3
	note C_, 2
	octave 2
	note C_, 2
	octave 3
	note C_, 2
	octave 2
	note C_, 2
	note A_, 2
	octave 1
	note A_, 1
	note A_, 1
	octave 2
	note A_, 2
	octave 1
	note A_, 2
	octave 3
	note D_, 2
	octave 2
	note D_, 2
	octave 3
	note D_, 2
	octave 2
	note D_, 2
	octave 3
	note E_, 2
	octave 2
	note E_, 1
	note E_, 1
	octave 3
	note E_, 2
	octave 2
	note E_, 2
	octave 3
	note E_, 2
	octave 2
	note E_, 2
	octave 3
	note E_, 2
	octave 2
	note E_, 2
	octave 3
	note G_, 2
	octave 2
	note G_, 1
	note G_, 1
	octave 3
	note G_, 2
	octave 2
	note G_, 2
	octave 3
	note G_, 2
	octave 2
	note G_, 2
	octave 3
	note G_, 2
	octave 2
	note G_, 2
	octave 3
	note C_, 2
	octave 2
	note C_, 1
	note C_, 1
	octave 3
	note C_, 2
	octave 2
	note C_, 2
	octave 3
	note C_, 2
	octave 2
	note C_, 2
	octave 3
	note C_, 2
	octave 2
	note C_, 2
	note A_, 2
	octave 1
	note A_, 1
	note A_, 1
	octave 2
	note A_, 2
	octave 1
	note A_, 2
	octave 3
	note D_, 2
	octave 2
	note D_, 2
	octave 3
	note D_, 4
	octave 2
	note E_, 16
	octave 1
	note E_, 16
	note E_, 1
	octave 2
	note E_, 1
	octave 1
	note E_, 1
	octave 2
	note D_, 1
	note E_, 1
	octave 1
	note E_, 1
	octave 2
	note D_, 1
	note E_, 1
	octave 1
	note E_, 1
	octave 2
	note D_, 1
	note E_, 1
	octave 1
	note E_, 1
	octave 2
	note D_, 1
	note E_, 1
	octave 1
	note E_, 1
	octave 2
	note D_, 1
	note E_, 4
	note __, 4
	note __, 4
	note __, 2
	note __, 2
	loopchannel 0, Music_NationalPark_Ch3_Loop


