Music_NewBarkTown:
	musicheader 3, 1, Music_NewBarkTown_Ch1
	musicheader 1, 2, Music_NewBarkTown_Ch2
	musicheader 1, 3, Music_NewBarkTown_Ch3


Music_NewBarkTown_Ch1:
	tempo 160
	volume $77
	notetype $c, $73
	dutycycle $2
	stereopanning $f0
Music_NewBarkTown_Ch1_Loop:
	octave 4
	note C_, 2
	note D_, 2
	note E_, 2
	note C_, 2
	note D_, 2
	octave 3
	note A_, 2
	note F_, 2
	octave 4
	note C_, 2
	note C_, 2
	note D_, 2
	note E_, 2
	note C_, 2
	note D_, 2
	octave 3
	note A_, 2
	note F_, 2
	octave 4
	note C_, 2
	octave 3
	note C_, 2
	note G_, 1
	note __, 1
	note E_, 2
	note G_, 1
	note __, 1
	note D_, 2
	note F_, 1
	note __, 1
	octave 2
	note F_, 2
	octave 3
	note F_, 1
	note __, 1
	note C_, 2
	note G_, 1
	note __, 1
	note E_, 2
	note G_, 1
	note __, 1
	note D_, 1
	note D_, 1
	note A_, 1
	note __, 1
	octave 2
	note F_, 2
	octave 3
	note A_, 1
	note __, 1
	note C_, 2
	note G_, 1
	note __, 1
	note E_, 2
	note G_, 1
	note __, 1
	note D_, 2
	note A_, 1
	note __, 1
	octave 2
	note F_, 2
	octave 3
	note A_, 1
	note __, 1
	note C_, 2
	note G_, 1
	note __, 1
	note E_, 2
	note G_, 1
	note __, 1
	note D_, 1
	note D_, 1
	note A_, 1
	note __, 1
	octave 2
	note F_, 2
	octave 3
	note A_, 1
	note __, 1
	note C_, 2
	note G_, 1
	note __, 1
	note E_, 2
	note G_, 1
	note __, 1
	note D_, 2
	note A_, 1
	note __, 1
	octave 2
	note F_, 2
	octave 3
	note A_, 1
	note __, 1
	note C_, 2
	note G_, 1
	note __, 1
	note E_, 2
	note G_, 1
	note __, 1
	note D_, 1
	note D_, 1
	note A_, 1
	note __, 1
	octave 2
	note F_, 2
	octave 3
	note A_, 1
	note __, 1
	note C_, 2
	note G_, 1
	note __, 1
	note E_, 2
	note G_, 1
	note __, 1
	note D_, 2
	note A_, 1
	note __, 1
	octave 2
	note F_, 2
	octave 3
	note A_, 1
	note __, 1
	note C_, 2
	note G_, 1
	note __, 1
	note E_, 2
	note G_, 1
	note __, 1
	note D_, 1
	note D_, 1
	note A_, 1
	note __, 1
	octave 2
	note F_, 2
	octave 3
	note A_, 1
	intensity $87
	note __, 1
	note F_, 2
	note E_, 2
	note F_, 2
	note D_, 4
	note G_, 4
	note F_, 2
	note E_, 2
	note D_, 2
	note E_, 2
	note C_, 4
	note F_, 6
	note F_, 2
	note E_, 2
	note F_, 2
	note G_, 4
	note A_, 2
	note B_, 4
	octave 4
	note C_, 2
	note D_, 2
	note E_, 2
	octave 3
	note A_, 10
	intensity $73
	note C_, 2
	note G_, 1
	note __, 1
	note E_, 2
	note G_, 1
	note __, 1
	note D_, 2
	note F_, 1
	note __, 1
	octave 2
	note F_, 2
	octave 3
	note F_, 1
	note __, 1
	note C_, 2
	note G_, 1
	note __, 1
	note E_, 2
	note G_, 1
	note __, 1
	note D_, 1
	note D_, 1
	note A_, 1
	note __, 1
	octave 2
	note F_, 2
	octave 3
	note A_, 1
	note __, 1
	note C_, 2
	note G_, 1
	note __, 1
	note E_, 2
	note G_, 1
	note __, 1
	note D_, 2
	note A_, 1
	note __, 1
	octave 2
	note F_, 2
	octave 3
	note A_, 1
	note __, 1
	note C_, 2
	note G_, 1
	note __, 1
	note E_, 2
	note G_, 1
	note __, 1
	note D_, 1
	note D_, 1
	note A_, 1
	note __, 1
	octave 2
	note F_, 2
	octave 3
	note A_, 1
	note __, 1
	note C_, 2
	note G_, 1
	note __, 1
	note E_, 2
	note G_, 1
	note __, 1
	note D_, 2
	note A_, 1
	note __, 1
	octave 2
	note F_, 2
	octave 3
	note A_, 1
	note __, 1
	note C_, 2
	note G_, 1
	note __, 1
	note E_, 2
	note G_, 1
	note __, 1
	note D_, 1
	note D_, 1
	note A_, 1
	note __, 1
	octave 2
	note F_, 2
	octave 3
	note A_, 1
	note __, 1
	note C_, 2
	note G_, 1
	note __, 1
	note E_, 2
	note G_, 1
	note __, 1
	note D_, 2
	note A_, 1
	note __, 1
	octave 2
	note F_, 2
	octave 3
	note A_, 1
	note __, 1
	note C_, 2
	note G_, 1
	note __, 1
	note E_, 2
	note G_, 1
	note __, 1
	note D_, 1
	note D_, 1
	note A_, 1
	note __, 1
	octave 2
	note F_, 2
	octave 3
	note A_, 1
	note __, 1
	note __, 2
	intensity $57
	octave 4
	note A_, 2
	note B_, 2
	octave 5
	note C_, 6
	note D_, 4
	octave 4
	note A_, 2
	note A_, 1
	octave 5
	note C_, 1
	note E_, 1
	octave 4
	note A_, 1
	octave 5
	note C_, 1
	note E_, 1
	note A_, 8
	octave 4
	note G_, 4
	note G_, 4
	note __, 2
	octave 3
	note B_, 2
	note __, 2
	octave 4
	note E_, 16
	note D_, 2
	note C_, 6
	octave 3
	note G#, 8
	octave 5
	note C_, 1
	note D_, 1
	note E_, 1
	note E_, 1
	note C_, 2
	note E_, 2
	note B_, 2
	note __, 2
	note A_, 6
	octave 6
	note C_, 2
	octave 5
	note A_, 1
	note A_, 1
	note A_, 1
	octave 6
	note C_, 1
	note E_, 6
	note __, 4
	note E_, 2
	note E_, 1
	note E_, 1
	note C_, 1
	note E_, 1
	note G_, 6
	note __, 4
	intensity $73
	octave 4
	note C_, 2
	note D_, 2
	note E_, 2
	note C_, 2
	note D_, 2
	octave 3
	note A_, 2
	note F_, 2
	octave 4
	note C_, 2
	note C_, 2
	note D_, 2
	note E_, 2
	note C_, 2
	note D_, 1
	octave 3
	note D_, 1
	note A_, 2
	note F_, 2
	octave 4
	note C_, 2
	loopchannel 0, Music_NewBarkTown_Ch1_Loop


Music_NewBarkTown_Ch2:
	volume $77
	notetype $c, $95
	dutycycle $1
Music_NewBarkTown_Ch2_Loop:
	octave 4
	note __, 16
	note __, 16
	note __, 2
	note G_, 2
	note B_, 2
	octave 5
	note C_, 2
	octave 4
	note G_, 8
	note __, 2
	note G_, 2
	note B_, 2
	octave 5
	note C_, 2
	octave 4
	note G_, 2
	note F_, 2
	note E_, 2
	note F_, 2
	note __, 2
	note G_, 2
	note B_, 2
	octave 5
	note C_, 2
	octave 4
	note G_, 8
	note __, 2
	note G_, 2
	note B_, 2
	octave 5
	note C_, 2
	octave 4
	note G_, 2
	note F_, 2
	note E_, 2
	note F_, 2
	note __, 2
	note E_, 2
	note F_, 2
	note G_, 2
	note F_, 8
	note __, 2
	note E_, 2
	note F_, 2
	note G_, 2
	note F_, 2
	note F_, 4
	note G_, 2
	note __, 2
	note E_, 2
	note F_, 2
	note G_, 2
	note F_, 8
	note __, 2
	note E_, 2
	note F_, 2
	note G_, 2
	note F_, 2
	note F_, 4
	note G_, 2
	note F_, 2
	note A_, 2
	octave 5
	note C_, 2
	octave 4
	note B_, 10
	note E_, 2
	note G_, 2
	note B_, 2
	note A_, 4
	note G#, 6
	note F_, 2
	note A_, 2
	octave 5
	note C_, 2
	octave 4
	note B_, 10
	note E_, 2
	note F_, 2
	note G_, 2
	note C_, 10
	note __, 2
	note G_, 2
	note B_, 2
	octave 5
	note C_, 2
	octave 4
	note G_, 8
	note __, 2
	note G_, 2
	note B_, 2
	octave 5
	note C_, 2
	octave 4
	note G_, 2
	note F_, 2
	note E_, 2
	note F_, 2
	note __, 2
	note G_, 2
	note B_, 2
	octave 5
	note C_, 2
	octave 4
	note G_, 8
	note __, 2
	note G_, 2
	note B_, 2
	octave 5
	note C_, 2
	octave 4
	note G_, 2
	note F_, 2
	note E_, 2
	note F_, 2
	note __, 2
	note E_, 2
	note F_, 2
	note G_, 2
	note F_, 8
	note __, 2
	note E_, 2
	note F_, 2
	note G_, 2
	note F_, 2
	note F_, 4
	note G_, 2
	note __, 2
	note E_, 2
	note F_, 2
	note G_, 2
	note F_, 8
	note __, 2
	note E_, 2
	note F_, 2
	note G_, 2
	note F_, 2
	note F_, 4
	note G_, 2
	note __, 2
	octave 3
	note A_, 2
	note B_, 2
	octave 4
	note C_, 6
	note D_, 4
	note E_, 2
	note C_, 2
	note E_, 2
	note D_, 6
	note C_, 2
	note D_, 2
	note E_, 4
	note C_, 2
	octave 3
	note A_, 4
	note G_, 4
	note E_, 10
	octave 4
	note E_, 4
	note D_, 4
	note __, 2
	octave 3
	note A_, 2
	note B_, 2
	octave 4
	note C_, 6
	note D_, 4
	note E_, 2
	note C_, 2
	note E_, 2
	note D_, 6
	note C_, 2
	note D_, 2
	note E_, 4
	note C_, 2
	octave 3
	note A_, 6
	octave 4
	note C_, 2
	note D_, 2
	note E_, 2
	note C_, 2
	note E_, 2
	note D_, 6
	note __, 4
	note __, 16
	note __, 16
	loopchannel 0, Music_NewBarkTown_Ch2_Loop


Music_NewBarkTown_Ch3:
	notetype $c, $26
	stereopanning $0f
Music_NewBarkTown_Ch3_Loop:
	octave 4
	octave 3
	note C_, 2
	note D_, 2
	note E_, 2
	note C_, 2
	note D_, 2
	octave 2
	note A_, 2
	note F_, 2
	octave 3
	note C_, 2
	note C_, 2
	note D_, 2
	note E_, 2
	note C_, 2
	note D_, 2
	octave 2
	note A_, 2
	note F_, 2
	octave 3
	note C_, 2
	note C_, 2
	note D_, 2
	note E_, 2
	note C_, 2
	note D_, 2
	octave 2
	note A_, 2
	note F_, 2
	octave 3
	note C_, 2
	note C_, 2
	note D_, 2
	note E_, 2
	note C_, 2
	note D_, 1
	note D_, 1
	octave 2
	note A_, 2
	note F_, 2
	octave 3
	note C_, 2
	note C_, 2
	note D_, 2
	note E_, 2
	note C_, 2
	note D_, 2
	octave 2
	note A_, 2
	note F_, 2
	octave 3
	note C_, 2
	note C_, 2
	note D_, 2
	note E_, 2
	note C_, 2
	note D_, 1
	note D_, 1
	octave 2
	note A_, 2
	note F_, 2
	octave 3
	note C_, 2
	note C_, 2
	note D_, 2
	note E_, 2
	note C_, 2
	note D_, 2
	octave 2
	note A_, 2
	note F_, 2
	octave 3
	note C_, 2
	note C_, 2
	note D_, 2
	note E_, 2
	note C_, 2
	note D_, 1
	note D_, 1
	octave 2
	note A_, 2
	note F_, 2
	octave 3
	note C_, 2
	note C_, 2
	note D_, 2
	note E_, 2
	note C_, 2
	note D_, 2
	octave 2
	note A_, 2
	note F_, 2
	octave 3
	note C_, 2
	note C_, 2
	note D_, 2
	note E_, 2
	note C_, 2
	note D_, 1
	note D_, 1
	octave 2
	note A_, 2
	note F_, 2
	octave 3
	note C_, 2
	octave 2
	note F_, 10
	note B_, 4
	note G_, 2
	note E_, 6
	note A_, 2
	note __, 2
	note G#, 6
	octave 3
	note D_, 6
	note G_, 4
	note F_, 2
	note G#, 4
	note A_, 2
	octave 2
	note B_, 2
	note G#, 2
	note F_, 10
	octave 3
	note C_, 2
	note D_, 2
	note E_, 2
	note C_, 2
	note D_, 2
	octave 2
	note A_, 2
	note F_, 2
	octave 3
	note C_, 2
	note C_, 2
	note D_, 2
	note E_, 2
	note C_, 2
	note D_, 1
	note D_, 1
	octave 2
	note A_, 2
	note F_, 2
	octave 3
	note C_, 2
	note C_, 2
	note D_, 2
	note E_, 2
	note C_, 2
	note D_, 2
	octave 2
	note A_, 2
	note F_, 2
	octave 3
	note C_, 2
	note C_, 2
	note D_, 2
	note E_, 2
	note C_, 2
	note D_, 1
	note D_, 1
	octave 2
	note A_, 2
	note F_, 2
	octave 3
	note C_, 2
	note C_, 2
	note D_, 2
	note E_, 2
	note C_, 2
	note D_, 2
	octave 2
	note A_, 2
	note F_, 2
	octave 3
	note C_, 2
	note C_, 2
	note D_, 2
	note E_, 2
	note C_, 2
	note D_, 1
	note D_, 1
	octave 2
	note A_, 2
	note F_, 2
	octave 3
	note C_, 2
	note C_, 2
	note D_, 2
	note E_, 2
	note C_, 2
	note D_, 2
	octave 2
	note A_, 2
	note F_, 2
	octave 3
	note C_, 2
	note C_, 2
	note D_, 2
	note E_, 2
	note C_, 2
	note D_, 1
	note D_, 1
	octave 2
	note A_, 2
	note F_, 2
	octave 3
	note C_, 2
	note A_, 8
	note G#, 8
	note G_, 4
	note G_, 2
	note F#, 10
	note F_, 6
	note F_, 2
	note G_, 6
	octave 2
	note G_, 2
	octave 3
	note C_, 6
	octave 2
	note G_, 2
	octave 3
	note C_, 4
	octave 2
	note B_, 4
	note A_, 4
	note A_, 2
	note G#, 10
	note G_, 6
	note F#, 10
	note F_, 2
	note D_, 2
	note G#, 2
	note F#, 6
	note G_, 2
	note G#, 2
	note F_, 2
	note D_, 2
	note F#, 2
	note G_, 2
	note G_, 1
	note G_, 1
	note F#, 2
	note G_, 2
	note B_, 2
	octave 3
	note C_, 2
	note D_, 2
	note E_, 2
	note C_, 2
	note D_, 2
	octave 2
	note A_, 2
	note F_, 2
	octave 3
	note C_, 2
	note C_, 2
	note D_, 2
	note E_, 2
	note C_, 2
	note D_, 1
	octave 2
	note D_, 1
	note A_, 2
	note F_, 2
	octave 3
	note C_, 2
	loopchannel 0, Music_NewBarkTown_Ch3_Loop


