Music_Route36:
	musicheader 3, 1, Music_Route36_Ch1
	musicheader 1, 2, Music_Route36_Ch2
	musicheader 1, 3, Music_Route36_Ch3


Music_Route36_Ch1:
	tempo 213
	volume $77
	notetype $c, $95
	dutycycle $0
	stereopanning $f0
	octave 3
	note F#, 4
	note F#, 3
	note F#, 2
	note E_, 3
	note E_, 3
	note E_, 2
	note E_, 3
	note E_, 3
	note E_, 2
	note D#, 3
	note D#, 4
	note F#, 4
	note F#, 3
	note F#, 2
	note E_, 3
	note E_, 3
	note E_, 2
	note E_, 3
	note E_, 3
	note E_, 2
	note D#, 3
	note D#, 4
Music_Route36_Ch1_Loop:
	octave 3
	note __, 2
	note F#, 2
	note F#, 3
	note F#, 1
	note F#, 1
	note F#, 1
	note F#, 1
	note F#, 1
	note F#, 2
	note F#, 1
	note F#, 1
	note E_, 1
	note E_, 1
	note E_, 1
	note E_, 1
	note E_, 2
	note E_, 1
	note E_, 9
	note __, 2
	note F#, 2
	note F#, 3
	note F#, 1
	note F#, 1
	note F#, 1
	note F#, 2
	note F#, 2
	note F#, 1
	note F#, 1
	note E_, 2
	note E_, 1
	note E_, 1
	note E_, 2
	note E_, 1
	note E_, 9
	note F#, 1
	note F#, 1
	note F#, 1
	note F#, 3
	note F#, 1
	note F#, 3
	note F#, 1
	note F#, 2
	note F#, 3
	note E_, 3
	note E_, 1
	note E_, 1
	note E_, 2
	note E_, 4
	octave 2
	note B_, 1
	note B_, 2
	note B_, 1
	note B_, 3
	octave 3
	note C#, 3
	note C#, 2
	note C#, 3
	note C#, 3
	note C#, 2
	octave 2
	note B_, 3
	note B_, 3
	note B_, 3
	note B_, 4
	note B_, 4
	note __, 2
	octave 3
	note F#, 2
	note F#, 3
	note F#, 1
	note F#, 1
	note F#, 1
	note F#, 1
	note F#, 1
	note F#, 2
	note F#, 1
	note F#, 1
	note E_, 1
	note E_, 1
	note E_, 1
	note E_, 1
	note E_, 2
	note E_, 1
	note E_, 9
	note __, 2
	note F#, 2
	note F#, 3
	note F#, 1
	note F#, 1
	note F#, 1
	note F#, 1
	note F#, 1
	note F#, 2
	note F#, 1
	note F#, 1
	note E_, 1
	note E_, 1
	note E_, 1
	note E_, 1
	note E_, 2
	note E_, 1
	note E_, 9
	note F#, 1
	note F#, 1
	note F#, 1
	note F#, 3
	note F#, 1
	note F#, 3
	note F#, 1
	note F#, 2
	note F#, 3
	note E_, 3
	note E_, 1
	note E_, 1
	note E_, 2
	note E_, 4
	octave 2
	note B_, 1
	note B_, 2
	note B_, 1
	note B_, 3
	octave 3
	note C#, 3
	note C#, 2
	note C#, 3
	note C#, 3
	note C#, 2
	octave 2
	note B_, 3
	note B_, 3
	note B_, 3
	note F#, 2
	note __, 6
	octave 3
	note D_, 2
	note D_, 2
	note D_, 2
	note D_, 1
	note D_, 3
	note E_, 2
	note __, 2
	note E_, 1
	note E_, 3
	note C#, 2
	octave 2
	note A_, 2
	note __, 1
	note A_, 2
	note __, 1
	note A_, 2
	note A_, 2
	note __, 2
	octave 3
	note D_, 2
	note D_, 2
	note D_, 2
	note D_, 1
	note D_, 3
	note E_, 2
	note __, 2
	note E_, 1
	note E_, 3
	note C#, 2
	octave 2
	note A_, 2
	note __, 1
	note A_, 2
	note __, 1
	note A_, 2
	note A_, 4
	octave 3
	note D_, 2
	note D_, 2
	note D_, 2
	note D_, 1
	note D_, 3
	note E_, 2
	octave 2
	note B_, 3
	note B_, 1
	octave 3
	note F#, 3
	note F#, 1
	note E_, 2
	note F#, 1
	note F#, 3
	note F#, 1
	note F#, 1
	note F#, 1
	note F#, 2
	note F#, 2
	note F#, 1
	octave 2
	note B_, 6
	note B_, 1
	octave 3
	note E_, 1
	note F#, 2
	note B_, 2
	note F#, 2
	octave 2
	note B_, 1
	octave 3
	note E_, 1
	note F#, 2
	note B_, 2
	note F#, 2
	octave 2
	note B_, 1
	octave 3
	note E_, 1
	note F#, 2
	note B_, 2
	note A_, 2
	note A_, 3
	note F#, 6
	note C#, 3
	note C#, 4
	note __, 4
	octave 2
	note A_, 2
	octave 3
	note D_, 1
	note D_, 2
	note D_, 1
	note D_, 1
	note D_, 1
	note D_, 2
	note D_, 2
	note A_, 3
	note F#, 6
	note C#, 3
	note C#, 4
	note __, 4
	note E_, 2
	note A_, 2
	note A_, 3
	note F#, 3
	note F#, 6
	note D_, 4
	note __, 1
	note C#, 3
	note C#, 4
	note __, 4
	note A_, 2
	note A_, 2
	note A_, 3
	note A_, 3
	note A_, 4
	note D_, 2
	note D_, 4
	note __, 1
	note C#, 3
	note C#, 4
	note C#, 2
	note __, 4
	note C#, 4
	note __, 6
	octave 2
	note E_, 1
	note F#, 2
	note E_, 1
	note F#, 2
	note E_, 1
	note F#, 1
	note A_, 1
	note B_, 1
	octave 3
	note C#, 1
	note E_, 1
	note F#, 1
	note A_, 1
	note B_, 1
	octave 4
	note C#, 1
	loopchannel 0, Music_Route36_Ch1_Loop


Music_Route36_Ch2:
	volume $77
	notetype $c, $b5
	dutycycle $1
	stereopanning $0f
	octave 3
	note A_, 4
	note A_, 3
	note A_, 2
	note A_, 3
	note A_, 3
	note A_, 2
	note A_, 3
	note A_, 3
	note A_, 2
	note A_, 3
	note A_, 4
	note A_, 4
	note A_, 3
	note A_, 2
	note A_, 3
	note A_, 3
	note A_, 2
	note A_, 3
	note A_, 3
	note A_, 2
	note A_, 3
	note A_, 4
Music_Route36_Ch2_Loop:
	note __, 2
	octave 4
	note C#, 2
	octave 3
	note B_, 3
	note A_, 1
	note B_, 1
	note A_, 1
	note B_, 1
	note A_, 1
	note B_, 2
	note B_, 1
	note A_, 1
	note B_, 1
	note A_, 1
	note B_, 1
	note A_, 1
	note B_, 2
	octave 4
	note C#, 1
	octave 3
	note A_, 9
	note __, 2
	octave 4
	note C#, 2
	octave 3
	note B_, 3
	note A_, 1
	note B_, 1
	note A_, 1
	note B_, 2
	note B_, 2
	note B_, 1
	note A_, 1
	note B_, 2
	note B_, 1
	note A_, 1
	note B_, 2
	octave 4
	note C#, 1
	octave 3
	note A_, 9
	octave 4
	note C#, 1
	note E_, 1
	note C#, 1
	note E_, 3
	note E_, 1
	note F#, 3
	note E_, 1
	octave 3
	note B_, 2
	note A_, 3
	note B_, 3
	note B_, 1
	note B_, 1
	octave 4
	note C#, 2
	octave 3
	note A_, 4
	note F#, 1
	note F#, 2
	note G#, 1
	note A_, 3
	note F#, 3
	note F#, 2
	note E_, 3
	note E_, 3
	note E_, 2
	note E_, 3
	note E_, 3
	note E_, 3
	note D#, 4
	note D#, 4
	note F#, 2
	octave 4
	note C#, 2
	octave 3
	note B_, 3
	note A_, 1
	note B_, 1
	note A_, 1
	note B_, 1
	note A_, 1
	note B_, 2
	note B_, 1
	note A_, 1
	note B_, 1
	note A_, 1
	note B_, 1
	note A_, 1
	note B_, 2
	octave 4
	note C#, 1
	octave 3
	note A_, 9
	note __, 2
	octave 4
	note C#, 2
	octave 3
	note B_, 3
	note A_, 1
	note B_, 1
	note A_, 1
	note B_, 1
	note A_, 1
	note B_, 2
	note B_, 1
	note A_, 1
	note B_, 1
	note A_, 1
	note B_, 1
	note A_, 1
	note B_, 2
	octave 4
	note C#, 1
	octave 3
	note A_, 9
	octave 4
	note C#, 1
	note E_, 1
	note C#, 1
	note E_, 3
	note E_, 1
	note F#, 3
	note E_, 1
	octave 3
	note B_, 2
	note A_, 3
	note B_, 3
	note B_, 1
	note B_, 1
	octave 4
	note C#, 2
	octave 3
	note A_, 4
	note F#, 1
	note F#, 2
	note G#, 1
	note A_, 3
	note F#, 3
	note F#, 2
	note E_, 3
	note E_, 3
	note E_, 2
	note E_, 3
	note E_, 3
	note E_, 3
	note D#, 2
	octave 2
	note F#, 1
	note B_, 1
	octave 3
	note D#, 2
	note G#, 2
	note A_, 2
	note B_, 2
	note F#, 2
	note G#, 1
	note A_, 3
	note B_, 2
	note F#, 2
	note G#, 1
	note A_, 3
	note F#, 2
	note C#, 2
	octave 2
	note A_, 1
	octave 3
	note C#, 2
	octave 2
	note A_, 1
	octave 3
	note C#, 2
	note C#, 2
	note G#, 2
	note A_, 2
	note B_, 2
	note F#, 2
	note G#, 1
	note A_, 3
	note B_, 2
	note F#, 2
	note G#, 1
	note A_, 3
	note F#, 2
	note C#, 2
	octave 2
	note A_, 1
	octave 3
	note C#, 2
	octave 2
	note A_, 1
	octave 3
	note C#, 2
	note C#, 4
	note A_, 2
	note B_, 2
	note F#, 2
	note G#, 1
	note A_, 3
	note B_, 2
	note E_, 3
	note E_, 1
	octave 4
	note C#, 3
	note C#, 1
	octave 3
	note B_, 2
	octave 4
	note C#, 1
	octave 3
	note A_, 3
	note A_, 1
	note A_, 1
	note B_, 1
	octave 4
	note C#, 2
	octave 3
	note B_, 2
	note A_, 1
	note F#, 6
	note __, 8
	note __, 8
	note __, 4
	note __, 1
	note B_, 1
	octave 4
	note C#, 2
	note C#, 3
	octave 3
	note A_, 6
	note F#, 3
	note F#, 4
	note __, 4
	note C#, 2
	note F#, 1
	note A_, 2
	note F#, 1
	note A_, 1
	note F#, 1
	note A_, 2
	note A_, 2
	octave 4
	note C#, 3
	octave 3
	note A_, 6
	note F#, 3
	note F#, 4
	note __, 4
	note A_, 2
	octave 4
	note C#, 2
	note D_, 3
	note E_, 3
	octave 3
	note A_, 6
	note F#, 4
	note __, 1
	note F#, 3
	note F#, 4
	note __, 4
	octave 4
	note C#, 2
	note C#, 2
	note D_, 3
	note C#, 3
	note C#, 4
	octave 3
	note B_, 2
	note A_, 4
	note __, 1
	note F#, 3
	note F#, 4
	note E_, 2
	octave 2
	note A_, 1
	octave 3
	note C#, 1
	note E_, 2
	note F#, 4
	note __, 6
	note __, 16
	loopchannel 0, Music_Route36_Ch2_Loop


Music_Route36_Ch3:
	notetype $c, $27
	octave 1
	note F#, 2
	note F#, 2
	note F#, 2
	note F#, 2
	note A_, 2
	note A_, 2
	note A_, 2
	note A_, 2
	note E_, 2
	note E_, 2
	note E_, 2
	note E_, 2
	note B_, 2
	note B_, 2
	note B_, 2
	note A_, 1
	note G#, 1
	note F#, 2
	note F#, 2
	note F#, 2
	note F#, 2
	note A_, 2
	note A_, 2
	note A_, 2
	note A_, 2
	octave 2
	note E_, 2
	note E_, 2
	note E_, 2
	note E_, 2
	octave 1
	note B_, 2
	note B_, 2
	note B_, 2
	note A_, 1
	note G#, 1
Music_Route36_Ch3_Loop:
	octave 1
	note F#, 4
	note F#, 2
	note F#, 2
	note A_, 4
	note A_, 2
	note A_, 2
	octave 2
	note E_, 4
	note E_, 2
	note E_, 1
	octave 1
	note B_, 2
	note B_, 1
	note B_, 1
	note B_, 1
	note B_, 2
	note A_, 1
	note G#, 1
	note F#, 4
	note F#, 2
	note F#, 2
	note A_, 4
	note A_, 2
	note A_, 2
	octave 2
	note E_, 4
	note E_, 2
	note E_, 1
	octave 1
	note B_, 2
	note B_, 1
	note B_, 1
	note B_, 1
	note B_, 2
	note A_, 1
	note G#, 1
	octave 2
	note F#, 4
	octave 1
	note F#, 2
	octave 2
	note F#, 2
	octave 1
	note A_, 4
	octave 2
	note A_, 2
	octave 1
	note A_, 2
	octave 2
	note E_, 4
	octave 1
	note E_, 4
	octave 2
	note F#, 4
	octave 1
	note B_, 4
	note F#, 4
	note F#, 2
	note F#, 2
	note A_, 4
	note A_, 2
	note A_, 2
	octave 2
	note E_, 4
	note E_, 2
	note E_, 1
	octave 1
	note B_, 2
	note B_, 1
	note B_, 1
	note B_, 1
	note B_, 2
	note A_, 1
	note G#, 1
	octave 2
	note F#, 4
	octave 1
	note F#, 2
	octave 2
	note F#, 2
	octave 1
	note A_, 4
	octave 2
	note A_, 2
	octave 1
	note A_, 2
	octave 2
	note E_, 4
	octave 1
	note E_, 2
	octave 2
	note E_, 1
	octave 1
	note B_, 2
	note B_, 1
	note B_, 1
	note B_, 1
	note B_, 2
	note A_, 1
	note G#, 1
	octave 2
	note F#, 4
	octave 1
	note F#, 2
	octave 2
	note F#, 2
	octave 1
	note A_, 4
	octave 2
	note A_, 2
	octave 1
	note A_, 2
	octave 2
	note E_, 4
	octave 1
	note E_, 2
	octave 2
	note E_, 1
	octave 1
	note B_, 2
	note B_, 1
	note B_, 1
	note B_, 1
	note B_, 2
	note A_, 1
	note G#, 1
	octave 2
	note F#, 4
	octave 1
	note F#, 2
	octave 2
	note F#, 2
	octave 1
	note A_, 4
	octave 2
	note A_, 2
	octave 1
	note A_, 2
	octave 2
	note E_, 4
	octave 1
	note E_, 4
	octave 2
	note F#, 4
	octave 1
	note B_, 4
	octave 2
	note F#, 4
	octave 1
	note F#, 2
	octave 2
	note F#, 2
	octave 1
	note A_, 4
	octave 2
	note A_, 2
	octave 1
	note A_, 2
	octave 2
	note E_, 4
	octave 1
	note E_, 2
	octave 2
	note E_, 2
	octave 1
	note B_, 4
	note B_, 2
	note B_, 2
	octave 2
	note D_, 4
	octave 1
	note D_, 4
	octave 2
	note E_, 4
	octave 1
	note E_, 4
	octave 2
	note F#, 4
	octave 1
	note F#, 3
	octave 2
	note F#, 3
	octave 1
	note F#, 2
	octave 2
	note F#, 4
	note D_, 4
	octave 1
	note D_, 4
	octave 2
	note E_, 4
	octave 1
	note E_, 4
	octave 2
	note F#, 4
	octave 1
	note F#, 3
	octave 2
	note F#, 3
	octave 1
	note F#, 2
	octave 2
	note F#, 4
	note D_, 4
	octave 1
	note D_, 4
	octave 2
	note E_, 1
	octave 1
	note E_, 3
	octave 2
	note E_, 4
	note A_, 4
	octave 1
	note G#, 4
	octave 2
	note F#, 4
	octave 1
	note A_, 4
	note B_, 4
	octave 2
	note B_, 2
	note F#, 2
	octave 1
	note B_, 1
	octave 2
	note E_, 1
	note F#, 2
	note B_, 2
	note F#, 2
	octave 1
	note B_, 1
	octave 2
	note E_, 1
	note F#, 2
	note B_, 2
	note F#, 2
	octave 1
	note B_, 1
	octave 2
	note E_, 1
	note F#, 2
	note B_, 2
	note __, 2
	octave 1
	note D_, 3
	octave 2
	note D_, 1
	octave 1
	note D_, 2
	octave 2
	note D_, 2
	octave 1
	note F#, 3
	octave 2
	note F#, 1
	octave 1
	note F#, 2
	octave 2
	note F#, 2
	octave 1
	note A_, 3
	octave 2
	note A_, 1
	octave 1
	note A_, 2
	octave 2
	note A_, 2
	octave 1
	note F#, 3
	octave 2
	note F#, 1
	octave 1
	note F#, 2
	octave 2
	note F#, 2
	octave 1
	note D_, 3
	octave 2
	note D_, 1
	octave 1
	note D_, 2
	octave 2
	note D_, 2
	octave 1
	note F#, 3
	octave 2
	note F#, 1
	octave 1
	note F#, 2
	octave 2
	note F#, 2
	octave 1
	note A_, 3
	octave 2
	note A_, 1
	octave 1
	note A_, 2
	octave 2
	note A_, 2
	octave 1
	note F#, 3
	octave 2
	note F#, 1
	octave 1
	note F#, 2
	octave 2
	note F#, 2
	octave 1
	note D_, 3
	octave 2
	note D_, 1
	octave 1
	note D_, 2
	octave 2
	note D_, 2
	octave 1
	note F#, 3
	octave 2
	note F#, 1
	octave 1
	note F#, 2
	octave 2
	note F#, 2
	octave 1
	note A_, 3
	octave 2
	note A_, 1
	octave 1
	note A_, 2
	octave 2
	note A_, 2
	octave 1
	note F#, 3
	octave 2
	note F#, 1
	octave 1
	note F#, 2
	octave 2
	note F#, 2
	octave 1
	note D_, 3
	octave 2
	note D_, 1
	octave 1
	note D_, 2
	octave 2
	note D_, 2
	octave 1
	note F#, 3
	octave 2
	note F#, 1
	octave 1
	note F#, 2
	octave 2
	note F#, 2
	octave 1
	note A_, 4
	note __, 2
	note F#, 10
	note E_, 1
	note F#, 2
	note E_, 1
	note F#, 2
	note E_, 1
	note F#, 1
	note A_, 1
	note B_, 1
	octave 2
	note C#, 1
	note E_, 1
	note F#, 1
	note A_, 1
	note B_, 1
	octave 3
	note C#, 1
	loopchannel 0, Music_Route36_Ch3_Loop


