Music_SproutTower:
	musicheader 3, 1, Music_SproutTower_Ch1
	musicheader 1, 2, Music_SproutTower_Ch2
	musicheader 1, 3, Music_SproutTower_Ch3


Music_SproutTower_Ch1:
	tempo 192
	volume $77
	notetype $c, $00
	dutycycle $2
	intensity $95
	tone $0001
	stereopanning $f0
Music_SproutTower_Ch1_Loop:
	octave 4
	octave 1
	note A_, 4
	note __, 4
	note __, 8
	note A_, 6
	octave 2
	note E_, 2
	note D#, 4
	note E_, 4
	octave 1
	note A_, 4
	note __, 4
	note __, 8
	note A_, 6
	octave 2
	note E_, 2
	note D#, 4
	note E_, 4
	note A_, 4
	octave 3
	note E_, 4
	octave 2
	note A_, 4
	octave 3
	note E_, 4
	octave 2
	note A_, 4
	octave 3
	note D#, 4
	octave 2
	note A_, 4
	octave 3
	note D#, 4
	octave 2
	note A_, 4
	octave 3
	note D_, 4
	octave 2
	note A_, 4
	octave 3
	note D_, 4
	octave 2
	note A_, 4
	octave 3
	note E_, 4
	octave 2
	note A_, 4
	note B_, 4
	note A_, 4
	octave 3
	note E_, 4
	octave 2
	note A_, 4
	octave 3
	note E_, 4
	octave 2
	note A_, 4
	octave 3
	note D#, 4
	octave 2
	note A_, 4
	octave 3
	note D#, 4
	octave 2
	note A_, 4
	octave 3
	note D_, 4
	octave 2
	note A_, 4
	octave 3
	note D_, 4
	note E_, 2
	note D_, 2
	note C_, 2
	octave 2
	note B_, 2
	note A_, 2
	note F_, 2
	note C_, 2
	note A_, 2
	note __, 16
	note __, 16
	octave 3
	note A_, 8
	note G#, 4
	octave 4
	note C_, 2
	note C#, 2
	note C_, 4
	octave 3
	note B_, 8
	note A#, 2
	note B_, 2
	note A#, 4
	note A_, 8
	note G#, 2
	note A_, 2
	note G#, 8
	note G_, 6
	octave 2
	note A#, 1
	note __, 1
	note B_, 1
	note __, 1
	note F#, 1
	note __, 1
	note F_, 1
	note __, 1
	note F#, 1
	note __, 1
	octave 1
	note B_, 2
	note __, 2
	note __, 4
	octave 2
	note E_, 2
	note __, 2
	note __, 4
	note E_, 2
	note __, 2
	note __, 4
	loopchannel 0, Music_SproutTower_Ch1_Loop


Music_SproutTower_Ch2:
	volume $77
	notetype $c, $00
	dutycycle $0
	intensity $95
Music_SproutTower_Ch2_Loop:
	octave 4
	note __, 16
	note __, 16
	note __, 16
	note __, 16
	note __, 2
	note E_, 2
	note E_, 2
	note E_, 2
	note E_, 4
	note C_, 2
	note E_, 2
	note D#, 4
	octave 3
	note B_, 12
	note __, 2
	octave 4
	note D_, 2
	note D_, 2
	note D_, 2
	note D_, 4
	octave 3
	note B_, 2
	octave 4
	note D_, 2
	note C_, 4
	note __, 2
	octave 3
	note A#, 2
	note B_, 4
	note E_, 4
	note __, 2
	octave 4
	note E_, 2
	note E_, 2
	note E_, 2
	note E_, 4
	note C_, 2
	note E_, 2
	note D#, 4
	octave 3
	note B_, 4
	note __, 8
	note __, 2
	octave 4
	note D_, 2
	note D_, 2
	note D_, 2
	note D_, 4
	octave 3
	note B_, 2
	octave 4
	note D_, 2
	note E_, 2
	note D_, 2
	note C_, 2
	octave 3
	note B_, 2
	note A_, 8
	note __, 4
	note __, 4
	note __, 4
	note __, 2
	octave 2
	note G#, 2
	note A_, 2
	note B_, 2
	octave 3
	note C_, 2
	note D_, 2
	note E_, 4
	note A_, 4
	octave 4
	note C_, 8
	octave 3
	note B_, 4
	octave 4
	note D#, 2
	note E_, 2
	note D#, 4
	note D_, 8
	note C#, 2
	note D_, 2
	note C#, 4
	note C_, 8
	octave 3
	note B_, 2
	octave 4
	note C_, 2
	octave 3
	note B_, 8
	note A#, 6
	note D#, 1
	note __, 1
	note E_, 1
	note __, 1
	octave 2
	note B_, 1
	note __, 1
	note A#, 1
	note __, 1
	note B_, 1
	note __, 1
	note E_, 2
	note __, 2
	note __, 4
	note __, 16
	loopchannel 0, Music_SproutTower_Ch2_Loop


Music_SproutTower_Ch3:
	notetype $c, $00
	intensity $12
	stereopanning $0f
Music_SproutTower_Ch3_Loop:
	octave 4
	octave 1
	note A_, 4
	note __, 4
	note __, 8
	note A_, 6
	octave 2
	note E_, 2
	note D#, 4
	note E_, 4
	octave 1
	note A_, 4
	note __, 4
	note __, 8
	note A_, 6
	octave 2
	note E_, 2
	note D#, 4
	note E_, 4
	octave 1
	note A_, 4
	note __, 4
	note __, 8
	note A_, 6
	octave 2
	note E_, 2
	note D#, 4
	note E_, 4
	octave 1
	note A_, 4
	note __, 4
	note __, 8
	note __, 6
	octave 2
	note E_, 2
	note D#, 4
	note E_, 4
	octave 1
	note A_, 4
	note __, 4
	note __, 8
	note __, 6
	octave 2
	note E_, 2
	note D#, 4
	note E_, 4
	octave 1
	note A_, 4
	note __, 4
	note __, 8
	octave 2
	note E_, 2
	note D_, 2
	note C_, 2
	octave 1
	note B_, 2
	note A_, 8
	note A_, 8
	note __, 4
	note __, 4
	note __, 16
	octave 2
	note D#, 8
	note E_, 4
	note E_, 2
	note __, 2
	note E_, 2
	note __, 2
	note E_, 2
	note __, 2
	note E_, 2
	note __, 2
	note E_, 2
	note __, 2
	note E_, 2
	note __, 2
	note E_, 2
	note __, 2
	note E_, 2
	note __, 2
	note E_, 2
	note __, 2
	note E_, 2
	note __, 2
	note E_, 2
	note __, 2
	note E_, 2
	note __, 2
	note E_, 2
	octave 3
	note D#, 1
	note __, 1
	note E_, 1
	note __, 1
	octave 2
	note B_, 1
	note __, 1
	note A#, 1
	note __, 1
	note B_, 1
	note __, 1
	note E_, 2
	note __, 2
	note __, 4
	octave 1
	note E_, 2
	note __, 2
	note __, 4
	note E_, 2
	note __, 2
	note __, 4
	loopchannel 0, Music_SproutTower_Ch3_Loop

