Music_TitleScreen:
	musicheader 4, 1, Music_TitleScreen_Ch1
	musicheader 1, 2, Music_TitleScreen_Ch2
	musicheader 1, 3, Music_TitleScreen_Ch3
	musicheader 1, 4, Music_TitleScreen_Ch4


Music_TitleScreen_Ch1:
	tempo 288
	volume $77
	notetype $c, $00
	dutycycle $2
	intensity $95
	stereopanning $f0
	octave 4
	note D_, 1
	note G_, 1
	note B_, 1
	note E_, 2
	note F#, 2
	note F#, 1
	note F#, 1
	note F#, 2
	note D_, 4
	note __, 1
	note D_, 1
	note G_, 1
	note B_, 1
	note E_, 2
	note F#, 2
	note F#, 9
Music_TitleScreen_Ch1_Loop:
	note __, 8
	note __, 8
	note __, 8
	note __, 8
	note __, 8
	note __, 8
	note __, 8
	note __, 8
	note __, 8
	note __, 8
	note B_, 1
	note A_, 1
	note G_, 1
	note A_, 1
	note A_, 1
	note A_, 1
	note G_, 1
	note A_, 1
	note F#, 8
	note __, 8
	note __, 4
	note __, 1
	note D_, 3
	note __, 8
	note __, 8
	note B_, 1
	note G_, 1
	note D_, 1
	note G_, 1
	note A_, 1
	note F#, 1
	note D_, 2
	note G_, 1
	note D_, 1
	octave 3
	note B_, 1
	octave 4
	note D_, 1
	note A_, 1
	note D_, 1
	note D_, 2
	note B_, 1
	note G_, 1
	note D_, 1
	note G_, 1
	note A_, 1
	note F#, 1
	note D_, 2
	note B_, 1
	note B_, 1
	note B_, 1
	note B_, 1
	octave 5
	note D_, 1
	octave 4
	note G_, 1
	note __, 1
	note F#, 9
	loopchannel 0, Music_TitleScreen_Ch1_Loop


Music_TitleScreen_Ch2:
	volume $77
	notetype $c, $00
	dutycycle $2
	intensity $95
	stereopanning $0f
	octave 4
	note G_, 1
	note B_, 1
	octave 5
	note D_, 1
	note C#, 2
	note D_, 2
	note D_, 1
	note D_, 1
	octave 4
	note A_, 2
	note B_, 4
	note __, 1
	note G_, 1
	note B_, 1
	octave 5
	note D_, 1
	note C#, 2
	note D_, 2
	note D_, 9
Music_TitleScreen_Ch2_Loop:
	octave 4
	note F#, 1
	note F#, 1
	note A_, 1
	note A_, 1
	octave 5
	note E_, 2
	note C#, 1
	note D_, 9
	octave 4
	note B_, 1
	note B_, 1
	octave 5
	note D_, 1
	note D_, 1
	note F#, 2
	note D_, 1
	octave 4
	note A_, 4
	note G_, 1
	note G_, 4
	note F#, 1
	note F#, 1
	note A_, 1
	note A_, 1
	octave 5
	note E_, 2
	note C#, 1
	note D_, 9
	octave 4
	note B_, 1
	note B_, 1
	octave 5
	note D_, 1
	note D_, 1
	note F#, 2
	note D_, 1
	octave 4
	note A_, 4
	note G_, 1
	note G_, 4
	note F#, 1
	note E_, 1
	note D_, 1
	note E_, 1
	note F#, 2
	note B_, 2
	octave 5
	note D_, 2
	note F#, 2
	note B_, 4
	note D_, 1
	note C#, 1
	octave 4
	note B_, 1
	octave 5
	note C#, 1
	note D_, 1
	note C#, 1
	octave 4
	note B_, 1
	octave 5
	note C#, 1
	note D_, 8
	octave 4
	note A_, 1
	note A_, 1
	note A_, 1
	octave 2
	note F#, 1
	octave 4
	note A_, 1
	note F#, 1
	note E_, 1
	note D_, 7
	note __, 2
	note A_, 1
	note A_, 1
	note A_, 1
	octave 2
	note F#, 1
	octave 5
	note E_, 1
	note D_, 1
	note C#, 1
	note D_, 7
	octave 4
	note B_, 1
	octave 5
	note C#, 1
	note D_, 1
	note C#, 1
	octave 4
	note B_, 1
	octave 5
	note C#, 1
	note D_, 1
	note C#, 1
	octave 4
	note B_, 1
	octave 5
	note C#, 1
	note D_, 1
	note C#, 1
	octave 4
	note B_, 1
	octave 5
	note C#, 1
	note D_, 1
	octave 4
	note F#, 1
	note A_, 1
	note A_, 1
	octave 5
	note D_, 1
	note C#, 1
	octave 4
	note B_, 1
	octave 5
	note C#, 1
	note D_, 1
	note C#, 1
	octave 4
	note B_, 1
	octave 5
	note C#, 1
	note D_, 1
	note D_, 1
	note D_, 1
	note D_, 1
	note F#, 1
	note D_, 1
	note __, 1
	note D_, 9
	loopchannel 0, Music_TitleScreen_Ch2_Loop


Music_TitleScreen_Ch3:
	notetype $c, $00
	intensity $24
	stereopanning $f0
	octave 3
	note G_, 3
	note A_, 4
	note __, 1
	note D_, 3
	note G_, 4
	note __, 1
	note G_, 3
	note A_, 4
	note D_, 9
Music_TitleScreen_Ch3_Loop:
	octave 3
	note D_, 1
	note F#, 1
	note A_, 1
	note D_, 1
	note C#, 1
	note E_, 1
	note A_, 1
	note C#, 1
	octave 2
	note B_, 1
	octave 3
	note D_, 1
	note F#, 1
	octave 2
	note B_, 1
	note A_, 1
	octave 3
	note D_, 1
	note F#, 1
	octave 2
	note A_, 1
	note G_, 1
	note B_, 1
	octave 3
	note D_, 1
	octave 2
	note G_, 1
	note F#, 1
	note A_, 1
	octave 3
	note D_, 1
	octave 2
	note F#, 1
	note F_, 1
	note A_, 1
	octave 3
	note C_, 1
	octave 2
	note F_, 1
	note A_, 1
	octave 3
	note A_, 1
	note C#, 1
	octave 2
	note A_, 1
	octave 3
	note D_, 1
	note F#, 1
	note A_, 1
	note D_, 1
	note C#, 1
	note E_, 1
	note A_, 1
	note C#, 1
	octave 2
	note B_, 1
	octave 3
	note D_, 1
	note F#, 1
	octave 2
	note B_, 1
	note A_, 1
	octave 3
	note D_, 1
	note F#, 1
	octave 2
	note A_, 1
	note G_, 1
	note B_, 1
	octave 3
	note D_, 1
	octave 2
	note G_, 1
	note F#, 1
	note A_, 1
	octave 3
	note D_, 1
	octave 2
	note F#, 1
	note F_, 1
	note A_, 1
	octave 3
	note C_, 1
	octave 2
	note F_, 1
	note A_, 1
	octave 3
	note A_, 1
	note C#, 1
	octave 2
	note A_, 1
	note B_, 1
	note B_, 1
	note B_, 1
	note B_, 1
	note A#, 1
	note A#, 1
	note A#, 1
	note A#, 1
	note A_, 1
	note A_, 1
	note A_, 1
	note A_, 1
	note G#, 1
	note G#, 1
	note G#, 1
	note G#, 1
	note G_, 1
	note G_, 1
	note G_, 1
	note G_, 1
	note A_, 1
	note A_, 1
	note A_, 1
	note A_, 1
	note D_, 8
	note F#, 1
	octave 3
	note C#, 1
	note F#, 2
	note __, 1
	octave 4
	note C#, 1
	octave 3
	note C#, 2
	octave 2
	note G_, 1
	octave 3
	note D_, 1
	note G_, 1
	octave 2
	note G_, 1
	note __, 1
	note __, 1
	octave 3
	note D_, 2
	octave 2
	note F#, 1
	octave 3
	note C#, 1
	note F#, 2
	octave 2
	note A_, 1
	note A_, 1
	octave 3
	note E_, 1
	octave 2
	note A_, 1
	octave 3
	note D_, 1
	octave 2
	note A_, 1
	octave 3
	note D_, 1
	note F#, 1
	note A_, 1
	note D_, 1
	note F#, 1
	note A_, 1
	octave 2
	note G_, 1
	note G_, 1
	note G_, 1
	note G_, 1
	note F#, 1
	note F#, 1
	note F#, 1
	note F#, 1
	note E_, 1
	note E_, 1
	note E_, 1
	note E_, 1
	note F#, 1
	note F#, 1
	note F#, 1
	note F#, 1
	note G_, 1
	note G_, 1
	note G_, 1
	note G_, 1
	note F#, 1
	note F#, 1
	note F#, 1
	note F#, 1
	note E_, 1
	note E_, 1
	note E_, 1
	note E_, 1
	note A_, 1
	note A_, 1
	note A_, 1
	note A_, 1
	note D_, 8
	loopchannel 0, Music_TitleScreen_Ch3_Loop


Music_TitleScreen_Ch4:
	notetype $c
	togglenoise 3
	stereopanning $0f
	note __, 8
	note __, 8
	note __, 8
	note C_, 2
	note C_, 2
	note C_, 2
	note C_, 2
Music_TitleScreen_Ch4_Loop:
	note F_, 1
	note F_, 1
	note G_, 1
	note G_, 1
	note F_, 1
	note F_, 1
	note G_, 1
	note G_, 1
	note F_, 1
	note F_, 1
	note G_, 1
	note G_, 1
	note F_, 1
	note F_, 1
	note G_, 1
	note G_, 1
	note F_, 1
	note F_, 1
	note G_, 1
	note G_, 1
	note F_, 1
	note F_, 1
	note G_, 1
	note G_, 1
	note F_, 1
	note F_, 1
	note G_, 1
	note G_, 1
	note F_, 1
	note F_, 1
	note G_, 1
	note G_, 1
	note F_, 1
	note F_, 1
	note G_, 1
	note G_, 1
	note F_, 1
	note F_, 1
	note G_, 1
	note G_, 1
	note F_, 1
	note F_, 1
	note G_, 1
	note G_, 1
	note F_, 1
	note F_, 1
	note G_, 1
	note G_, 1
	note F_, 1
	note F_, 1
	note G_, 1
	note G_, 1
	note F_, 1
	note F_, 1
	note G_, 1
	note G_, 1
	note F_, 1
	note F_, 1
	note G_, 1
	note G_, 1
	note F_, 1
	note F_, 1
	note G_, 1
	note G_, 1
	note C_, 1
	note C_, 1
	note C_, 1
	note C_, 1
	note C_, 1
	note C_, 1
	note C_, 1
	note C_, 1
	note C_, 1
	note C_, 1
	note C_, 1
	note C_, 1
	note C_, 1
	note C_, 1
	note C_, 1
	note C_, 1
	note C_, 1
	note C_, 1
	note C_, 1
	note C_, 1
	note C_, 1
	note C_, 1
	note C_, 1
	note C_, 1
	note F_, 8
	note C_, 1
	note C_, 1
	note G_, 1
	note C_, 1
	note G_, 1
	note F_, 1
	note F_, 1
	note F_, 1
	note F_, 1
	note C_, 1
	note G_, 1
	note F_, 1
	note F_, 4
	note C_, 1
	note C_, 1
	note G_, 1
	note C_, 1
	note G_, 1
	note F_, 1
	note C_, 1
	note F_, 1
	note C_, 1
	note C_, 1
	note G_, 1
	note G_, 1
	note C_, 1
	note C_, 1
	note G_, 1
	note G_, 1
	note F_, 1
	note F_, 1
	note C_, 1
	note C_, 1
	note F_, 1
	note F_, 1
	note C_, 1
	note C_, 1
	note F_, 1
	note F_, 1
	note C_, 1
	note C_, 1
	note F_, 1
	note F_, 1
	note C_, 1
	note C_, 1
	note F_, 1
	note F_, 1
	note C_, 1
	note C_, 1
	note F_, 1
	note F_, 1
	note C_, 1
	note C_, 1
	note F_, 1
	note F_, 1
	note C_, 1
	note C_, 1
	note F_, 1
	note F_, 1
	note C_, 1
	note C_, 1
	note A_, 8
	loopchannel 0, Music_TitleScreen_Ch4_Loop


