Music_UnionCave:
	musicheader 3, 1, Music_UnionCave_Ch1
	musicheader 1, 2, Music_UnionCave_Ch2
	musicheader 1, 3, Music_UnionCave_Ch3


Music_UnionCave_Ch1:
	tempo 153
	volume $77
	notetype $c, $95
	dutycycle $0
	stereopanning $f0
Music_UnionCave_Ch1_Loop:
	octave 4
	octave 2
	note A_, 2
	octave 3
	note E_, 2
	note B_, 2
	note E_, 2
	octave 4
	note C#, 2
	octave 3
	note B_, 2
	note E_, 2
	note B_, 2
	octave 2
	note A_, 2
	octave 3
	note E_, 2
	note B_, 2
	note E_, 2
	octave 4
	note C#, 2
	octave 3
	note B_, 2
	note E_, 2
	note B_, 2
	octave 2
	note F#, 2
	octave 3
	note C#, 2
	note G#, 2
	note C#, 2
	note A_, 2
	note G#, 2
	note C#, 2
	note G#, 2
	octave 2
	note F#, 2
	octave 3
	note C#, 2
	note G#, 2
	note C#, 2
	note A_, 2
	note G#, 2
	note C#, 2
	note G#, 2
	note D_, 2
	note A_, 2
	octave 4
	note E_, 2
	octave 3
	note A_, 2
	octave 4
	note D_, 2
	octave 3
	note A_, 2
	note D_, 2
	note A_, 2
	note E_, 2
	note B_, 2
	octave 4
	note F#, 2
	octave 3
	note B_, 2
	octave 4
	note E_, 2
	octave 3
	note B_, 2
	note E_, 2
	note B_, 2
	octave 2
	note A_, 2
	octave 3
	note E_, 2
	note B_, 2
	note E_, 2
	octave 4
	note C#, 2
	octave 3
	note B_, 2
	note E_, 2
	note B_, 2
	octave 2
	note A_, 2
	octave 3
	note E_, 2
	note B_, 2
	note E_, 2
	octave 4
	note C#, 2
	octave 3
	note B_, 2
	note E_, 2
	note B_, 2
	octave 2
	note A_, 2
	octave 3
	note E_, 2
	note B_, 2
	note E_, 2
	octave 4
	note C#, 2
	octave 3
	note B_, 2
	note E_, 2
	note B_, 2
	octave 2
	note A_, 2
	octave 3
	note E_, 2
	note B_, 2
	note E_, 2
	octave 4
	note C#, 2
	octave 3
	note B_, 2
	note E_, 2
	note B_, 2
	octave 2
	note F#, 2
	octave 3
	note C#, 2
	note G#, 2
	note C#, 2
	note A_, 2
	note G#, 2
	note C#, 2
	note G#, 2
	octave 2
	note F#, 2
	octave 3
	note C#, 2
	note G#, 2
	note C#, 2
	note A_, 2
	note G#, 2
	note C#, 2
	note G#, 2
	note D_, 2
	note A_, 2
	octave 4
	note E_, 2
	octave 3
	note A_, 2
	octave 4
	note D_, 2
	octave 3
	note A_, 2
	note D_, 2
	note A_, 2
	note E_, 2
	note B_, 2
	octave 4
	note F#, 2
	octave 3
	note B_, 2
	octave 4
	note E_, 2
	octave 3
	note B_, 2
	note E_, 2
	note B_, 2
	octave 2
	note F#, 2
	octave 3
	note C#, 2
	note G#, 2
	note C#, 2
	note A_, 2
	note G#, 2
	note C#, 2
	note G#, 2
	octave 2
	note F#, 2
	octave 3
	note C#, 2
	note G#, 2
	note C#, 2
	note A_, 2
	note G#, 2
	note C#, 2
	note G#, 2
	octave 2
	note A_, 2
	octave 3
	note E_, 2
	note B_, 2
	note E_, 2
	octave 4
	note E_, 2
	octave 3
	note A_, 2
	octave 4
	note D_, 2
	note C#, 4
	octave 3
	note E_, 2
	note B_, 2
	note E_, 2
	octave 4
	note C#, 2
	octave 3
	note B_, 2
	note E_, 2
	note B_, 2
	octave 2
	note F#, 2
	octave 3
	note C#, 2
	note G#, 2
	note C#, 2
	octave 4
	note E_, 2
	octave 3
	note A_, 2
	octave 4
	note D_, 2
	note C#, 4
	octave 3
	note C#, 2
	note G#, 2
	note C#, 2
	note A_, 2
	note G#, 2
	note C#, 2
	note G#, 2
	octave 2
	note D_, 2
	note A_, 2
	octave 3
	note E_, 2
	octave 2
	note A_, 2
	octave 3
	note D_, 2
	octave 2
	note A_, 2
	note D_, 2
	note A_, 2
	note E_, 2
	note B_, 2
	octave 3
	note F#, 2
	octave 2
	note B_, 2
	octave 3
	note E_, 2
	octave 2
	note B_, 2
	note E_, 2
	note B_, 2
	note A_, 2
	octave 3
	note E_, 2
	note B_, 2
	note E_, 2
	octave 4
	note C#, 2
	octave 3
	note B_, 2
	note E_, 2
	note B_, 2
	octave 2
	note A_, 12
	note __, 4
	note __, 2
	octave 3
	note F#, 14
	note G_, 16
	octave 2
	note A_, 2
	octave 3
	note E_, 2
	note B_, 2
	note E_, 2
	octave 4
	note C#, 2
	octave 3
	note B_, 2
	note E_, 2
	note B_, 2
	octave 2
	note A_, 2
	octave 3
	note E_, 2
	note B_, 2
	note E_, 4
	note D_, 2
	note C#, 2
	note C_, 2
	octave 2
	note B_, 2
	octave 3
	note F#, 2
	octave 4
	note C#, 2
	octave 3
	note F#, 2
	octave 4
	note D#, 2
	note C#, 2
	octave 3
	note F#, 2
	octave 4
	note C#, 2
	octave 2
	note B_, 2
	octave 3
	note F#, 2
	octave 4
	note C#, 2
	octave 3
	note F#, 2
	octave 4
	note D#, 2
	octave 3
	note F#, 2
	note F#, 4
	octave 2
	note E_, 2
	note B_, 2
	octave 3
	note F#, 2
	octave 2
	note B_, 2
	octave 3
	note G#, 2
	note F#, 2
	octave 2
	note B_, 2
	octave 3
	note F#, 2
	octave 2
	note E_, 12
	note __, 4
	note A_, 2
	octave 3
	note E_, 2
	note B_, 2
	note E_, 2
	octave 4
	note C#, 2
	octave 3
	note B_, 2
	note E_, 2
	note B_, 2
	octave 2
	note A_, 2
	octave 3
	note E_, 2
	note B_, 2
	note E_, 2
	octave 4
	note C#, 2
	octave 3
	note B_, 2
	note E_, 2
	note B_, 2
	octave 2
	note F#, 2
	octave 3
	note C#, 2
	note G#, 2
	note C#, 2
	note A_, 2
	note G#, 2
	note C#, 2
	note G#, 2
	octave 2
	note F#, 2
	octave 3
	note C#, 2
	note G#, 2
	note C#, 2
	note A_, 2
	note G#, 2
	note C#, 2
	note G#, 2
	octave 2
	note D_, 2
	note A_, 2
	octave 3
	note E_, 2
	octave 2
	note A_, 2
	octave 3
	note D_, 2
	octave 2
	note A_, 2
	note D_, 2
	note A_, 2
	note E_, 2
	note B_, 2
	octave 3
	note F#, 2
	octave 2
	note B_, 2
	octave 3
	note E_, 2
	octave 2
	note B_, 2
	note E_, 2
	note B_, 2
	note F#, 2
	octave 3
	note C#, 2
	note G#, 2
	note C#, 2
	note A_, 2
	note G#, 2
	note C#, 2
	note G#, 2
	octave 2
	note F#, 2
	octave 3
	note C#, 2
	note G#, 2
	note C#, 2
	note A_, 2
	note G#, 2
	note C#, 4
	note F_, 4
	note C_, 4
	octave 5
	note C_, 8
	octave 4
	note B_, 8
	note A_, 8
	octave 2
	note G_, 4
	octave 3
	note D_, 4
	octave 5
	note D_, 8
	note C_, 8
	octave 4
	note B_, 8
	octave 3
	note F_, 4
	note C_, 4
	octave 5
	note C_, 8
	octave 4
	note B_, 8
	note A_, 8
	octave 2
	note G_, 4
	octave 3
	note D_, 4
	octave 5
	note D_, 8
	note C_, 8
	octave 4
	note B_, 8
	octave 3
	note F_, 4
	note C_, 4
	octave 5
	note C_, 8
	octave 4
	note B_, 8
	note A_, 8
	loopchannel 0, Music_UnionCave_Ch1_Loop


Music_UnionCave_Ch2:
	volume $77
	notetype $c, $95
	dutycycle $2
Music_UnionCave_Ch2_Loop:
	octave 4
	note __, 16
	note __, 16
	note __, 16
	note __, 16
	note __, 16
	note __, 16
	note __, 16
	note __, 4
	octave 5
	note C#, 2
	note D_, 2
	note C#, 4
	octave 4
	note B_, 2
	note A_, 2
	note __, 2
	note A_, 6
	note __, 8
	note __, 2
	note E_, 2
	octave 5
	note C#, 2
	note D_, 2
	note C#, 4
	octave 4
	note B_, 2
	note A_, 2
	note A_, 6
	note __, 2
	note __, 8
	note __, 2
	note A_, 2
	note E_, 2
	octave 5
	note C#, 4
	note D_, 4
	octave 4
	note A_, 6
	note __, 2
	octave 5
	note D_, 4
	note C#, 4
	octave 4
	note B_, 6
	note __, 2
	note B_, 1
	note A_, 1
	octave 5
	note C#, 3
	octave 4
	note A_, 3
	note A_, 16
	note __, 2
	note __, 2
	note E_, 2
	octave 5
	note C#, 2
	note D_, 2
	note C#, 4
	octave 4
	note B_, 2
	note A_, 4
	octave 5
	note C#, 6
	note E_, 2
	octave 4
	note A_, 2
	octave 5
	note D_, 2
	note C#, 4
	octave 4
	note E_, 2
	octave 5
	note C#, 2
	note D_, 2
	note C#, 4
	octave 4
	note B_, 2
	note A_, 2
	note A_, 6
	note __, 2
	octave 5
	note E_, 2
	octave 4
	note A_, 2
	octave 5
	note D_, 2
	note C#, 4
	octave 4
	note A_, 2
	note E_, 2
	octave 5
	note C#, 4
	note D_, 4
	octave 4
	note A_, 6
	note __, 2
	octave 5
	note D_, 4
	note C#, 4
	octave 4
	note B_, 6
	note __, 2
	note B_, 1
	note A_, 1
	octave 5
	note C#, 3
	octave 4
	note A_, 3
	note A_, 16
	note __, 2
	note __, 4
	octave 3
	note A_, 4
	octave 4
	note C#, 4
	note E_, 2
	note D_, 4
	note F#, 16
	note __, 2
	note F#, 2
	note F#, 2
	note E_, 6
	octave 3
	note B_, 1
	note A_, 1
	note B_, 2
	octave 4
	note C#, 12
	note __, 2
	note __, 4
	note A_, 2
	note F#, 2
	note A_, 4
	note A_, 2
	note F#, 2
	note A_, 1
	note E_, 1
	note F#, 12
	note __, 2
	note __, 2
	note B_, 2
	note B_, 2
	note B_, 2
	note G#, 3
	note F#, 3
	note E_, 2
	note E_, 16
	note __, 4
	octave 5
	note C#, 2
	note D_, 2
	note C#, 4
	octave 4
	note B_, 2
	note A_, 4
	octave 5
	note C#, 8
	note __, 2
	note __, 4
	note __, 2
	octave 4
	note E_, 2
	octave 5
	note C#, 2
	note D_, 2
	note C#, 4
	octave 4
	note B_, 2
	note A_, 2
	note A_, 12
	note __, 4
	note __, 2
	note A_, 2
	note E_, 2
	octave 5
	note C#, 4
	note D_, 4
	octave 4
	note A_, 6
	note __, 2
	octave 5
	note D_, 4
	note C#, 4
	octave 4
	note B_, 6
	note __, 2
	note B_, 1
	note A_, 1
	octave 5
	note C#, 3
	octave 4
	note A_, 3
	note A_, 16
	note __, 2
	note __, 16
	note C_, 2
	note A_, 2
	note A_, 2
	note A_, 4
	note G_, 2
	note G_, 2
	note G_, 4
	note G_, 4
	note A_, 4
	note G_, 4
	note G_, 4
	octave 3
	note G_, 2
	octave 4
	note G_, 2
	note E_, 2
	note G_, 4
	note E_, 2
	note D_, 2
	note G_, 4
	octave 3
	note G_, 2
	octave 4
	note G_, 4
	note G_, 4
	note G_, 4
	octave 3
	note A_, 2
	octave 4
	note G_, 2
	note G_, 2
	note G_, 4
	note G_, 2
	note G_, 2
	note G_, 2
	note G_, 4
	note A_, 4
	octave 3
	note G_, 2
	octave 4
	note E_, 2
	note D_, 4
	octave 3
	note G_, 2
	octave 4
	note G_, 2
	note E_, 2
	note G_, 4
	note E_, 2
	note D_, 2
	note G_, 4
	octave 3
	note G_, 2
	octave 4
	note G_, 4
	note G_, 4
	note G_, 4
	octave 3
	note A_, 2
	octave 4
	note G_, 4
	note G_, 4
	note E_, 2
	note G_, 4
	note E_, 4
	note G_, 4
	note E_, 4
	note A_, 2
	loopchannel 0, Music_UnionCave_Ch2_Loop


Music_UnionCave_Ch3:
	notetype $c, $26
	stereopanning $0f
Music_UnionCave_Ch3_Loop:
	octave 4
	octave 1
	note A_, 2
	octave 2
	note E_, 2
	note B_, 2
	note E_, 2
	octave 3
	note C#, 2
	octave 2
	note B_, 2
	note E_, 2
	note B_, 2
	octave 1
	note A_, 2
	octave 2
	note E_, 2
	note B_, 2
	note E_, 2
	octave 3
	note C#, 2
	octave 2
	note B_, 2
	note E_, 2
	note B_, 2
	octave 1
	note F#, 2
	octave 2
	note C#, 2
	note G#, 2
	note C#, 2
	note A_, 2
	note G#, 2
	note C#, 2
	note G#, 2
	octave 1
	note F#, 2
	octave 2
	note C#, 2
	note G#, 2
	note C#, 2
	note A_, 2
	note G#, 2
	note C#, 2
	note G#, 2
	note D_, 2
	note A_, 2
	octave 3
	note E_, 2
	octave 2
	note A_, 2
	octave 3
	note D_, 2
	octave 2
	note A_, 2
	note D_, 2
	note A_, 2
	note E_, 2
	note B_, 2
	octave 3
	note F#, 2
	octave 2
	note B_, 2
	octave 3
	note E_, 2
	octave 2
	note B_, 2
	note E_, 2
	note B_, 2
	octave 1
	note A_, 2
	octave 2
	note E_, 2
	note B_, 2
	note E_, 2
	octave 3
	note C#, 2
	octave 2
	note B_, 2
	note E_, 2
	note B_, 2
	octave 1
	note A_, 2
	octave 2
	note E_, 2
	note B_, 2
	note E_, 2
	octave 3
	note C#, 2
	octave 2
	note B_, 2
	note E_, 2
	note B_, 2
	octave 1
	note A_, 2
	octave 2
	note E_, 2
	note B_, 2
	note E_, 2
	octave 3
	note C#, 2
	octave 2
	note B_, 2
	note E_, 2
	note B_, 2
	octave 1
	note A_, 2
	octave 2
	note E_, 2
	note B_, 2
	note E_, 2
	octave 3
	note C#, 2
	octave 2
	note B_, 2
	note E_, 2
	note B_, 2
	octave 1
	note F#, 2
	octave 2
	note C#, 2
	note G#, 2
	note C#, 2
	note A_, 2
	note G#, 2
	note C#, 2
	note G#, 2
	octave 1
	note F#, 2
	octave 2
	note C#, 2
	note G#, 2
	note C#, 2
	note A_, 2
	note G#, 2
	note C#, 2
	note G#, 2
	note D_, 2
	note A_, 2
	octave 3
	note E_, 2
	octave 2
	note A_, 2
	octave 3
	note D_, 2
	octave 2
	note A_, 2
	note D_, 2
	note A_, 2
	note E_, 2
	note B_, 2
	octave 3
	note F#, 2
	octave 2
	note B_, 2
	octave 3
	note E_, 2
	octave 2
	note B_, 2
	note E_, 2
	note B_, 2
	octave 1
	note F#, 2
	octave 2
	note C#, 2
	note G#, 2
	note C#, 2
	note A_, 2
	note G#, 2
	note C#, 2
	note G#, 2
	octave 1
	note F#, 2
	octave 2
	note C#, 2
	note G#, 2
	note C#, 2
	note A_, 2
	note G#, 2
	note C#, 2
	note G#, 2
	octave 1
	note A_, 2
	octave 2
	note E_, 2
	note B_, 2
	note E_, 2
	octave 3
	note C#, 2
	octave 2
	note B_, 2
	note E_, 2
	note B_, 2
	octave 1
	note A_, 2
	octave 2
	note E_, 2
	note B_, 2
	note E_, 2
	octave 3
	note C#, 2
	octave 2
	note B_, 2
	note E_, 2
	note B_, 2
	octave 1
	note F#, 2
	octave 2
	note C#, 2
	note G#, 2
	note C#, 2
	note A_, 2
	note G#, 2
	note C#, 2
	note G#, 2
	octave 1
	note F#, 2
	octave 2
	note C#, 2
	note G#, 2
	note C#, 2
	note A_, 2
	note G#, 2
	note C#, 2
	note G#, 2
	octave 1
	note D_, 2
	note A_, 2
	octave 2
	note E_, 2
	octave 1
	note A_, 2
	octave 2
	note D_, 2
	octave 1
	note A_, 2
	note D_, 2
	note A_, 2
	note E_, 2
	note B_, 2
	octave 2
	note F#, 2
	octave 1
	note B_, 2
	octave 2
	note E_, 2
	octave 1
	note B_, 2
	note E_, 2
	note B_, 2
	note A_, 2
	octave 2
	note E_, 2
	note B_, 2
	note E_, 2
	octave 3
	note C#, 2
	octave 2
	note B_, 2
	note E_, 2
	note B_, 2
	octave 1
	note A_, 12
	note __, 4
	octave 2
	note D_, 2
	note A_, 2
	octave 3
	note D_, 2
	note E_, 2
	note F#, 2
	note A_, 2
	octave 4
	note D_, 2
	octave 3
	note A_, 2
	octave 2
	note C_, 2
	note G_, 2
	octave 3
	note C_, 2
	note D_, 2
	note E_, 2
	note G_, 2
	note E_, 2
	note D_, 2
	octave 1
	note A_, 2
	octave 2
	note E_, 2
	note B_, 2
	note E_, 2
	octave 3
	note C#, 2
	octave 2
	note B_, 2
	note E_, 2
	note B_, 2
	octave 1
	note A_, 2
	octave 2
	note E_, 2
	note B_, 2
	note E_, 4
	note D_, 2
	note C#, 2
	note C_, 2
	octave 1
	note B_, 2
	octave 2
	note F#, 2
	octave 3
	note C#, 2
	octave 2
	note F#, 2
	octave 3
	note D#, 2
	note C#, 2
	octave 2
	note F#, 2
	octave 3
	note C#, 2
	octave 1
	note B_, 2
	octave 2
	note F#, 2
	octave 3
	note C#, 2
	octave 2
	note F#, 2
	octave 3
	note D#, 2
	octave 2
	note F#, 2
	note F#, 4
	octave 1
	note E_, 2
	note B_, 2
	octave 2
	note F#, 2
	octave 1
	note B_, 2
	octave 2
	note G#, 2
	note F#, 2
	octave 1
	note B_, 2
	octave 2
	note F#, 2
	octave 1
	note E_, 12
	note __, 4
	note A_, 2
	octave 2
	note E_, 2
	note B_, 2
	note E_, 2
	octave 3
	note C#, 2
	octave 2
	note B_, 2
	note E_, 2
	note B_, 2
	octave 1
	note A_, 2
	octave 2
	note E_, 2
	note B_, 2
	note E_, 2
	octave 3
	note C#, 2
	octave 2
	note B_, 2
	note E_, 2
	note B_, 2
	octave 1
	note F#, 2
	octave 2
	note C#, 2
	note G#, 2
	note C#, 2
	note A_, 2
	note G#, 2
	note C#, 2
	note G#, 2
	octave 1
	note F#, 2
	octave 2
	note C#, 2
	note G#, 2
	note C#, 2
	note A_, 2
	note G#, 2
	note C#, 2
	note G#, 2
	octave 1
	note D_, 2
	note A_, 2
	octave 2
	note E_, 2
	octave 1
	note A_, 2
	octave 2
	note D_, 2
	octave 1
	note A_, 2
	note D_, 2
	note A_, 2
	note E_, 2
	note B_, 2
	octave 2
	note F#, 2
	octave 1
	note B_, 2
	octave 2
	note E_, 2
	octave 1
	note B_, 2
	note E_, 2
	note B_, 2
	note F#, 2
	octave 2
	note C#, 2
	note G#, 2
	note C#, 2
	note A_, 2
	note G#, 2
	note C#, 2
	note G#, 2
	octave 1
	note F#, 2
	octave 2
	note C#, 2
	note G#, 2
	note C#, 2
	note A_, 2
	note G#, 2
	note C#, 4
	octave 1
	note F_, 4
	octave 3
	note F_, 12
	note F_, 16
	octave 1
	note G_, 4
	octave 3
	note G_, 12
	note G_, 16
	octave 1
	note F_, 4
	octave 3
	note F_, 12
	note F_, 16
	octave 1
	note G_, 4
	octave 3
	note G_, 12
	note G_, 16
	octave 1
	note F_, 4
	octave 3
	note F_, 12
	note F_, 16
	loopchannel 0, Music_UnionCave_Ch3_Loop


