Music_VioletCity:
	musicheader 4, 1, Music_VioletCity_Ch1
	musicheader 1, 2, Music_VioletCity_Ch2
	musicheader 1, 3, Music_VioletCity_Ch3
	musicheader 1, 4, Music_VioletCity_Ch4


Music_VioletCity_Ch1:
	tempo 147
	volume $77
	notetype $c, $65
	dutycycle $1
	stereopanning $0f
	octave 4
	note E_, 8
	note __, 4
	note __, 12
	note __, 12
	note __, 12
	note __, 12
	note C#, 12
	note C_, 2
	octave 3
	note A_, 4
	octave 4
	note C_, 6
	octave 3
	note B_, 2
	note G_, 4
	note B_, 6
	octave 4
	note E_, 6
	note F#, 12
	notetype $b, $65
Music_VioletCity_Ch1_Loop:
	note E_, 8
	note __, 4
	note __, 12
	note __, 12
	note C#, 12
	note E_, 8
	note __, 4
	note __, 12
	note __, 12
	note C#, 12
	note C_, 2
	note E_, 4
	note C_, 4
	octave 3
	note G_, 2
	note B_, 2
	note G_, 4
	note B_, 4
	note G_, 2
	octave 4
	note C_, 2
	note E_, 4
	note C_, 4
	octave 3
	note G_, 2
	octave 4
	note E_, 12
	note C_, 2
	octave 3
	note A_, 4
	octave 4
	note C_, 6
	octave 3
	note B_, 2
	note G_, 4
	note B_, 6
	octave 4
	note E_, 6
	note F#, 6
	octave 3
	note B_, 12
	loopchannel 0, Music_VioletCity_Ch1_Loop


Music_VioletCity_Ch2:
	volume $77
	notetype $c, $95
	dutycycle $0
	octave 4
	note B_, 2
	note G_, 4
	note F#, 4
	note G_, 2
	note B_, 2
	note G_, 4
	note F#, 4
	note G_, 2
	note B_, 2
	note G_, 4
	note F#, 4
	note G_, 2
	note E_, 2
	note E_, 4
	note E_, 4
	note F#, 2
	note E_, 2
	note D_, 4
	octave 3
	note B_, 4
	octave 4
	note D_, 2
	note E_, 12
	note A_, 2
	note E_, 4
	note A_, 6
	note G_, 2
	note E_, 4
	note G_, 6
	note A_, 6
	note B_, 12
	notetype $b, $95
Music_VioletCity_Ch2_Loop:
	note B_, 2
	note G_, 4
	note F#, 4
	note G_, 2
	note E_, 2
	note E_, 4
	note E_, 4
	note F#, 2
	note E_, 2
	note D_, 4
	octave 3
	note B_, 4
	octave 4
	note D_, 2
	note E_, 12
	note B_, 2
	note G_, 4
	note F#, 4
	note G_, 2
	note E_, 2
	note E_, 4
	note E_, 4
	note F#, 2
	note E_, 2
	note D_, 4
	octave 3
	note B_, 4
	octave 4
	note D_, 2
	note E_, 12
	note G_, 2
	note G_, 4
	note G_, 4
	note E_, 2
	note D_, 2
	note D_, 4
	note D_, 4
	note E_, 2
	note G_, 2
	note G_, 4
	note G_, 4
	note E_, 2
	note G_, 12
	note A_, 2
	note E_, 4
	note A_, 6
	note G_, 2
	note E_, 4
	note G_, 6
	note A_, 6
	note B_, 6
	note E_, 12
	loopchannel 0, Music_VioletCity_Ch2_Loop


Music_VioletCity_Ch3:
	notetype $c, $23
	stereopanning $f0
	octave 2
	note D_, 4
	note B_, 4
	note G_, 4
	note D_, 4
	note B_, 4
	note G_, 4
	note C_, 4
	note B_, 4
	note G_, 4
	octave 1
	note B_, 4
	octave 2
	note A_, 4
	note F#, 4
	octave 1
	note A_, 4
	octave 2
	note E_, 4
	note A_, 4
	octave 1
	note A_, 2
	octave 2
	note C#, 2
	note E_, 2
	note A_, 2
	octave 3
	note C#, 2
	note E_, 2
	octave 1
	note A_, 4
	octave 2
	note A_, 4
	note E_, 4
	octave 1
	note E_, 4
	octave 2
	note E_, 4
	octave 1
	note B_, 4
	octave 2
	note A_, 2
	note E_, 2
	note A_, 2
	note B_, 12
	notetype $b, $23
Music_VioletCity_Ch3_Loop:
	note E_, 4
	note B_, 4
	note D_, 4
	note B_, 4
	note G_, 4
	octave 1
	note B_, 4
	note A_, 4
	octave 2
	note A_, 4
	note E_, 4
	octave 1
	note A_, 2
	octave 2
	note E_, 2
	note A_, 2
	note B_, 2
	octave 3
	note C#, 2
	note E_, 2
	octave 2
	note E_, 4
	note B_, 4
	note D_, 4
	note B_, 4
	note G_, 4
	octave 1
	note B_, 4
	note A_, 4
	octave 2
	note A_, 4
	note E_, 4
	octave 1
	note A_, 2
	octave 2
	note E_, 2
	note A_, 2
	note B_, 2
	octave 3
	note C#, 2
	note E_, 2
	octave 2
	note C_, 4
	note G_, 4
	note E_, 4
	note G_, 4
	note D_, 4
	note G_, 4
	octave 1
	note A_, 4
	octave 2
	note G_, 4
	note E_, 4
	octave 1
	note E_, 2
	note B_, 2
	octave 2
	note E_, 2
	note F#, 2
	note G_, 2
	note B_, 2
	octave 1
	note A_, 4
	octave 2
	note A_, 4
	note E_, 4
	octave 1
	note E_, 4
	octave 2
	note E_, 4
	octave 1
	note B_, 4
	note A_, 2
	octave 2
	note E_, 2
	note A_, 2
	octave 1
	note B_, 2
	octave 2
	note F#, 2
	note A_, 2
	octave 1
	note E_, 2
	note B_, 2
	octave 2
	note E_, 2
	note F#, 2
	note G_, 2
	note B_, 2
	loopchannel 0, Music_VioletCity_Ch3_Loop


Music_VioletCity_Ch4:
	notetype $c
	togglenoise 1
	note G_, 4
	note G_, 4
	note G_, 4
	note G_, 4
	note G_, 4
	note G_, 4
	note G_, 4
	note G_, 4
	note G_, 4
	note G_, 4
	note G_, 4
	note G_, 4
	note G_, 4
	note G_, 4
	note G_, 4
	note __, 12
	note F_, 4
	note F_, 4
	note C_, 4
	note F_, 4
	note F_, 4
	note C_, 4
	note F_, 3
	note F_, 3
	note C_, 12
	notetype $b
Music_VioletCity_Ch4_Loop:
	note F_, 4
	note G_, 4
	note G_, 4
	note F_, 4
	note G_, 4
	note G_, 4
	note F_, 4
	note G_, 4
	note G_, 4
	note F_, 12
	note F_, 4
	note G_, 4
	note G_, 4
	note F_, 4
	note G_, 4
	note G_, 4
	note F_, 4
	note G_, 4
	note G_, 4
	note F_, 12
	note F_, 4
	note F_, 4
	note F_, 2
	note G_, 2
	note F_, 4
	note F_, 4
	note F_, 2
	note G_, 2
	note F_, 4
	note F_, 4
	note F_, 2
	note G_, 2
	note F_, 12
	note F_, 2
	note F_, 2
	note F_, 2
	note G_, 6
	note F_, 2
	note F_, 2
	note F_, 2
	note G_, 6
	note F_, 2
	note F_, 2
	note F_, 2
	note C_, 2
	note C_, 2
	note C_, 2
	note F_, 12
	loopchannel 0, Music_VioletCity_Ch4_Loop


