; All Star - Smash Mouth
; Demixed by Hyperdriveguy
; Note: This piece is unoptimized


Music_AllStar:
	musicheader 4, 1, Music_AllStar_Ch1
	musicheader 1, 2, Music_AllStar_Ch2
	musicheader 1, 3, Music_AllStar_Ch3
	musicheader 1, 4, Music_AllStar_Ch4


Music_AllStar_Ch1:
	tempo 192
	volume $77
	notetype $c, $95
	dutycycle $0
	stereopanning $0f
Music_AllStar_Ch1_Loop:
	octave 4
	note __, 8
	note __, 4
	note F#, 4
	note __, 2
	note G#, 2
	note G#, 4
	note __, 4
	note G#, 4
	note __, 2
	note F#, 2
	note __, 2
	note F#, 2
	note __, 4
	note F#, 4
	note __, 2
	note G#, 2
	note G#, 4
	note __, 4
	note G#, 2
	dutycycle $2
	octave 5
	note C#, 1
	note F#, 1
	note A#, 8
	note __, 4
	dutycycle $0
	octave 4
	note F#, 4
	note __, 2
	note G#, 2
	note G#, 4
	note __, 4
	note G#, 4
	note __, 2
	note F#, 2
	note __, 2
	note F#, 2
	note __, 4
	note F#, 4
	note __, 2
	note G#, 2
	note G#, 4
	note __, 4
	note G#, 4
	note __, 2
	note F#, 2
	note __, 8
	note F#, 4
	note __, 2
	note G#, 2
	note G#, 4
	note __, 4
	note G#, 4
	note __, 2
	note F#, 2
	note __, 2
	note F#, 2
	note __, 4
	note F#, 4
	note __, 2
	note G#, 2
	note G#, 4
	note __, 4
	note G#, 4
	note __, 2
	note F#, 2
	note __, 2
	note F#, 2
	note __, 4
	note F#, 4
	note __, 2
	note G#, 2
	note G#, 4
	note __, 4
	note G#, 4
	note __, 2
	note F#, 2
	note __, 2
	note F#, 2
	note __, 4
	note F#, 4
	note __, 2
	note G#, 2
	note G#, 4
	note __, 4
	note G#, 4
	note __, 2
	note F#, 2
	octave 2
	note D#, 3
	note F_, 1
	octave 3
	note C#, 2
	octave 2
	note F#, 2
	octave 3
	note C#, 2
	octave 2
	note F#, 2
	octave 3
	note F#, 2
	octave 2
	note B_, 2
	octave 3
	note F#, 2
	octave 2
	note B_, 2
	octave 3
	note F#, 2
	note C_, 2
	note F#, 2
	note C_, 2
	note F#, 2
	octave 2
	note B_, 2
	octave 3
	note F#, 2
	octave 2
	note B_, 2
	octave 3
	note C#, 2
	octave 2
	note F#, 2
	octave 3
	note C#, 2
	octave 2
	note F#, 2
	octave 3
	note F#, 2
	octave 2
	note B_, 2
	octave 3
	note F#, 2
	octave 2
	note B_, 2
	octave 3
	note F#, 2
	note C_, 2
	note F#, 2
	note C_, 2
	note F#, 2
	octave 2
	note B_, 2
	octave 3
	note F#, 2
	octave 2
	note B_, 2
	octave 3
	note C#, 2
	octave 2
	note F#, 2
	octave 3
	note C#, 2
	octave 2
	note F#, 2
	octave 3
	note F#, 2
	octave 2
	note B_, 2
	octave 3
	note F#, 2
	octave 2
	note B_, 2
	octave 3
	note F#, 2
	note C_, 2
	note F#, 2
	note C_, 2
	note F#, 2
	octave 2
	note B_, 2
	octave 3
	note F#, 2
	octave 2
	note B_, 2
	octave 3
	note C#, 2
	octave 2
	note F#, 2
	octave 3
	note C#, 2
	octave 2
	note F#, 2
	note B_, 2
	note E_, 2
	note B_, 2
	note E_, 2
	note B_, 16
	note __, 4
	octave 4
	note F#, 4
	note __, 2
	note G#, 2
	note G#, 4
	note __, 4
	note G#, 4
	note __, 2
	note F#, 2
	note __, 2
	note F#, 2
	note __, 4
	note F#, 4
	note __, 2
	note G#, 2
	note G#, 4
	note __, 4
	note G#, 4
	note __, 2
	note F#, 2
	note __, 2
	note F#, 2
	note __, 4
	note F#, 4
	note __, 2
	note G#, 2
	note G#, 4
	note __, 4
	note G#, 4
	note __, 2
	note F#, 2
	note __, 2
	note F#, 2
	note __, 4
	note F#, 4
	note __, 2
	note G#, 2
	note G#, 4
	note __, 4
	note G#, 4
	note __, 2
	note F#, 2
	octave 2
	note D#, 3
	note F_, 1
	octave 3
	note C#, 2
	octave 2
	note F#, 2
	octave 3
	note C#, 2
	octave 2
	note F#, 2
	octave 3
	note F#, 2
	octave 2
	note B_, 2
	octave 3
	note F#, 2
	octave 2
	note B_, 2
	octave 3
	note F#, 2
	note C_, 2
	note F#, 2
	note C_, 2
	note F#, 2
	octave 2
	note B_, 2
	octave 3
	note F#, 2
	octave 2
	note B_, 2
	octave 3
	note C#, 2
	octave 2
	note F#, 2
	octave 3
	note C#, 2
	octave 2
	note F#, 2
	octave 3
	note F#, 2
	octave 2
	note B_, 2
	octave 3
	note F#, 2
	octave 2
	note B_, 2
	octave 3
	note F#, 2
	note C_, 2
	note F#, 2
	note C_, 2
	note F#, 2
	octave 2
	note B_, 2
	octave 3
	note F#, 2
	octave 2
	note B_, 2
	octave 3
	note C#, 2
	octave 2
	note F#, 2
	octave 3
	note C#, 2
	octave 2
	note F#, 2
	octave 3
	note F#, 2
	octave 2
	note B_, 2
	octave 3
	note F#, 2
	octave 2
	note B_, 2
	octave 3
	note F#, 2
	note C_, 2
	note F#, 2
	note C_, 2
	note F#, 2
	octave 2
	note B_, 2
	octave 3
	note F#, 2
	octave 2
	note B_, 2
	octave 3
	note C#, 2
	octave 2
	note F#, 2
	octave 3
	note C#, 2
	octave 2
	note F#, 2
	note B_, 2
	note E_, 2
	note B_, 2
	note E_, 2
	note B_, 16
	octave 5
	note C#, 4
	octave 4
	note A#, 4
	note G#, 2
	note F#, 2
	note __, 2
	note A#, 4
	note B_, 2
	note A#, 4
	note G#, 2
	note F#, 2
	note D#, 2
	note C#, 2
	octave 5
	note C#, 4
	octave 4
	note A#, 4
	note G#, 2
	note F#, 2
	note __, 2
	note A#, 4
	note B_, 2
	note A#, 4
	note G#, 2
	note F#, 2
	note D#, 2
	note C#, 2
	octave 5
	note C#, 4
	octave 4
	note A#, 4
	note G#, 2
	note F#, 2
	note __, 2
	note A#, 4
	note B_, 2
	note A#, 4
	note G#, 2
	note F#, 2
	note D#, 2
	note C#, 2
	octave 5
	note C#, 4
	octave 4
	note A#, 4
	note G#, 2
	note F#, 2
	note __, 2
	note A#, 4
	note B_, 2
	note A#, 4
	note G#, 2
	note F#, 2
	note D#, 2
	note C#, 2
	note __, 8
	loopchannel 0, Music_AllStar_Ch1_Loop


Music_AllStar_Ch2:
	volume $77
	notetype $c, $95
	dutycycle $1
Music_AllStar_Ch2_Loop:
	octave 4
	note __, 4
	octave 3
	note F#, 4
	octave 4
	note C#, 2
	octave 3
	note A#, 2
	note A#, 4
	note G#, 2
	note F#, 2
	note F#, 2
	note B_, 4
	note A#, 2
	note A#, 2
	note G#, 2
	note G#, 2
	note F#, 2
	note __, 2
	note F#, 2
	octave 4
	note C#, 2
	octave 3
	note A#, 2
	note A#, 2
	note G#, 2
	note G#, 2
	note F#, 2
	note F#, 2
	note D#, 4
	note C#, 6
	note __, 4
	note F#, 2
	note F#, 2
	octave 4
	note C#, 2
	octave 3
	note A#, 2
	note A#, 2
	note G#, 2
	note G#, 2
	note F#, 2
	note F#, 2
	note B_, 4
	note A#, 2
	note A#, 2
	note G#, 2
	note G#, 2
	note F#, 2
	note F#, 2
	octave 4
	note C#, 4
	octave 3
	note A#, 2
	note A#, 2
	note G#, 4
	note F#, 2
	note F#, 2
	note G#, 4
	note D#, 6
	note __, 4
	note F#, 3
	note F#, 1
	note F#, 2
	note F#, 2
	note F#, 1
	note F#, 1
	note F#, 1
	note F#, 1
	note F#, 2
	note F#, 2
	note F#, 1
	note F#, 3
	note F#, 2
	note F#, 1
	note F#, 1
	note F#, 2
	note F#, 1
	note F#, 1
	note F#, 1
	note F#, 1
	note F#, 2
	note A#, 1
	note F#, 3
	note A#, 1
	octave 4
	note C#, 1
	note C#, 2
	note C#, 2
	octave 3
	note B_, 1
	note B_, 1
	note A#, 2
	note A#, 2
	note A#, 3
	note C#, 1
	note A#, 2
	note F#, 2
	note F#, 2
	note F#, 1
	note D#, 1
	note F#, 2
	note F#, 2
	note D#, 1
	note C#, 3
	note A#, 1
	octave 4
	note C#, 2
	octave 3
	note A#, 1
	octave 4
	note D#, 2
	octave 3
	note A#, 1
	octave 4
	note C#, 2
	octave 3
	note A#, 1
	octave 4
	note D#, 2
	octave 3
	note A#, 1
	octave 4
	note C#, 2
	octave 3
	note B_, 2
	note A#, 2
	note G#, 2
	note G#, 2
	note F#, 1
	note G#, 2
	note F#, 2
	note __, 2
	note __, 1
	note C#, 1
	note F#, 1
	note F#, 1
	note F#, 2
	note F#, 1
	note F#, 1
	note F#, 2
	note F#, 4
	note __, 2
	note __, 1
	note C#, 1
	note A#, 1
	note F#, 1
	note F#, 2
	note F#, 1
	note D#, 1
	note D#, 2
	note D#, 4
	note __, 4
	note A#, 2
	note F#, 4
	note F#, 1
	note D#, 1
	note F#, 2
	note F#, 2
	note __, 2
	note F#, 1
	note D#, 1
	note F#, 2
	note F#, 2
	note __, 2
	note F#, 2
	note __, 2
	note A#, 6
	note A#, 2
	note F#, 4
	note F#, 1
	note D#, 1
	note F#, 2
	note F#, 2
	note __, 2
	note F#, 1
	note D#, 1
	note F#, 2
	note F#, 2
	note __, 2
	note F#, 2
	note __, 2
	note A#, 6
	note A#, 4
	octave 4
	note C#, 3
	note C#, 1
	octave 3
	note B_, 2
	note A#, 2
	note G#, 2
	note G#, 2
	note F#, 8
	note F#, 2
	note F#, 2
	note G#, 2
	note F#, 2
	note A#, 2
	note G#, 6
	note G#, 2
	note F#, 4
	note G#, 2
	note A#, 2
	note D#, 12
	note F#, 1
	note F#, 1
	note F#, 2
	note F#, 2
	note __, 2
	note F#, 1
	note F#, 1
	note F#, 1
	note F#, 1
	note F#, 2
	note F#, 1
	note F#, 2
	note C#, 1
	note F#, 1
	note F#, 1
	note F#, 2
	note F#, 2
	note F#, 2
	note F#, 1
	note F#, 1
	note F#, 2
	note A#, 1
	note F#, 1
	note C#, 1
	note C#, 1
	note A#, 1
	octave 4
	note C#, 1
	note C#, 1
	octave 3
	note B_, 2
	note A#, 2
	note G#, 1
	note G#, 1
	note F#, 3
	note F#, 1
	note F#, 1
	note F#, 1
	note G#, 1
	note A#, 2
	note G#, 1
	note F#, 1
	note G#, 1
	note F#, 1
	note D#, 2
	note D#, 1
	note D#, 2
	note C#, 1
	note A#, 2
	octave 4
	note C#, 2
	note D#, 3
	octave 3
	note C#, 1
	note A#, 1
	note F#, 1
	note F#, 1
	note F#, 1
	note F#, 3
	note C#, 1
	note F#, 1
	note G#, 1
	note A#, 1
	octave 4
	note C#, 1
	octave 3
	note B_, 2
	note A#, 1
	note G#, 1
	note A#, 1
	note G#, 1
	note D#, 2
	note D#, 3
	note C#, 1
	octave 4
	note D#, 2
	note C#, 2
	note C#, 1
	note C#, 3
	octave 3
	note A#, 1
	note F#, 2
	note F#, 2
	note __, 2
	note __, 1
	note F#, 1
	note F#, 1
	note F#, 1
	note G#, 1
	note A#, 1
	note F#, 1
	note F#, 1
	note G#, 1
	note A#, 1
	note F#, 1
	note D#, 2
	note D#, 4
	note __, 4
	note A#, 2
	note F#, 4
	note F#, 1
	note D#, 1
	note F#, 2
	note F#, 2
	note __, 2
	note F#, 1
	note D#, 1
	note F#, 2
	note F#, 2
	note __, 2
	note F#, 2
	note __, 2
	note A#, 6
	note A#, 2
	note F#, 4
	note F#, 1
	note D#, 1
	note F#, 2
	note F#, 2
	note __, 2
	note F#, 1
	note D#, 1
	note F#, 2
	note F#, 2
	note __, 2
	note F#, 2
	note __, 2
	note A#, 6
	note A#, 4
	octave 4
	note C#, 3
	note C#, 1
	octave 3
	note B_, 2
	note A#, 2
	note G#, 2
	note G#, 2
	note F#, 8
	note F#, 2
	note F#, 2
	note G#, 2
	note F#, 2
	note A#, 2
	note G#, 6
	note G#, 2
	note F#, 4
	note G#, 2
	note A#, 2
	note D#, 14
	octave 4
	note C#, 4
	octave 3
	note A#, 4
	note G#, 2
	note F#, 2
	note __, 2
	note A#, 4
	note B_, 2
	note A#, 4
	note G#, 2
	note F#, 2
	note D#, 2
	note C#, 2
	octave 4
	note C#, 4
	octave 3
	note A#, 4
	note G#, 2
	note F#, 2
	note __, 2
	note A#, 4
	note B_, 2
	note A#, 4
	note G#, 2
	note F#, 2
	note D#, 2
	note C#, 2
	octave 4
	note C#, 4
	octave 3
	note A#, 4
	note G#, 2
	note F#, 2
	note __, 2
	note A#, 4
	note B_, 2
	note A#, 4
	note G#, 2
	note F#, 2
	note D#, 2
	note C#, 2
	octave 4
	note C#, 4
	octave 3
	note A#, 4
	note G#, 2
	note F#, 2
	note __, 2
	note A#, 4
	note B_, 2
	note A#, 4
	note G#, 2
	note F#, 2
	note D#, 2
	note C#, 2
	note __, 8
	loopchannel 0, Music_AllStar_Ch2_Loop


Music_AllStar_Ch3:
	notetype $c, $27
	stereopanning $f0
Music_AllStar_Ch3_Loop:
	intensity $27
	octave 4
	note __, 8
	octave 1
	note F#, 4
	note __, 2
	octave 2
	note C_, 2
	note C#, 4
	note __, 2
	note D#, 2
	octave 1
	note G#, 4
	note __, 2
	note A#, 2
	note B_, 4
	note __, 2
	octave 2
	note C#, 2
	octave 1
	note F#, 4
	note __, 2
	octave 2
	note C_, 2
	note C#, 4
	note __, 2
	note D#, 2
	octave 1
	note G#, 4
	note __, 2
	note A#, 2
	note B_, 4
	note __, 2
	octave 2
	note C#, 2
	octave 1
	note F#, 4
	note __, 2
	octave 2
	note C_, 2
	note C#, 4
	note __, 2
	note D#, 2
	octave 1
	note G#, 4
	note __, 2
	note A#, 2
	note B_, 4
	note __, 2
	octave 2
	note C#, 2
	octave 1
	note F#, 4
	note __, 2
	octave 2
	note C_, 2
	note C#, 4
	note __, 2
	note D#, 2
	octave 1
	note G#, 4
	note __, 2
	note A#, 2
	note B_, 4
	note __, 2
	octave 2
	note C#, 2
	octave 1
	note F#, 4
	note __, 2
	octave 2
	note C_, 2
	note C#, 4
	note __, 2
	note D#, 2
	octave 1
	note G#, 4
	note __, 2
	note A#, 2
	note B_, 4
	note __, 2
	octave 2
	note C#, 2
	octave 1
	note F#, 4
	note __, 2
	octave 2
	note C_, 2
	note C#, 4
	note __, 2
	note D#, 2
	octave 1
	note G#, 4
	note __, 2
	note A#, 2
	note B_, 4
	note __, 2
	octave 2
	note C#, 2
	octave 1
	note F#, 4
	note __, 2
	octave 2
	note C_, 2
	note C#, 4
	note __, 2
	note D#, 2
	octave 1
	note G#, 4
	note __, 2
	note A#, 2
	note B_, 4
	note __, 2
	octave 2
	note C#, 2
	octave 1
	note F#, 4
	note __, 2
	octave 2
	note C_, 2
	note C#, 4
	note __, 2
	note D#, 2
	octave 1
	note G#, 4
	note __, 2
	note A#, 2
	note B_, 4
	octave 2
	note D#, 3
	note F_, 1
	intensity $26
	note F#, 2
	note F#, 2
	note F#, 2
	note F#, 2
	note B_, 2
	note B_, 2
	note B_, 2
	note B_, 2
	octave 3
	note C_, 2
	note C_, 2
	note C_, 2
	note C_, 2
	octave 2
	note B_, 2
	note B_, 2
	note B_, 2
	note B_, 2
	note F#, 2
	note F#, 2
	note F#, 2
	note F#, 2
	note B_, 2
	note B_, 2
	note B_, 2
	note B_, 2
	octave 3
	note C_, 2
	note C_, 2
	note C_, 2
	note C_, 2
	octave 2
	note B_, 2
	note B_, 2
	note B_, 2
	note B_, 2
	note F#, 2
	note F#, 2
	note F#, 2
	note F#, 2
	note B_, 2
	note B_, 2
	note B_, 2
	note B_, 2
	octave 3
	note C_, 2
	note C_, 2
	note C_, 2
	note C_, 2
	octave 2
	note B_, 2
	note B_, 2
	note B_, 2
	note B_, 2
	note F#, 2
	note F#, 2
	note F#, 2
	note F#, 2
	note E_, 2
	note E_, 2
	note E_, 2
	note E_, 2
	note B_, 16
	intensity $27
	octave 1
	note F#, 4
	note __, 2
	octave 2
	note C_, 2
	note C#, 4
	note __, 2
	note D#, 2
	octave 1
	note G#, 4
	note __, 2
	note A#, 2
	note B_, 4
	note __, 2
	octave 2
	note C#, 2
	octave 1
	note F#, 4
	note __, 2
	octave 2
	note C_, 2
	note C#, 4
	note __, 2
	note D#, 2
	octave 1
	note G#, 4
	note __, 2
	note A#, 2
	note B_, 4
	note __, 2
	octave 2
	note C#, 2
	octave 1
	note F#, 4
	note __, 2
	octave 2
	note C_, 2
	note C#, 4
	note __, 2
	note D#, 2
	octave 1
	note G#, 4
	note __, 2
	note A#, 2
	note B_, 4
	note __, 2
	octave 2
	note C#, 2
	octave 1
	note F#, 4
	note __, 2
	octave 2
	note C_, 2
	note C#, 4
	note __, 2
	note D#, 2
	octave 1
	note G#, 4
	note __, 2
	note A#, 2
	note B_, 4
	octave 2
	note D#, 3
	note F_, 1
	intensity $26
	note F#, 2
	note F#, 2
	note F#, 2
	note F#, 2
	note B_, 2
	note B_, 2
	note B_, 2
	note B_, 2
	octave 3
	note C_, 2
	note C_, 2
	note C_, 2
	note C_, 2
	octave 2
	note B_, 2
	note B_, 2
	note B_, 2
	note B_, 2
	note F#, 2
	note F#, 2
	note F#, 2
	note F#, 2
	note B_, 2
	note B_, 2
	note B_, 2
	note B_, 2
	octave 3
	note C_, 2
	note C_, 2
	note C_, 2
	note C_, 2
	octave 2
	note B_, 2
	note B_, 2
	note B_, 2
	note B_, 2
	note F#, 2
	note F#, 2
	note F#, 2
	note F#, 2
	note B_, 2
	note B_, 2
	note B_, 2
	note B_, 2
	octave 3
	note C_, 2
	note C_, 2
	note C_, 2
	note C_, 2
	octave 2
	note B_, 2
	note B_, 2
	note B_, 2
	note B_, 2
	note F#, 2
	note F#, 2
	note F#, 2
	note F#, 2
	note E_, 2
	note E_, 2
	note E_, 2
	note E_, 2
	note B_, 16
	note F#, 4
	note __, 4
	note B_, 4
	note __, 2
	note B_, 2
	octave 3
	note C_, 4
	note __, 4
	octave 2
	note B_, 4
	note __, 4
	note F#, 4
	note __, 4
	note B_, 4
	note __, 2
	note B_, 2
	octave 3
	note C_, 4
	note __, 4
	octave 2
	note B_, 4
	note __, 4
	note F#, 4
	note __, 4
	note B_, 4
	note __, 2
	note B_, 2
	octave 3
	note C_, 4
	note __, 4
	octave 2
	note B_, 4
	note __, 4
	note F#, 4
	note __, 4
	note B_, 4
	note __, 2
	note B_, 2
	octave 3
	note C_, 4
	note __, 4
	octave 2
	note B_, 4
	note D#, 3
	note F_, 1
	note __, 8
	loopchannel 0, Music_AllStar_Ch3_Loop


Music_AllStar_Ch4:
	notetype $c
	togglenoise 2
Music_AllStar_Ch4_Loop:
	note __, 16
	note __, 16
	note __, 16
	note __, 16
	note __, 4
	note G_, 4
	note __, 4
	note G_, 4
	note __, 4
	note G_, 4
	note __, 4
	note G_, 4
	note __, 4
	note G_, 4
	note __, 4
	note G_, 4
	note __, 4
	note G_, 4
	note F_, 3
	note F_, 1
	note F_, 3
	note F_, 1
	note F_, 3
	note F_, 1
	note C_, 2
	note C_, 1
	note C_, 1
	note F_, 2
	note G_, 2
	note C_, 2
	note G_, 2
	note F_, 2
	note F_, 2
	note C_, 2
	note G_, 2
	note F_, 2
	note G_, 2
	note C_, 2
	note G_, 2
	note F_, 2
	note F_, 2
	note C_, 2
	note G_, 2
	note F_, 2
	note G_, 2
	note C_, 2
	note G_, 2
	note F_, 2
	note F_, 2
	note C_, 2
	note G_, 2
	note F_, 2
	note G_, 2
	note C_, 2
	note G_, 2
	note F_, 2
	note F_, 2
	note C_, 2
	note G_, 2
	note F_, 2
	note G_, 2
	note C_, 2
	note G_, 2
	note F_, 2
	note F_, 2
	note C_, 2
	note G_, 2
	note F_, 2
	note G_, 2
	note C_, 2
	note G_, 2
	note F_, 2
	note F_, 2
	note C_, 2
	note G_, 2
	note F_, 2
	note G_, 2
	note C_, 2
	note G_, 2
	note F_, 2
	note F_, 2
	note C_, 2
	note G_, 2
	note F_, 2
	note G_, 2
	note C_, 2
	note G_, 2
	note F_, 2
	note F_, 2
	note C_, 1
	note C_, 1
	note C_, 1
	note C_, 1
	note F_, 2
	note G_, 2
	note C_, 2
	note G_, 2
	note F_, 2
	note F_, 2
	note C_, 2
	note G_, 2
	note F_, 2
	note G_, 2
	note C_, 2
	note G_, 2
	note F_, 2
	note F_, 2
	note C_, 2
	note G_, 2
	note F_, 2
	note G_, 2
	note C_, 2
	note G_, 2
	note F_, 2
	note F_, 2
	note C_, 2
	note G_, 2
	note F_, 2
	note G_, 2
	note C_, 2
	note G_, 2
	note F_, 2
	note F_, 2
	note C_, 2
	note G_, 2
	note F_, 2
	note G_, 2
	note C_, 2
	note G_, 2
	note F_, 2
	note F_, 2
	note C_, 2
	note G_, 2
	note F_, 2
	note G_, 2
	note C_, 2
	note G_, 2
	note F_, 2
	note F_, 2
	note C_, 2
	note G_, 2
	note F_, 2
	note G_, 2
	note C_, 2
	note G_, 2
	note F_, 2
	note F_, 2
	note C_, 2
	note G_, 2
	note F_, 3
	note F_, 1
	note F_, 3
	note F_, 1
	note F_, 3
	note F_, 1
	note F_, 2
	note F_, 2
	note F_, 2
	note G_, 2
	note C_, 2
	note G_, 2
	note F_, 2
	note F_, 2
	note C_, 2
	note G_, 2
	note F_, 2
	note G_, 2
	note C_, 2
	note G_, 2
	note F_, 2
	note F_, 2
	note C_, 2
	note G_, 2
	note F_, 2
	note G_, 2
	note C_, 2
	note G_, 2
	note F_, 2
	note F_, 2
	note C_, 2
	note G_, 2
	note F_, 2
	note G_, 2
	note C_, 2
	note G_, 2
	note F_, 2
	note F_, 2
	note C_, 2
	note G_, 2
	note F_, 2
	note G_, 2
	note C_, 2
	note G_, 2
	note F_, 2
	note F_, 2
	note C_, 2
	note G_, 2
	note F_, 2
	note G_, 2
	note C_, 2
	note G_, 2
	note F_, 2
	note F_, 2
	note C_, 2
	note G_, 2
	note F_, 2
	note G_, 2
	note C_, 2
	note G_, 2
	note F_, 2
	note F_, 2
	note C_, 2
	note G_, 2
	note F_, 2
	note G_, 2
	note C_, 2
	note G_, 2
	note F_, 2
	note F_, 2
	note C_, 1
	note C_, 1
	note C_, 1
	note C_, 1
	note F_, 2
	note G_, 2
	note C_, 2
	note G_, 2
	note F_, 2
	note F_, 2
	note C_, 2
	note G_, 2
	note F_, 2
	note G_, 2
	note C_, 2
	note G_, 2
	note F_, 2
	note F_, 2
	note C_, 2
	note G_, 2
	note F_, 2
	note G_, 2
	note C_, 2
	note G_, 2
	note F_, 2
	note F_, 2
	note C_, 2
	note G_, 2
	note F_, 2
	note G_, 2
	note C_, 2
	note G_, 2
	note F_, 2
	note F_, 2
	note C_, 2
	note G_, 2
	note F_, 2
	note G_, 2
	note C_, 2
	note G_, 2
	note F_, 2
	note F_, 2
	note C_, 2
	note G_, 2
	note F_, 2
	note G_, 2
	note C_, 2
	note G_, 2
	note F_, 2
	note F_, 2
	note C_, 2
	note G_, 2
	note F_, 2
	note G_, 2
	note C_, 2
	note G_, 2
	note F_, 2
	note F_, 2
	note C_, 2
	note G_, 2
	note F_, 3
	note F_, 1
	note F_, 3
	note F_, 1
	note F_, 2
	note C_, 2
	note C_, 1
	note C_, 3
	note __, 8
	note __, 16
	note __, 8
	note F_, 2
	note G_, 2
	note C_, 2
	note G_, 2
	note F_, 2
	note F_, 2
	note C_, 2
	note G_, 2
	note F_, 2
	note G_, 2
	note C_, 2
	note G_, 2
	note F_, 2
	note F_, 2
	note C_, 2
	note G_, 2
	note F_, 2
	note G_, 2
	note C_, 2
	note G_, 2
	note F_, 2
	note F_, 2
	note C_, 2
	note G_, 2
	note F_, 2
	note G_, 2
	note C_, 2
	note G_, 2
	note F_, 2
	note F_, 2
	note C_, 2
	note G_, 2
	note F_, 2
	note G_, 2
	note C_, 2
	note G_, 2
	note F_, 2
	note F_, 2
	note C_, 2
	note G_, 2
	note F_, 2
	note G_, 2
	note C_, 2
	note G_, 2
	note F_, 2
	note F_, 2
	note C_, 2
	note G_, 2
	note __, 8
	loopchannel 0, Music_AllStar_Ch4_Loop


