; Never Gonna Give You Up - Rick Astley
; Demixed by Hyperdriveguy
; This song was automatically generated. It may contain errors.


Music_NeverGonnaGiveYouUp:
	musicheader 3, 1, Music_NeverGonnaGiveYouUp_Ch1
	musicheader 1, 2, Music_NeverGonnaGiveYouUp_Ch2
	musicheader 1, 3, Music_NeverGonnaGiveYouUp_Ch3


Music_NeverGonnaGiveYouUp_Ch1:
	tempo 166
	volume $77
	notetype $c, $95
	dutycycle $2
Music_NeverGonnaGiveYouUp_Ch1_Loop:
	octave 4
	note D_, 6
	note C_, 6
	note C_, 4
	note E_, 6
	note F_, 6
	note A_, 1
	note G_, 1
	note F_, 2
	note D_, 6
	note C_, 6
	note C_, 10
	note __, 2
	note __, 2
	note __, 1
	note __, 1
	note __, 1
	note __, 2
	note __, 1
	note D_, 6
	note C_, 6
	note C_, 4
	note E_, 6
	note F_, 6
	note A_, 1
	note G_, 1
	note F_, 2
	note D_, 6
	note C_, 6
	note C_, 4
	note C_, 6
	note __, 2
	note __, 2
	note __, 1
	note __, 1
	note __, 1
	note __, 2
	note __, 1
	note __, 4
	octave 3
	note A#, 2
	note A#, 4
	note A#, 2
	note __, 2
	octave 4
	note C_, 3
	note D_, 1
	note C_, 10
	note __, 4
	note __, 2
	octave 3
	note A#, 8
	note __, 2
	note A#, 4
	octave 4
	note C_, 2
	note __, 2
	note F_, 2
	note C_, 8
	note __, 2
	note __, 2
	octave 3
	note A#, 2
	note A#, 2
	note A#, 4
	note __, 2
	note A#, 2
	note __, 2
	octave 4
	note C_, 2
	note C_, 2
	note __, 2
	note C_, 6
	note __, 4
	note __, 2
	octave 3
	note A#, 4
	note __, 2
	note A#, 2
	note __, 2
	note __, 4
	octave 4
	note E_, 12
	note __, 4
	note D_, 8
	note __, 2
	note __, 2
	note __, 2
	note __, 2
	note E_, 8
	note __, 4
	note __, 4
	note __, 8
	octave 3
	note A#, 8
	octave 4
	note C_, 2
	note E_, 10
	note __, 1
	note __, 1
	note __, 1
	note __, 1
	note F_, 3
	note F_, 3
	note E_, 6
	note __, 1
	note __, 1
	note __, 1
	note __, 1
	note C_, 3
	note C_, 3
	octave 3
	note A_, 3
	note __, 1
	note __, 2
	note __, 1
	note __, 1
	note __, 1
	note __, 1
	octave 4
	note D_, 4
	note __, 2
	note C_, 3
	note __, 1
	note __, 4
	note __, 2
	note C_, 4
	note D_, 8
	note __, 1
	note __, 1
	note __, 1
	note __, 1
	note F_, 3
	note F_, 3
	note E_, 6
	note __, 1
	note __, 1
	note __, 1
	note __, 1
	note C_, 4
	note __, 4
	note __, 8
	octave 3
	note A#, 4
	note __, 2
	octave 4
	note C_, 3
	note __, 1
	note __, 4
	note __, 2
	note C_, 4
	note D_, 8
	note __, 4
	octave 2
	note A#, 3
	note A#, 1
	note __, 4
	note A#, 3
	note A#, 1
	note __, 4
	note A#, 3
	note A#, 1
	note __, 2
	octave 3
	note C_, 2
	note __, 8
	octave 2
	note A#, 3
	note A#, 1
	note __, 4
	note A#, 3
	note A#, 1
	note __, 4
	note A#, 3
	note A#, 1
	note __, 2
	octave 3
	note C_, 2
	note __, 8
	loopchannel 0, Music_NeverGonnaGiveYouUp_Ch1_Loop


Music_NeverGonnaGiveYouUp_Ch2:
	volume $77
	notetype $c, $95
	dutycycle $1
Music_NeverGonnaGiveYouUp_Ch2_Loop:
	octave 4
	note F_, 6
	note G_, 10
	note G_, 6
	note A_, 6
	octave 5
	note C_, 1
	octave 4
	note A#, 1
	note A_, 2
	note F_, 6
	note G_, 10
	octave 3
	note A#, 6
	note __, 2
	note __, 2
	octave 4
	note C_, 1
	note C_, 1
	note D_, 1
	note E_, 2
	note F_, 1
	note F_, 6
	note G_, 10
	note G_, 6
	note A_, 6
	octave 5
	note C_, 1
	octave 4
	note A#, 1
	note A_, 2
	note F_, 6
	note G_, 10
	octave 3
	note A#, 6
	note __, 2
	note __, 2
	octave 4
	note C_, 1
	note C_, 1
	note D_, 1
	note E_, 2
	note F_, 1
	note __, 4
	note D_, 2
	note E_, 2
	note F_, 2
	note F_, 2
	note G_, 2
	note E_, 3
	note D_, 1
	note C_, 10
	note __, 4
	note __, 2
	note D_, 2
	note D_, 2
	note E_, 2
	note F_, 2
	note D_, 4
	note C_, 2
	octave 5
	note C_, 2
	note __, 2
	note C_, 2
	octave 4
	note G_, 8
	note __, 2
	note __, 2
	note D_, 2
	note D_, 2
	note E_, 2
	note F_, 2
	note D_, 2
	note F_, 2
	note G_, 2
	note __, 2
	note E_, 2
	note D_, 2
	note C_, 6
	note __, 4
	note __, 2
	note D_, 2
	note D_, 2
	note E_, 2
	note F_, 2
	note D_, 2
	note C_, 4
	note G_, 2
	note G_, 2
	note G_, 2
	note A_, 2
	note G_, 4
	note __, 4
	note F_, 10
	note G_, 2
	note A_, 2
	note F_, 2
	note G_, 2
	note G_, 2
	note G_, 2
	note A_, 2
	note G_, 4
	note C_, 4
	note __, 8
	note D_, 2
	note E_, 2
	note F_, 2
	note D_, 2
	note __, 2
	note G_, 2
	note A_, 2
	note G_, 6
	note C_, 1
	note D_, 1
	note F_, 1
	note D_, 1
	note A_, 3
	note A_, 3
	note G_, 6
	note C_, 1
	note D_, 1
	note F_, 1
	note D_, 1
	note G_, 3
	note G_, 3
	note F_, 3
	note E_, 1
	note D_, 2
	note C_, 1
	note D_, 1
	note F_, 1
	note D_, 1
	note F_, 4
	note G_, 2
	note E_, 3
	note D_, 1
	note C_, 4
	note C_, 2
	note G_, 4
	note F_, 8
	note C_, 1
	note D_, 1
	note F_, 1
	note D_, 1
	note A_, 3
	note A_, 3
	note G_, 6
	note C_, 1
	note D_, 1
	note F_, 1
	note D_, 1
	octave 5
	note C_, 4
	octave 4
	note E_, 2
	note F_, 3
	note E_, 1
	note D_, 2
	note C_, 1
	note D_, 1
	note F_, 1
	note D_, 1
	note F_, 4
	note G_, 2
	note E_, 3
	note D_, 1
	note C_, 4
	note C_, 2
	note G_, 4
	note F_, 8
	note __, 4
	note C_, 16
	note F_, 3
	note F_, 1
	note __, 2
	note E_, 2
	note __, 8
	note C_, 16
	note F_, 3
	note F_, 1
	note __, 2
	note E_, 2
	note __, 8
	loopchannel 0, Music_NeverGonnaGiveYouUp_Ch2_Loop


Music_NeverGonnaGiveYouUp_Ch3:
	notetype $c, $26
Music_NeverGonnaGiveYouUp_Ch3_Loop:
	octave 4
	octave 1
	note A#, 2
	octave 2
	note A#, 4
	note C_, 4
	octave 3
	note C_, 2
	octave 2
	note C_, 2
	octave 3
	note C_, 2
	octave 1
	note A_, 2
	octave 2
	note A_, 4
	octave 1
	note A#, 4
	octave 3
	note D_, 2
	octave 1
	note A#, 2
	octave 3
	note D_, 2
	octave 1
	note A#, 2
	octave 2
	note A#, 4
	note C_, 4
	octave 3
	note C_, 2
	octave 2
	note C_, 2
	octave 3
	note C_, 2
	octave 1
	note A#, 2
	octave 2
	note A#, 4
	note C_, 4
	octave 3
	note C_, 2
	octave 2
	note C_, 2
	octave 3
	note C_, 2
	octave 1
	note A#, 2
	octave 2
	note A#, 4
	note C_, 4
	octave 3
	note C_, 2
	octave 2
	note C_, 2
	octave 3
	note C_, 2
	octave 1
	note A_, 2
	octave 2
	note A_, 4
	octave 1
	note A#, 4
	octave 3
	note D_, 2
	octave 1
	note A#, 2
	octave 3
	note D_, 2
	octave 1
	note A#, 2
	octave 2
	note A#, 4
	note C_, 4
	octave 3
	note C_, 2
	octave 2
	note C_, 2
	octave 3
	note C_, 2
	octave 1
	note A#, 2
	octave 2
	note A#, 4
	note C_, 4
	octave 3
	note C_, 2
	octave 2
	note C_, 2
	octave 3
	note C_, 2
	octave 1
	note A#, 2
	octave 2
	note F_, 2
	note A#, 4
	octave 1
	note A#, 6
	octave 3
	note C_, 2
	octave 2
	note C_, 6
	octave 3
	note C_, 2
	octave 2
	note C_, 4
	note B_, 4
	octave 1
	note A#, 2
	octave 2
	note F_, 2
	octave 1
	note A#, 8
	note A#, 4
	octave 2
	note C_, 2
	note __, 2
	note __, 4
	note __, 8
	octave 1
	note A#, 2
	octave 2
	note F_, 2
	octave 1
	note A#, 8
	octave 2
	note A#, 4
	note C_, 6
	note C_, 6
	octave 1
	note B_, 4
	note A#, 2
	octave 2
	note F_, 2
	octave 1
	note A#, 4
	octave 2
	note G_, 8
	note C_, 12
	note B_, 4
	octave 1
	note A#, 2
	octave 2
	note A#, 2
	octave 1
	note A#, 2
	octave 2
	note A#, 2
	octave 1
	note A#, 2
	octave 2
	note A#, 2
	octave 1
	note A#, 2
	octave 2
	note A#, 2
	note C_, 2
	octave 3
	note C_, 2
	octave 2
	note C_, 2
	octave 3
	note C_, 2
	octave 2
	note C_, 2
	octave 3
	note C_, 2
	octave 2
	note C_, 2
	octave 3
	note C_, 2
	octave 1
	note A#, 2
	octave 2
	note A#, 2
	octave 1
	note A#, 2
	octave 2
	note A#, 2
	octave 1
	note A#, 2
	octave 2
	note A#, 2
	octave 1
	note A#, 2
	octave 2
	note A#, 2
	note C_, 2
	note __, 2
	note __, 4
	note __, 8
	note A#, 3
	octave 1
	note A#, 1
	octave 2
	note A#, 2
	note C_, 2
	octave 3
	note C_, 4
	note __, 4
	octave 2
	note A_, 3
	octave 1
	note A_, 1
	octave 2
	note A_, 2
	note D_, 2
	octave 3
	note D_, 4
	note __, 4
	octave 1
	note G_, 6
	octave 3
	note C_, 2
	octave 2
	note C_, 4
	octave 3
	note C_, 4
	octave 2
	note A_, 4
	octave 3
	note D_, 8
	note __, 4
	octave 1
	note A#, 3
	octave 2
	note A#, 1
	octave 1
	note A#, 2
	octave 3
	note C_, 2
	octave 2
	note C_, 4
	note __, 4
	octave 1
	note A_, 4
	octave 2
	note A_, 2
	note D_, 2
	octave 3
	note D_, 4
	note __, 4
	octave 1
	note G_, 6
	octave 3
	note C_, 2
	octave 2
	note C_, 4
	octave 3
	note C_, 4
	octave 2
	note A_, 4
	note D_, 8
	note __, 4
	octave 1
	note A#, 3
	note A#, 1
	note __, 4
	note A#, 3
	note A#, 1
	note __, 4
	note A#, 3
	note A#, 1
	note __, 2
	octave 2
	note C_, 2
	note __, 8
	octave 1
	note A#, 3
	note A#, 1
	note __, 4
	note A#, 3
	note A#, 1
	note __, 4
	note A#, 3
	note A#, 1
	note __, 2
	octave 2
	note C_, 2
	note __, 8
	loopchannel 0, Music_NeverGonnaGiveYouUp_Ch3_Loop


